<?xml version="1.0" encoding="utf-8"?>
<!-- Generator: Adobe Illustrator 22.0.1, SVG Export Plug-In . SVG Version: 6.00 Build 0)  -->
<svg version="1.1" id="Layer_1" xmlns="http://www.w3.org/2000/svg" xmlns:xlink="http://www.w3.org/1999/xlink" x="0px" y="0px"
	 viewBox="0 0 2244.1 1067" style="enable-background:new 0 0 2244.1 1067;" xml:space="preserve">
<style type="text/css">
	.st0{fill:#264997;}
	.st1{fill:#2287F8;}
	.st2{fill:#88D3F2;}
	.st3{fill:#165AC6;}
	.st4{fill:#158C44;}
	.st5{fill:#94D4F7;}
	.st6{fill:#E3F7FC;}
	.st7{fill:#4AA7ED;}
	.st8{fill:#ACE3FC;}
	.st9{fill:#2B388F;}
	.st10{fill:#929497;}
	.st11{fill:none;stroke:#165AC6;stroke-width:0.75;stroke-miterlimit:10;}
</style>
<path class="st0" d="M405.8,390.1c12.4,12.5,37.1,36.8,38.5,38.2c0-2-0.1-42.6-0.1-60.4l-38.4-38.3V390.1z"/>
<path class="st1" d="M444.1,368.3c0-17.2,0-34.5,0-51.7c-0.2-11.1-3.7-21.3-8.7-31.1c-6.8-13.1-17.2-23.6-29.6-30.8V330
	C420.6,344.8,434.3,358.4,444.1,368.3z"/>
<path class="st2" d="M405.8,330v-75.4c-12.3-7.1-26.6-11-41.2-10.9l0-1.3l0,1.3c-15,0-30-0.1-45.1-0.1l78.2,78.3
	C400.5,324.7,403.1,327.4,405.8,330z"/>
<path class="st3" d="M397.8,321.6c-30-30-62.8-62.9-78.2-78.3c-16,0-56.1-0.1-60.1,0c0.8,0.8,125.9,126.2,146.4,146.9v-60.5
	L397.8,321.6z"/>
<path class="st2" d="M530.2,243.5c-2.1-2.2-5.6-2.2-7.8-0.1c-0.7,0.7-1.3,1.4-2,2c-20.9,21-65.3,65.9-66.9,67.5c0,1,0,26.5,0,50.6
	c27.4-28,66.8-69.8,92.5-95.8C542,258.4,537,250.5,530.2,243.5z"/>
<path class="st1" d="M453.5,361c0,30.1,0,65,0,66.1c1.4-1.4,3.3-2.8,4.6-4.1c24.8-24.8,49.5-49.6,74.3-74.4
	c7.7-8,12.4-17.7,15.8-28.2c5.4-17.1,4.2-36.3-2.2-52.7L453.5,361z"/>
<path class="st4" d="M406.4,330.6L406.4,330.6c-2.6-2.6-5.3-5.3-7.9-8L406.4,330.6z"/>
<path class="st4" d="M403.7,330.1L403.7,330.1c-2.6-2.6-5.3-5.3-7.9-8L403.7,330.1z"/>
<circle class="st3" cx="979.7" cy="832.5" r="75.7"/>
<path class="st1" d="M981.7,849c4.2,4.2,8.4,8.5,11.4,11.5c0.4,0.4,0.6,0.9,1.4,1c0-0.7,0-1.3,0-2c0-6,0-12,0-18l-12.9-12.9V849z"/>
<path class="st5" d="M994.6,841.6c0-5.8,0-11.6,0-17.4c-0.1-3.7-1.2-7.2-2.9-10.5c-2.3-4.4-5.8-8-10-10.4v25.4
	C986.7,833.6,991.3,838.2,994.6,841.6z"/>
<path class="st6" d="M981.7,828.7v-25.4c-4.1-2.4-9-3.7-13.8-3.7l0,0v0c-5.1,0-10.1,0-15.2,0L979,826
	C979.9,826.9,980.8,827.8,981.7,828.7z"/>
<path class="st7" d="M979,826c-10.1-10.1-21.1-21.1-26.3-26.4c-5.4,0-10.7,0-16.1,0c-1.4,0-2.7,0.1-4.1,0.1
	c0.2,0.3,42.4,42.4,49.3,49.3v-20.4L979,826z"/>
<path class="st6" d="M1024.2,800.2c-0.7-0.7-1.9-0.8-2.6-0.1c-0.2,0.2-0.5,0.5-0.7,0.7c-7.2,6.9-22.5,21.7-22.8,22.3
	c-0.1,0.3-0.2,0.5-0.2,0.8l0,0c0,0.3-0.2,8.1-0.4,16.2c9.4-9.2,23.1-23,31.9-31.6C1028.1,805.3,1026.4,802.4,1024.2,800.2z"/>
<path class="st5" d="M997.4,839.7c-0.2,10.1-0.4,21.4-0.1,21.7c0.5-0.5,0.9-0.9,1.4-1.4c8.5-8.2,17-16.4,25.5-24.5
	c2.6-2.6,4.3-5.9,5.5-9.4c1.9-5.7,1.7-12.2-0.4-17.8L997.4,839.7z"/>
<rect x="946.1" y="867.5" class="st5" width="48.5" height="1.8"/>
<rect x="1210.1" y="774.7" class="st3" width="1033.4" height="115.5"/>
<path class="st1" d="M1540.1,852.7c4.6,4.7,9.4,9.4,12.7,12.8c0.4,0.4,0.7,1,1.5,1.1c0-0.8,0-1.5,0-2.2c0-6.7,0-13.3,0-20
	l-14.3-14.3V852.7z"/>
<path class="st8" d="M1554.4,844.4c0-6.4,0-12.9,0-19.3c-0.1-4.2-1.4-8-3.3-11.6c-2.5-4.9-6.4-8.8-11.1-11.5v28.2
	C1545.6,835.6,1550.7,840.7,1554.4,844.4z"/>
<path class="st6" d="M1540.1,830.1v-28.2c-4.6-2.7-9.9-4.1-15.4-4.1v0v0c-5.6,0-11.2,0-16.8-0.1l29.2,29.3
	C1538.1,828.1,1539.1,829.1,1540.1,830.1z"/>
<path class="st7" d="M1537.1,827.1c-11.2-11.2-23.5-23.5-29.2-29.3c-6,0-11.9,0-17.9,0c-1.5,0-3.1,0.1-4.6,0.1
	c0.3,0.3,47.1,47.1,54.7,54.8v-22.6L1537.1,827.1z"/>
<path class="st6" d="M1587.3,798.4c-0.8-0.8-2.1-0.8-2.9-0.1c-0.3,0.2-0.5,0.5-0.8,0.8c-8,7.7-25,24.1-25.4,24.7
	c-0.2,0.3-0.2,0.6-0.3,0.9l0,0c0,0.4-0.2,9-0.4,18c10.4-10.3,25.6-25.6,35.4-35.1C1591.7,804.1,1589.8,800.9,1587.3,798.4z"/>
<path class="st5" d="M1557.6,842.4c-0.2,11.2-0.4,23.8-0.1,24.1c0.5-0.5,1-1,1.6-1.5c9.4-9.1,18.9-18.2,28.3-27.3
	c2.9-2.9,4.8-6.5,6.1-10.4c2.1-6.3,1.8-13.5-0.4-19.7L1557.6,842.4z"/>
<path class="st4" d="M2343.8,859.4L2343.8,859.4c-1.7-2.1-3.5-4.2-5.3-6.3L2343.8,859.4z"/>
<g>
	<path class="st6" d="M1326.8,843.6v1.7l-2.7,0.1c-0.6,0-0.8,0.1-0.8,0.3c0,0.5,0.4,1.6,1.5,4.3l4.5,11.3c1-2.5,1.9-4.8,2.2-5.7
		l2.2-5.9c0.2-0.5,1-2.5,1.1-3c0.2-0.7,0.2-0.7,0.2-0.8c0-0.6-0.6-0.6-1.3-0.6h-2.6l-0.1-1.7h9.4v1.7h-1.4c-1.6,0-1.8,0.2-2.3,1.4
		l-7.8,20.5h-1.3l-8.2-20.8c-0.4-0.9-0.4-0.9-1.6-1l-1.8-0.1l-0.1-1.7H1326.8z"/>
	<path class="st6" d="M1359.5,843.8c1.6,0,2,0.1,2.9,0.3l0.3,5.5h-1.6c-0.2-0.9-0.7-3.4-1.2-3.8c-0.3-0.2-2.3-0.2-2.9-0.3l-5.9-0.1
		c-0.8,0-0.9,0.1-0.9,0.9v8.5h0.9c3.5,0,3.9-0.1,4.5-0.4c0.6-0.3,0.7-0.6,1.2-3.3l1.6-0.1c0.1,1.6,0.1,1.8,0.1,8.8h-1.6
		c-0.3-2.9-0.8-3.3-2.2-3.3l-2.4,0.1c-0.9,0-1.4,0.1-2.2,0.1l0.2,8.6l7.3-0.1c1.9-0.1,3.4-0.2,4-2.8l0.3-1.4l1.7,0.1l-0.4,6
		c-1.6,0-8.4-0.1-9.8-0.1c-2.9,0-7.5,0.1-10.4,0.1v-1.7l2.6-0.1c0.9,0,0.9-0.1,0.9-2.8v-15.2c0-1.6-0.1-1.8-1.8-1.8h-2l0.1-1.6
		L1359.5,843.8z"/>
	<path class="st6" d="M1390.5,865l-0.2,1.6c-0.2,0-1.3,0.2-1.5,0.3c-0.2,0-0.7,0.1-1.3,0.1c-4.7,0-5.5-2.4-5.8-5.3
		c-0.5-4.2-0.8-6-6-6h-1.9l0.1,9.1c0.8,0.2,1.2,0.2,3.5,0.3l-0.1,1.7l-11.2,0.1v-1.8l3.8-0.3l0.1-15.2l-0.2-4
		c-1.6-0.3-2.1-0.3-3.8-0.3l0.1-1.6c3.7-0.1,7.8-0.1,10.8-0.1c5,0,8.9,1.4,8.9,6.2c0,3.4-2.5,4.5-5.4,5.4c3.8,1.3,4.1,2.5,5,6.4
		c0.3,1.4,0.9,3.7,3.7,3.5L1390.5,865z M1377.6,854.2c3,0,4.4-1.5,4.4-4.4c0-2.5-1.3-4.4-5.7-4.4c-1.3,0-1.8,0.1-2.5,0.3l-0.1,1.2
		c-0.1,0.3-0.1,1.8-0.1,2.8v4.5L1377.6,854.2z"/>
	<path class="st6" d="M1404,845.3l-1.8,0.1c-1.6,0.1-1.6,0.1-1.6,2.2l0.1,14.5c0,0.3-0.1,2.2-0.1,2.7c0.1,0.5,1.1,0.5,2,0.5h1.3v1.7
		h-10.5l0.1-1.7h1.3c1.8,0,2.1-0.1,2.1-1.1l0.1-4.3c0.1-2.3,0.1-3.8,0.1-5l-0.1-8.2c0-1.1,0-1.1-0.8-1.1c-1.1-0.1-1.2-0.1-2.6-0.1
		v-1.7c2.1-0.1,4.9,0,5.5,0h3.2c0.6,0,1.1,0,1.9-0.1L1404,845.3z"/>
	<path class="st6" d="M1418.4,843.6c10.2,0,14.6,5.4,14.6,11.7c0,7.9-6.3,11.6-13.7,11.6h-11.2l0.1-1.7l3.7-0.3v-18.5
		c0-0.4-0.3-0.5-0.9-0.6l-2.7-0.3v-1.8C1411.7,843.8,1414.7,843.6,1418.4,843.6z M1415.6,865.1c1.4,0.1,2.3,0.2,2.9,0.2
		c6.8,0,10.3-4.3,10.3-9.7c0-7.4-5.3-10.1-11-10.1c-0.7,0-1.8,0.1-2.2,0.1V865.1z"/>
	<path class="st6" d="M1448.5,845.3l-1.8,0.1c-1.6,0.1-1.6,0.1-1.6,2.2l0.1,14.5c0,0.3-0.1,2.2-0.1,2.7c0.1,0.5,1.1,0.5,2,0.5h1.3
		v1.7h-10.5l0.1-1.7h1.3c1.8,0,2.1-0.1,2.1-1.1l0.1-4.3c0.1-2.3,0.1-3.8,0.1-5l-0.1-8.2c0-1.1,0-1.1-0.8-1.1
		c-1.1-0.1-1.2-0.1-2.6-0.1v-1.7c2.1-0.1,4.9,0,5.5,0h3.2c0.6,0,1.1,0,1.9-0.1L1448.5,845.3z"/>
	<path class="st6" d="M1465.5,843.7c2.2,0,5.2,0,7.8-0.1l0.1,6.2c-1.5,0.1-1.6,0-2.2-1.6c-0.4-1.2-0.9-2.2-1.4-2.4
		c-0.5-0.3-2.3-0.3-3.5-0.3h-1.4l-0.1,19.6l3.8,0.2v1.7h-11.1l-0.1-1.6l3.7-0.2l0.1-19.6c-0.8-0.1-1.3-0.1-2.3-0.1
		c-3.2,0-3.7,0.6-4.4,2.8c-0.4,1.4-0.5,1.6-1.2,1.6l-0.8-0.1v-6C1460.4,843.7,1464.1,843.7,1465.5,843.7z"/>
	<path class="st6" d="M1486,843.2l7.3,20.3c0.6,1.7,0.8,1.7,2.8,1.8l1.3,0.1l0.1,1.6h-10.8v-1.6l2.8-0.1c0.2,0,0.3-0.2,0.3-0.4
		c0-0.3-0.2-0.9-0.3-1.2l-1.2-3.1l-7.8,0.1l-1.6,4l0.2,0.4l1.3,0.1c0.9,0.1,1.1,0.1,2.1,0.2v1.6h-9.5v-1.6l3-0.1
		c0.6-0.1,1-0.2,1.6-1.9l6.9-20.2H1486z M1485.6,852.9c-0.7-2.1-0.8-2.3-1.3-3.4l-3,9.3h6.4L1485.6,852.9z"/>
	<path class="st6" d="M1513.2,850c-1.4-2.9-2.5-5.3-5.8-5.3c-2.5,0-4,1.6-4,3.1c0,2.2,2.2,3.3,5.4,4.9c3.7,1.8,7.7,3.8,7.7,8.1
		c0,3.4-3.5,6.4-8,6.4c-2.2,0-4.3-0.6-6.2-1.6c-1,0.1-1.3,0.1-2.4-0.1c-0.2-1.3-0.6-3.9-0.4-6.4l1.6,0.1c0.6,1.9,0.9,2.9,1.9,4.1
		c1.9,2.4,4.2,2.5,5,2.5c2.7,0,4.8-1.8,4.8-4.2c0-2.5-2.2-3.6-7-6c-1.4-0.7-5.6-2.8-5.6-6.8c0-3.3,3.2-5.7,7.8-5.7
		c2.2,0,3.1,0.4,6.1,1.7c0.4,1.4,0.4,1.9,0.4,5L1513.2,850z"/>
</g>
<rect x="1312.4" y="825.6" class="st5" width="93" height="2"/>
<path class="st4" d="M-550.2,2953.7L-550.2,2953.7c-2.1-2.1-4.1-4.2-6.2-6.3L-550.2,2953.7z"/>
<g>
	<g>
		<path class="st9" d="M885.5,422.5v2l-3.2,0.1c-0.7,0-1,0.1-1,0.4c0,0.6,0.5,1.9,1.8,5.1l5.3,13.4c1.2-3,2.2-5.6,2.6-6.8l2.6-7
			c0.2-0.6,1.2-3,1.3-3.5c0.2-0.8,0.3-0.9,0.3-1c0-0.7-0.7-0.7-1.5-0.7h-3.1l-0.1-2h11.1v2h-1.6c-1.8,0-2.2,0.3-2.7,1.7l-9.3,24.2
			h-1.5l-9.7-24.7c-0.5-1.1-0.5-1.1-1.9-1.2l-2.2-0.1l-0.1-2H885.5z"/>
		<path class="st9" d="M922.9,422.7c1.8,0,2.4,0.1,3.4,0.3l0.3,6.5h-1.8c-0.3-1.1-0.8-4-1.4-4.5c-0.3-0.3-2.8-0.3-3.4-0.3l-7-0.1
			c-1,0-1.1,0.1-1.1,1.1v10.1h1.1c4.2,0,4.7-0.1,5.4-0.5c0.7-0.4,0.8-0.7,1.4-3.9l1.9-0.1c0.1,1.8,0.1,2.1,0.1,10.4h-1.9
			c-0.4-3.5-1-3.9-2.6-3.9l-2.9,0.1c-1.1,0-1.6,0.1-2.6,0.1l0.2,10.2l8.6-0.1c2.3-0.1,4-0.2,4.7-3.3l0.4-1.7l2,0.1l-0.5,7.2
			c-1.8,0-10-0.1-11.6-0.1c-3.5,0-8.9,0.1-12.3,0.1v-2l3.1-0.1c1.1,0,1.1-0.1,1.1-3.3v-18c0-1.9-0.1-2.1-2.1-2.1H903l0.1-1.9
			L922.9,422.7z"/>
		<path class="st9" d="M961,447.9l-0.2,1.9c-0.3,0-1.6,0.3-1.8,0.3c-0.3,0-0.8,0.1-1.6,0.1c-5.5,0-6.5-2.8-6.9-6.2
			c-0.6-5-0.9-7.2-7.1-7.2h-2.2l0.1,10.8c1,0.2,1.4,0.3,4.2,0.4l-0.1,2l-13.3,0.1V448l4.5-0.3l0.1-18l-0.2-4.8
			c-1.8-0.3-2.5-0.3-4.5-0.4l0.1-1.9c4.4-0.1,9.2-0.1,12.8-0.1c5.9,0,10.6,1.7,10.6,7.3c0,4.1-3,5.4-6.4,6.4c4.5,1.5,4.9,3,5.9,7.6
			c0.4,1.6,1.1,4.3,4.3,4.2L961,447.9z M945.7,435c3.6,0,5.3-1.8,5.3-5.2c0-3-1.5-5.3-6.7-5.3c-1.6,0-2.2,0.1-3,0.3l-0.1,1.4
			c-0.1,0.4-0.1,2.2-0.1,3.3v5.4L945.7,435z"/>
		<path class="st9" d="M977,424.6l-2.2,0.1c-1.8,0.1-1.8,0.1-1.8,2.6l0.1,17.1c0,0.3-0.1,2.6-0.1,3.2c0.1,0.6,1.2,0.6,2.4,0.6h1.6v2
			h-12.5l0.1-2h1.5c2.2,0,2.4-0.1,2.4-1.2l0.1-5.1c0.1-2.8,0.1-4.5,0.1-6l-0.1-9.7c0-1.2,0-1.2-1-1.3c-1.3-0.1-1.4-0.1-3.1-0.1v-2
			c2.5-0.1,5.8,0,6.5,0h3.7c0.7,0,1.3,0,2.3-0.1L977,424.6z"/>
		<path class="st9" d="M994,422.5c12.1,0,17.3,6.4,17.3,13.9c0,9.3-7.4,13.8-16.3,13.8h-13.3l0.1-2l4.3-0.4v-21.9
			c0-0.5-0.4-0.6-1.1-0.7l-3.2-0.3v-2.1C986,422.7,989.6,422.5,994,422.5z M990.8,447.9c1.7,0.1,2.7,0.2,3.5,0.2
			c8.1,0,12.1-5.1,12.1-11.5c0-8.7-6.2-12-13.1-12c-0.9,0-2.1,0.1-2.6,0.1V447.9z"/>
		<path class="st9" d="M1029.6,424.6l-2.2,0.1c-1.8,0.1-1.8,0.1-1.8,2.6l0.1,17.1c0,0.3-0.1,2.6-0.1,3.2c0.1,0.6,1.2,0.6,2.4,0.6
			h1.6v2h-12.5l0.1-2h1.5c2.2,0,2.4-0.1,2.4-1.2l0.1-5.1c0.1-2.8,0.1-4.5,0.1-6l-0.1-9.7c0-1.2,0-1.2-1-1.3
			c-1.3-0.1-1.4-0.1-3.1-0.1v-2c2.5-0.1,5.8,0,6.5,0h3.7c0.7,0,1.3,0,2.3-0.1L1029.6,424.6z"/>
		<path class="st9" d="M1049.8,422.7c2.6,0,6.1,0,9.3-0.1l0.1,7.3c-1.8,0.1-1.9,0-2.6-1.9c-0.5-1.4-1.1-2.6-1.7-2.9
			c-0.6-0.3-2.7-0.3-4.1-0.3h-1.7l-0.1,23.2l4.5,0.2v2h-13.2l-0.1-1.9l4.3-0.2l0.1-23.2c-0.9-0.1-1.6-0.1-2.7-0.1
			c-3.7,0-4.4,0.7-5.3,3.3c-0.5,1.6-0.6,1.9-1.4,1.8l-0.9-0.1v-7.2C1043.8,422.6,1048.2,422.7,1049.8,422.7z"/>
		<path class="st9" d="M1074.2,422l8.7,24c0.7,2,0.9,2,3.3,2.2l1.6,0.1l0.1,1.9h-12.8v-1.9l3.3-0.1c0.2,0,0.4-0.2,0.4-0.5
			c0-0.4-0.3-1.1-0.4-1.4l-1.4-3.7l-9.3,0.1l-1.8,4.7l0.2,0.5l1.6,0.1c1.1,0.1,1.2,0.1,2.4,0.3v1.9h-11.3v-1.9l3.6-0.1
			c0.7-0.1,1.2-0.3,1.8-2.2l8.2-23.9H1074.2z M1073.7,433.5c-0.9-2.4-1-2.7-1.5-4.1l-3.6,11h7.6L1073.7,433.5z"/>
		<path class="st9" d="M1107.3,430.1c-1.7-3.5-3-6.2-6.9-6.2c-3,0-4.7,1.8-4.7,3.7c0,2.6,2.6,3.9,6.4,5.8c4.3,2.2,9.1,4.5,9.1,9.7
			c0,4-4.1,7.6-9.5,7.6c-2.6,0-5.1-0.7-7.3-1.9c-1.2,0.1-1.6,0.1-2.8-0.1c-0.3-1.5-0.7-4.6-0.5-7.6l1.9,0.1c0.7,2.3,1.1,3.5,2.2,4.9
			c2.3,2.8,4.9,3,6,3c3.2,0,5.6-2.1,5.6-4.9c0-3-2.6-4.3-8.3-7.2c-1.7-0.9-6.6-3.3-6.6-8.1c0-3.9,3.7-6.8,9.2-6.8
			c2.6,0,3.7,0.5,7.2,2c0.5,1.6,0.5,2.3,0.5,6L1107.3,430.1z"/>
		<path class="st10" d="M1123.2,423.5h3.9v11.7h12.6v-11.7h3.9v26.8h-3.9v-12h-12.6v12h-3.9V423.5z"/>
		<path class="st10" d="M1150.3,423.5h15.4v3h-11.5v8.4h8.4v3h-8.4v9.2h12.8v3.1h-16.7V423.5z"/>
		<path class="st10" d="M1178.7,423.5h3.8l10,26.8h-4.2l-2.3-6.8H1175l-2.4,6.8h-4.1L1178.7,423.5z M1185,440.6l-3.6-10.4l-0.8-2.4
			l-0.8,2.4l-3.8,10.4H1185z"/>
		<path class="st10" d="M1196.1,423.5h4v23.7h10.6v3.1h-14.6V423.5z"/>
		<path class="st10" d="M1219.5,426.5h-8.3v-3h20.7v3h-8.4v23.7h-4V426.5z"/>
		<path class="st10" d="M1236.2,423.5h3.9v11.7h12.6v-11.7h3.9v26.8h-3.9v-12h-12.6v12h-3.9V423.5z"/>
		<path class="st10" d="M1280.4,428c-1.6-0.9-3.7-1.4-6.2-1.4c-2.7,0-4.8,0.9-6.4,2.7s-2.4,4.3-2.4,7.4c0,3.1,0.8,5.6,2.3,7.5
			c1.6,1.9,3.7,2.9,6.4,2.9c2.1,0,3.9-0.3,5.5-1c0.5-0.2,0.8-0.4,1-0.6l0,3.3c-1.7,0.7-3.1,1.1-4,1.2s-1.9,0.2-2.7,0.2
			c-3.8,0-6.8-1.2-9.1-3.7c-2.3-2.4-3.4-5.6-3.4-9.6c0-4.2,1.2-7.5,3.7-10c1.1-1.1,2.5-2,3.9-2.6s2.9-0.9,4.2-0.9s2.4,0,3.1,0.1
			s1.4,0.2,2,0.3s1,0.2,1.4,0.3s0.7,0.2,0.9,0.3L1280.4,428z"/>
		<path class="st10" d="M1293.4,423.5h3.8l10,26.8h-4.2l-2.3-6.8h-10.9l-2.4,6.8h-4.1L1293.4,423.5z M1299.6,440.6l-3.6-10.4
			l-0.8-2.4l-0.8,2.4l-3.8,10.4H1299.6z"/>
		<path class="st10" d="M1310.7,423.5h1.7c0.9,0,1.9,0,3.1,0s2.4,0,3.8,0s2.6,0.1,3.7,0.4c1.1,0.3,2.1,0.7,2.9,1.3
			c1.7,1.3,2.5,3.1,2.5,5.7c0,1.9-0.4,3.5-1.3,4.7c-0.9,1.2-2,2.1-3.5,2.6c1,0.7,2,2.2,3.1,4.5c0.3,0.6,0.6,1.3,0.9,1.9
			c0.9,2.2,1.9,4.1,2.8,5.7h-4.4c-0.2-0.2-0.3-0.5-0.5-0.9c-0.2-0.4-0.4-0.8-0.5-1.2c-0.2-0.4-0.4-0.9-0.6-1.5s-0.5-1.3-0.7-1.9
			s-0.5-1.3-0.8-1.9s-0.6-1.2-0.9-1.7c-0.7-1.2-1.5-1.9-2.4-2.2c-0.5,0-1.2,0-1.9,0h-2.8v11.4h-3.9V423.5z M1318.2,426.1
			c-1.4,0-2.5,0.1-3.6,0.3v9.7c0.6,0.1,1.3,0.1,2.3,0.1h1.8c3.7,0,5.6-1.8,5.6-5.3c0-1.7-0.4-2.9-1.3-3.7
			C1322.2,426.5,1320.5,426.1,1318.2,426.1z"/>
		<path class="st10" d="M1334.6,423.5h15.4v3h-11.5v8.4h8.4v3h-8.4v9.2h12.8v3.1h-16.7V423.5z"/>
	</g>
</g>
<rect x="870.2" y="402.8" class="st2" width="112" height="4.2"/>
<g>
	<g>
		<path class="st9" d="M1530.3,418.1v2l-3.2,0.1c-0.7,0-1,0.1-1,0.4c0,0.6,0.5,1.9,1.8,5.1l5.3,13.4c1.2-3,2.2-5.6,2.6-6.8l2.6-7
			c0.2-0.6,1.2-3,1.3-3.5c0.2-0.8,0.3-0.9,0.3-1c0-0.7-0.7-0.7-1.5-0.7h-3.1l-0.1-2h11.1v2h-1.6c-1.8,0-2.2,0.3-2.7,1.7l-9.3,24.2
			h-1.5l-9.7-24.7c-0.5-1.1-0.5-1.1-1.9-1.2l-2.2-0.1l-0.1-2H1530.3z"/>
		<path class="st9" d="M1567.7,418.3c1.8,0,2.4,0.1,3.4,0.3l0.3,6.5h-1.8c-0.3-1.1-0.8-4-1.4-4.5c-0.3-0.3-2.8-0.3-3.4-0.3l-7-0.1
			c-1,0-1.1,0.1-1.1,1.1v10.1h1.1c4.2,0,4.7-0.1,5.4-0.5c0.7-0.4,0.8-0.7,1.4-3.9l1.9-0.1c0.1,1.8,0.1,2.1,0.1,10.4h-1.9
			c-0.4-3.5-1-3.9-2.6-3.9l-2.9,0.1c-1.1,0-1.6,0.1-2.6,0.1l0.2,10.2l8.6-0.1c2.3-0.1,4-0.2,4.7-3.3l0.4-1.7l2,0.1l-0.5,7.2
			c-1.8,0-10-0.1-11.6-0.1c-3.5,0-8.9,0.1-12.3,0.1v-2l3.1-0.1c1.1,0,1.1-0.1,1.1-3.3v-18c0-1.9-0.1-2.1-2.1-2.1h-2.4l0.1-1.9
			L1567.7,418.3z"/>
		<path class="st9" d="M1605.7,443.5l-0.2,1.9c-0.3,0-1.6,0.3-1.8,0.3c-0.3,0-0.8,0.1-1.6,0.1c-5.5,0-6.5-2.8-6.9-6.2
			c-0.6-5-0.9-7.2-7.1-7.2h-2.2l0.1,10.8c1,0.2,1.4,0.3,4.2,0.4l-0.1,2l-13.3,0.1v-2.1l4.5-0.3l0.1-18l-0.2-4.8
			c-1.8-0.3-2.5-0.3-4.5-0.4l0.1-1.9c4.4-0.1,9.2-0.1,12.8-0.1c5.9,0,10.6,1.7,10.6,7.3c0,4.1-3,5.4-6.4,6.4c4.5,1.5,4.9,3,5.9,7.6
			c0.4,1.6,1.1,4.3,4.3,4.2L1605.7,443.5z M1590.5,430.6c3.6,0,5.3-1.8,5.3-5.2c0-3-1.5-5.3-6.7-5.3c-1.6,0-2.2,0.1-3,0.3l-0.1,1.4
			c-0.1,0.4-0.1,2.2-0.1,3.3v5.4L1590.5,430.6z"/>
		<path class="st9" d="M1621.7,420.1l-2.2,0.1c-1.8,0.1-1.8,0.1-1.8,2.6l0.1,17.1c0,0.3-0.1,2.6-0.1,3.2c0.1,0.6,1.2,0.6,2.4,0.6
			h1.6v2h-12.5l0.1-2h1.5c2.2,0,2.4-0.1,2.4-1.2l0.1-5.1c0.1-2.8,0.1-4.5,0.1-6l-0.1-9.7c0-1.2,0-1.2-1-1.3
			c-1.3-0.1-1.4-0.1-3.1-0.1v-2c2.5-0.1,5.8,0,6.5,0h3.7c0.7,0,1.3,0,2.3-0.1L1621.7,420.1z"/>
		<path class="st9" d="M1638.8,418.1c12.1,0,17.3,6.4,17.3,13.9c0,9.3-7.4,13.8-16.3,13.8h-13.3l0.1-2l4.3-0.4v-21.9
			c0-0.5-0.4-0.6-1.1-0.7l-3.2-0.3v-2.1C1630.8,418.3,1634.4,418.1,1638.8,418.1z M1635.5,443.5c1.7,0.1,2.7,0.2,3.5,0.2
			c8.1,0,12.1-5.1,12.1-11.5c0-8.7-6.2-12-13.1-12c-0.9,0-2.1,0.1-2.6,0.1V443.5z"/>
		<path class="st9" d="M1674.4,420.1l-2.2,0.1c-1.8,0.1-1.8,0.1-1.8,2.6l0.1,17.1c0,0.3-0.1,2.6-0.1,3.2c0.1,0.6,1.2,0.6,2.4,0.6
			h1.6v2h-12.5l0.1-2h1.5c2.2,0,2.4-0.1,2.4-1.2l0.1-5.1c0.1-2.8,0.1-4.5,0.1-6l-0.1-9.7c0-1.2,0-1.2-1-1.3
			c-1.3-0.1-1.4-0.1-3.1-0.1v-2c2.5-0.1,5.8,0,6.5,0h3.7c0.7,0,1.3,0,2.3-0.1L1674.4,420.1z"/>
		<path class="st9" d="M1694.6,418.2c2.6,0,6.1,0,9.3-0.1l0.1,7.3c-1.8,0.1-1.9,0-2.6-1.9c-0.5-1.4-1.1-2.6-1.7-2.9
			c-0.6-0.3-2.7-0.3-4.1-0.3h-1.7l-0.1,23.2l4.5,0.2v2H1685l-0.1-1.9l4.3-0.2l0.1-23.2c-0.9-0.1-1.6-0.1-2.7-0.1
			c-3.7,0-4.4,0.7-5.3,3.3c-0.5,1.6-0.6,1.9-1.4,1.8l-0.9-0.1v-7.2C1688.6,418.2,1692.9,418.2,1694.6,418.2z"/>
		<path class="st9" d="M1718.9,417.6l8.7,24c0.7,2,0.9,2,3.3,2.2l1.6,0.1l0.1,1.9h-12.8v-1.9l3.3-0.1c0.2,0,0.4-0.2,0.4-0.5
			c0-0.4-0.3-1.1-0.4-1.4l-1.4-3.7l-9.3,0.1l-1.8,4.7l0.2,0.5l1.6,0.1c1.1,0.1,1.2,0.1,2.4,0.3v1.9h-11.3v-1.9l3.6-0.1
			c0.7-0.1,1.2-0.3,1.8-2.2l8.2-23.9H1718.9z M1718.5,429.1c-0.9-2.4-1-2.7-1.5-4.1l-3.6,11h7.6L1718.5,429.1z"/>
		<path class="st9" d="M1752,425.7c-1.7-3.5-3-6.2-6.9-6.2c-3,0-4.7,1.8-4.7,3.7c0,2.6,2.6,3.9,6.4,5.8c4.3,2.2,9.1,4.5,9.1,9.7
			c0,4-4.1,7.6-9.5,7.6c-2.6,0-5.1-0.7-7.3-1.9c-1.2,0.1-1.6,0.1-2.8-0.1c-0.3-1.5-0.7-4.6-0.5-7.6l1.9,0.1c0.7,2.3,1.1,3.5,2.2,4.9
			c2.3,2.8,4.9,3,6,3c3.2,0,5.6-2.1,5.6-4.9c0-3-2.6-4.3-8.3-7.2c-1.7-0.9-6.6-3.3-6.6-8.1c0-3.9,3.7-6.8,9.2-6.8
			c2.6,0,3.7,0.5,7.2,2c0.5,1.6,0.5,2.3,0.5,6L1752,425.7z"/>
	</g>
</g>
<rect x="1515" y="398.3" class="st2" width="112" height="4.2"/>
<g>
	<path class="st10" d="M1531.4,458.7h3.3v9.8h10.5v-9.8h3.3V481h-3.3v-10h-10.5v10h-3.3V458.7z"/>
	<path class="st10" d="M1557.6,458.7h12.8v2.5h-9.6v7h7v2.5h-7v7.7h10.6v2.6h-13.9V458.7z"/>
	<path class="st10" d="M1585,458.7h3.1l8.3,22.3h-3.5l-1.9-5.6h-9.1l-2,5.6h-3.5L1585,458.7z M1590.2,473l-3-8.6l-0.6-2l-0.6,2
		l-3.2,8.6H1590.2z"/>
	<path class="st10" d="M1603.1,458.7h3.3v19.7h8.8v2.6h-12.2V458.7z"/>
	<path class="st10" d="M1627.5,461.3h-7v-2.5h17.2v2.5h-7V481h-3.3V461.3z"/>
	<path class="st10" d="M1645,458.7h3.3v9.8h10.5v-9.8h3.3V481h-3.3v-10h-10.5v10h-3.3V458.7z"/>
	<path class="st10" d="M1685.5,462.5c-1.3-0.8-3-1.2-5.2-1.2c-2.2,0-4,0.8-5.3,2.3s-2,3.6-2,6.1c0,2.6,0.6,4.7,1.9,6.3
		c1.3,1.6,3.1,2.4,5.3,2.4c1.7,0,3.3-0.3,4.6-0.8c0.4-0.2,0.7-0.3,0.9-0.5l0,2.7c-1.4,0.6-2.6,0.9-3.4,1s-1.6,0.2-2.3,0.2
		c-3.1,0-5.7-1-7.6-3c-1.9-2-2.8-4.7-2.8-8c0-3.5,1-6.3,3.1-8.3c0.9-1,2-1.7,3.3-2.2c1.2-0.5,2.4-0.7,3.5-0.7c1.1,0,2,0,2.6,0.1
		s1.2,0.1,1.7,0.2s0.9,0.2,1.2,0.3s0.6,0.2,0.8,0.2L1685.5,462.5z"/>
	<path class="st10" d="M1700,458.7h3.1l8.3,22.3h-3.5l-1.9-5.6h-9.1l-2,5.6h-3.5L1700,458.7z M1705.2,473l-3-8.6l-0.6-2l-0.6,2
		l-3.2,8.6H1705.2z"/>
	<path class="st10" d="M1718.1,458.7h1.4c0.7,0,1.6,0,2.6,0s2,0,3.1,0s2.1,0.1,3.1,0.3c0.9,0.2,1.7,0.6,2.4,1.1
		c1.4,1,2.1,2.6,2.1,4.7c0,1.6-0.4,2.9-1.1,3.9c-0.7,1-1.7,1.7-3,2.1c0.8,0.6,1.7,1.8,2.6,3.8c0.3,0.5,0.5,1.1,0.7,1.6
		c0.8,1.8,1.6,3.4,2.3,4.7h-3.7c-0.1-0.2-0.3-0.5-0.4-0.8c-0.1-0.3-0.3-0.7-0.5-1c-0.2-0.3-0.3-0.8-0.5-1.3s-0.4-1.1-0.6-1.6
		s-0.4-1.1-0.7-1.6s-0.5-1-0.8-1.4c-0.6-1-1.3-1.6-2-1.8c-0.4,0-1,0-1.6,0h-2.3v9.5h-3.3V458.7z M1724.4,460.9c-1.1,0-2.1,0.1-3,0.3
		v8.1c0.5,0.1,1.1,0.1,1.9,0.1h1.5c3.1,0,4.6-1.5,4.6-4.4c0-1.4-0.4-2.4-1.1-3.1C1727.7,461.2,1726.3,460.9,1724.4,460.9z"/>
	<path class="st10" d="M1741.7,458.7h12.8v2.5h-9.6v7h7v2.5h-7v7.7h10.6v2.6h-13.9V458.7z"/>
</g>
<path class="st11" d="M259.6,505.6h105.8c43.5,0,79.1-35.6,79.1-79.1V322.5c0-43.5-35.6-79.1-79.1-79.1H259.6
	c-43.5,0-79.1,35.6-79.1,79.1v103.9C180.5,470,216.1,505.6,259.6,505.6z"/>
<line class="st11" x1="453.4" y1="101.5" x2="453.4" y2="531"/>
<line class="st11" x1="405.7" y1="101.5" x2="405.7" y2="531"/>
<line class="st11" x1="204" y1="188.1" x2="507.7" y2="491.8"/>
<line class="st11" x1="234.2" y1="157.9" x2="537.9" y2="461.6"/>
<line class="st11" x1="601.4" y1="164.4" x2="297.7" y2="468.1"/>
<line class="st11" x1="625.6" y1="188.6" x2="321.9" y2="492.3"/>
<path class="st11" d="M335.9,435.2l-9.9-9.9c-30.3-30.3-30.3-80,0-110.4l82.3-82.3c30.3-30.3,80-30.3,110.4,0l9.9,9.9
	c30.3,30.3,30.3,80,0,110.4l-82.3,82.3C415.9,465.5,366.2,465.5,335.9,435.2z"/>
<path class="st11" d="M516.2,291.2l-17.4-17.4c-1.8-1.8-1.8-4.8,0-6.6l24-24c1.8-1.8,4.8-1.8,6.6,0l17.4,17.4c1.8,1.8,1.8,4.8,0,6.6
	l-24,24C521,293,518,293,516.2,291.2z"/>
<g>
	<g>
		<line class="st2" x1="440.5" y1="934.6" x2="298.4" y2="934.6"/>
		<rect x="298.4" y="931.9" class="st3" width="142.1" height="5.4"/>
	</g>
</g>
<g>
	<path class="st0" d="M405.2,878.7c12.4,12.5,37.1,36.8,38.5,38.2c0-2-0.1-42.6-0.1-60.4l-38.4-38.3V878.7z"/>
	<path class="st1" d="M443.6,856.5c0-17.2,0-34.5,0-51.7c-0.2-11.1-3.7-21.3-8.7-31.1c-6.8-13.1-17.2-23.6-29.6-30.8v75.4
		C420,833,433.8,846.6,443.6,856.5z"/>
	<path class="st2" d="M364.1,732.4c-15,0-30-0.5-45.1-0.5l78.2,78.7c2.7,2.7,5.4,5.4,8,8v-75.4C392.9,736.1,378.6,732.2,364.1,732.4
		"/>
	<path class="st3" d="M397.2,810.2c-30-30-62.8-62.9-78.2-78.3c-16,0-56.1-0.1-60.1,0c0.8,0.8,125.9,126.2,146.4,146.9v-60.5
		L397.2,810.2z"/>
	<path class="st2" d="M529.7,732.1c-2.1-2.2-5.6-2.2-7.8-0.1c-0.7,0.7-1.3,1.4-2,2c-20.9,21-65.3,65.9-66.9,67.5c0,1,0,26.5,0,50.6
		c27.4-28,66.8-69.8,92.5-95.8C541.5,747,536.4,739,529.7,732.1z"/>
	<path class="st1" d="M453,849.6c0,30.1,0,65,0,66.1c1.4-1.4,3.3-2.8,4.6-4.1c24.8-24.8,49.5-49.6,74.3-74.4
		c7.7-8,12.4-17.7,15.8-28.2c5.4-17.1,4.2-36.3-2.2-52.7L453,849.6z"/>
</g>
<g>
	<path class="st0" d="M1636.1,369.1c9.4,9.4,28,27.8,29,28.8c0-1.5-0.1-32.1-0.1-45.5l-28.9-28.9V369.1z"/>
	<path class="st1" d="M1665,353.2c0-13,0-26,0-39c-0.1-8.4-2.8-16.1-6.6-23.5c-5.1-9.9-13-17.8-22.4-23.3v56.1
		C1647.2,334.7,1657.6,345.7,1665,353.2z"/>
	<path class="st2" d="M1605,258.8c-11.3,0-22.7-0.4-34-0.4l59,59.4c2,2,4.1,4.1,6.1,6.1V267C1626.8,261.6,1616,258.7,1605,258.8"/>
	<path class="st3" d="M1630,317.5c-22.6-22.6-47.4-47.4-59-59.1c-12,0-42.3-0.1-45.4,0c0.6,0.6,94.9,95.2,110.4,110.7v-45.6
		L1630,317.5z"/>
	<path class="st2" d="M1729.9,258.6c-1.6-1.6-4.3-1.6-5.9,0c-0.5,0.5-1,1-1.5,1.5c-15.8,15.8-49.3,49.7-50.5,50.9c0,0.7,0,20,0,38.1
		c20.6-21.1,50.4-52.6,69.7-72.3C1738.8,269.8,1735,263.8,1729.9,258.6z"/>
	<path class="st1" d="M1672.1,347.2c0,22.7,0,49,0,49.9c1.1-1.1,2.5-2.1,3.5-3.1c18.7-18.7,37.3-37.4,56-56.1
		c5.8-6.1,9.4-13.4,11.9-21.3c4.1-12.9,3.2-27.4-1.7-39.8L1672.1,347.2z"/>
</g>
<g>
	<path class="st0" d="M994,375c8.7,8.8,26,25.8,27,26.8c0-1.4-0.1-29.8-0.1-42.3L994,332.6V375z"/>
	<path class="st1" d="M1020.9,360.1c0-12.1,0-24.2,0-36.3c-0.1-7.8-2.6-15-6.1-21.8c-4.7-9.2-12.1-16.6-20.8-21.6v52.1
		C1004.4,342.9,1014,353.2,1020.9,360.1z"/>
	<path class="st2" d="M965.1,272.4c-10.5,0-21.1-0.3-31.6-0.4l54.8,55.2c1.9,1.9,3.8,3.8,5.6,5.6V280
		C985.4,275,975.3,272.3,965.1,272.4"/>
	<path class="st3" d="M988.4,326.9c-21-21.1-44.1-44.1-54.9-54.9c-11.2,0-39.3-0.1-42.2,0c0.6,0.6,88.3,88.5,102.7,103v-42.4
		L988.4,326.9z"/>
	<path class="st2" d="M1081.3,272.2c-1.5-1.5-4-1.5-5.5,0c-0.5,0.5-0.9,1-1.4,1.4c-14.7,14.7-45.8,46.2-46.9,47.3
		c0,0.7,0,18.6,0,35.5c19.2-19.6,46.9-48.9,64.8-67.2C1089.5,282.6,1086,277.1,1081.3,272.2z"/>
	<path class="st1" d="M1027.5,354.6c0,21.1,0,45.6,0,46.4c1-1,2.3-1.9,3.3-2.9c17.4-17.4,34.7-34.8,52.1-52.2
		c5.4-5.6,8.7-12.4,11.1-19.8c3.8-12,3-25.5-1.6-37L1027.5,354.6z"/>
</g>
</svg>
