<?xml version="1.0" encoding="utf-8"?>
<!-- Generator: Adobe Illustrator 22.0.1, SVG Export Plug-In . SVG Version: 6.00 Build 0)  -->
<svg version="1.1" id="Layer_1" xmlns="http://www.w3.org/2000/svg" xmlns:xlink="http://www.w3.org/1999/xlink" x="0px" y="0px"
	 viewBox="0 0 2244.1 1346" style="enable-background:new 0 0 2244.1 1346;" xml:space="preserve">
<style type="text/css">
	.st0{fill:#158C44;}
	.st1{fill:#165AC6;}
	.st2{fill:#FFFFFF;}
	.st3{font-family:'MyriadPro-Regular';}
	.st4{font-size:35px;}
	.st5{fill:#FDB7A9;}
	.st6{font-size:40px;}
	.st7{font-size:30px;}
	.st8{fill:none;stroke:#165AC6;stroke-width:4;stroke-miterlimit:10;}
	.st9{fill:none;stroke:#165AC6;stroke-width:2;stroke-miterlimit:10;}
	.st10{fill:none;stroke:#FDB7A9;stroke-width:3;stroke-miterlimit:10;}
	.st11{fill:none;stroke:#165AC6;stroke-width:3;stroke-miterlimit:10;}
	.st12{fill:none;stroke:#165AC6;stroke-width:2.995;stroke-miterlimit:10;}
	.st13{fill:none;stroke:#165AC6;stroke-width:2.8014;stroke-miterlimit:10;}
	.st14{fill:none;stroke:#165AC6;stroke-width:2.7557;stroke-miterlimit:10;}
	.st15{fill:none;stroke:#165AC6;stroke-width:2.7544;stroke-miterlimit:10;}
</style>
<path class="st0" d="M2343.8,899.4L2343.8,899.4c-1.7-2.1-3.5-4.2-5.3-6.3L2343.8,899.4z"/>
<path class="st0" d="M-550.2,2989.7L-550.2,2989.7c-2.1-2.1-4.1-4.2-6.2-6.3L-550.2,2989.7z"/>
<g>
	<rect x="201.4" y="269.8" class="st1" width="270" height="70.1"/>
	<text transform="matrix(1 0 0 1 287.6564 315.0862)" class="st2 st3 st4">HOME</text>
</g>
<rect x="826.9" y="905.9" class="st5" width="270" height="70"/>
<text transform="matrix(1 0 0 1 923.6561 953.1234)" class="st2 st3 st6">blog</text>
<rect x="1243" y="905.9" class="st5" width="290" height="70"/>
<text transform="matrix(1 0 0 1 1275.1788 953.1234)" class="st2 st3 st6">fullscript.com</text>
<rect x="614.4" y="269.8" class="st1" width="300" height="70"/>
<text transform="matrix(1 0 0 1 663.1583 315.0862)" class="st2 st3 st4">MEMBERSHIP</text>
<rect x="1005.8" y="270.3" class="st1" width="373.3" height="68.9"/>
<text transform="matrix(1 0 0 1 1030.3582 315.0862)" class="st2 st3 st4">APPOINTMENT FROM</text>
<rect x="1510.5" y="269.8" class="st1" width="219.9" height="70"/>
<text transform="matrix(1 0 0 1 1555.8783 315.0862)" class="st2 st3 st4">DR. ANN</text>
<text transform="matrix(1 0 0 1 407.7528 412.3238)" class="st1 st3 st4">About</text>
<text transform="matrix(1 0 0 1 407.7528 523.8206)" class="st1 st3 st4">core Values</text>
<text transform="matrix(1 0 0 1 407.7528 632.3175)" class="st1 st3 st4">About Dr. Ann</text>
<text transform="matrix(1 0 0 1 407.7528 742.8143)" class="st1 st3 st4">Programs</text>
<text transform="matrix(1 0 0 1 407.7528 849.3525)" class="st1 st3 st4">Contact</text>
<text transform="matrix(1 0 0 1 444.7528 965.3525)" class="st1 st3 st7">Blog</text>
<text transform="matrix(1 0 0 1 444.7528 1040.3524)" class="st1 st3 st7">Order</text>
<line class="st8" x1="334.9" y1="337.8" x2="334.9" y2="841.5"/>
<line class="st8" x1="334.9" y1="401.8" x2="391.9" y2="401.8"/>
<line class="st8" x1="334.9" y1="511.2" x2="391.9" y2="511.2"/>
<line class="st8" x1="334.9" y1="620.6" x2="391.9" y2="620.6"/>
<line class="st8" x1="334.9" y1="730" x2="391.9" y2="730"/>
<line class="st8" x1="334.9" y1="839.9" x2="391.9" y2="839.4"/>
<polyline class="st8" points="379.9,989.9 277.9,989.9 277.9,784.9 334.9,784.9 "/>
<polyline class="st9" points="434.9,955.9 379.9,955.9 379.9,1030.9 434.9,1030.9 "/>
<g>
	<g>
		<path class="st10" d="M491.2,937.1c50.4-67.3,137.6-111.8,236.7-111.8c71.1,0,136.1,22.9,185.8,60.7"/>
		<g>
			<polygon class="st5" points="900,889.6 910.7,883.8 913.9,872.2 927.5,897.4 			"/>
		</g>
	</g>
</g>
<g>
	<g>
		<path class="st10" d="M1387,1004.1c-89,142.7-265.8,239.9-469.4,239.9c-175.4,0-331-72.2-427.6-183.4"/>
		<g>
			<polygon class="st5" points="1373.1,1005.5 1385,1007.2 1392.1,1016.9 1396.2,988.7 			"/>
		</g>
	</g>
</g>
<g>
	<g>
		<path class="st11" d="M740.7,397.7c-3.9,147.4-56.5,258.6-177.1,323.5"/>
		<g>
			<polygon class="st1" points="729.3,405.9 740.5,401.4 751.5,406.4 741,379.8 			"/>
		</g>
	</g>
</g>
<g>
	<g>
		<path class="st12" d="M1590.5,375.8c-75.9,217-293.9,374.1-572.2,374.1c-149,0-285.7-45.3-392.3-120.7"/>
		<g>
			<polygon class="st1" points="1577.2,380.2 1589.2,379.3 1598.2,387.3 1596.1,358.8 			"/>
		</g>
	</g>
</g>
<text transform="matrix(1 0 0 1 1757.3988 519.8124)" class="st1 st3 st7">see membership benefits</text>
<text transform="matrix(1 0 0 1 1757.3988 594.8124)" class="st1 st3 st7">make an appointment</text>
<polyline class="st8" points="1692.6,544.3 1622.6,544.3 1622.6,339.3 "/>
<polyline class="st9" points="1747.6,510.3 1692.6,510.3 1692.6,585.3 1747.6,585.3 "/>
<text transform="matrix(1 0 0 1 854.3115 554.8082)" class="st1 st3 st7">make an appointment</text>
<polyline class="st8" points="837.5,544.3 767.5,544.3 767.5,339.3 "/>
<g>
	<g>
		<path class="st13" d="M1255.8,375c-22.4,67.9-61.5,126.4-111.5,168.9"/>
		<g>
			<polygon class="st1" points="1243.5,379.4 1254.7,378.3 1263.3,385.6 1260.8,359 			"/>
		</g>
	</g>
</g>
<g>
	<g>
		<path class="st14" d="M1889.8,619.8c-80.2,74.7-186.4,120.1-302.9,120.1c-212,0-390-150.5-439.3-353.8"/>
		<g>
			<polygon class="st1" points="1159.3,391.3 1148.4,389.4 1139.4,395.9 1144,370 			"/>
		</g>
	</g>
</g>
<g>
	<g>
		<path class="st15" d="M811,257.5C936.9,154.7,1098.2,93,1274.2,93c269,0,504,144.2,630.1,358.7"/>
		<g>
			<polygon class="st1" points="1891.5,450.2 1902.5,448.9 1909.2,440 1912.5,466.1 			"/>
		</g>
	</g>
</g>
</svg>
