<?xml version="1.0" encoding="utf-8"?>
<!-- Generator: Adobe Illustrator 22.0.1, SVG Export Plug-In . SVG Version: 6.00 Build 0)  -->
<svg version="1.1" id="Layer_1" xmlns="http://www.w3.org/2000/svg" xmlns:xlink="http://www.w3.org/1999/xlink" x="0px" y="0px"
	 viewBox="0 0 1303.4 768" style="enable-background:new 0 0 1303.4 768;" xml:space="preserve">
<style type="text/css">
	.st0{fill:url(#SVGID_1_);}
	.st1{fill:#237EEE;}
	.st2{fill:#774BAF;}
	.st3{fill:#F4AD0F;}
	.st4{fill:#FFCC33;}
	.st5{fill:url(#SVGID_2_);}
	.st6{fill:#A081C7;}
	.st7{fill:#AD93CF;}
	.st8{fill:#E4DBEF;}
	.st9{fill:#C9B7DF;}
	.st10{fill:url(#SVGID_3_);}
	.st11{fill:url(#SVGID_4_);}
	.st12{fill:url(#SVGID_5_);}
	.st13{fill:none;stroke:#FFCC33;stroke-width:0.7083;stroke-linecap:round;stroke-miterlimit:10;}
	.st14{fill:none;stroke:#774BAF;stroke-width:0.7083;stroke-linecap:round;stroke-miterlimit:10;}
	.st15{fill:#FFFFFF;}
	.st16{fill:#926FBF;}
	.st17{fill:#E2D8EE;}
	.st18{fill:url(#SVGID_6_);}
	.st19{fill:#BBA5D7;}
	.st20{fill:url(#SVGID_7_);}
	.st21{fill:none;stroke:#FFCC33;stroke-width:0.4737;stroke-linecap:round;stroke-miterlimit:10;}
	.st22{fill:#D6C9E7;}
	.st23{fill:none;stroke:#A081C7;stroke-width:0.3158;stroke-miterlimit:10;}
	.st24{fill:#D7CAE7;}
	.st25{fill:url(#SVGID_8_);}
	.st26{fill:url(#SVGID_9_);}
	.st27{fill:url(#SVGID_10_);}
	.st28{fill:none;stroke:#774BAF;stroke-width:0.4737;stroke-linecap:round;stroke-miterlimit:10;}
	.st29{fill:none;stroke:#AD93CF;stroke-width:0.3957;stroke-linecap:round;stroke-miterlimit:10;}
	.st30{fill:none;stroke:#FFCC33;stroke-width:0.3957;stroke-linecap:round;stroke-miterlimit:10;}
	.st31{fill:none;stroke:#A081C7;stroke-width:0.1979;stroke-miterlimit:10;}
	.st32{fill:none;stroke:#F4F1F9;stroke-width:0.5936;stroke-linecap:round;stroke-miterlimit:10;}
	.st33{fill:#F4F1F9;}
	.st34{fill:none;stroke:#A081C7;stroke-width:0.5936;stroke-linecap:round;stroke-miterlimit:10;}
	.st35{fill:none;stroke:#FFCC33;stroke-width:0.5936;stroke-linecap:round;stroke-miterlimit:10;}
	.st36{fill:none;stroke:#E4DBEF;stroke-width:0.5936;stroke-linecap:round;stroke-miterlimit:10;stroke-dasharray:1.5829;}
	.st37{fill:none;stroke:#774BAF;stroke-width:0.25;stroke-linecap:round;stroke-miterlimit:10;}
	.st38{fill:none;stroke:#D0CAD8;stroke-width:0.1904;stroke-linecap:round;stroke-miterlimit:10;}
	.st39{fill:none;stroke:#774BAF;stroke-width:0.1904;stroke-linecap:round;stroke-miterlimit:10;}
	.st40{fill:none;stroke:#774BAF;stroke-width:0.3809;stroke-linecap:round;stroke-miterlimit:10;}
	.st41{fill:none;stroke:#774BAF;stroke-width:0.3809;stroke-linecap:round;stroke-miterlimit:10;stroke-dasharray:1.5006,1.5006;}
	.st42{fill:none;stroke:#C9B7DF;stroke-width:0.5713;stroke-linecap:round;stroke-miterlimit:10;}
	.st43{fill:none;stroke:#FFCC33;stroke-width:0.5713;stroke-linecap:round;stroke-miterlimit:10;}
	.st44{fill:none;stroke:#774BAF;stroke-width:0.5713;stroke-miterlimit:10;}
	.st45{fill:none;stroke:#774BAF;stroke-width:0.5713;stroke-linecap:round;stroke-miterlimit:10;}
	.st46{fill:none;stroke:#A081C7;stroke-width:0.7617;stroke-linecap:round;stroke-miterlimit:10;}
	.st47{fill:#EBE4F3;}
	.st48{fill:#B49CD3;}
	.st49{fill:none;stroke:#926FBF;stroke-width:0.1904;stroke-linecap:round;stroke-miterlimit:10;}
	.st50{fill:none;stroke:#E4DBEF;stroke-width:0.5713;stroke-linecap:round;stroke-miterlimit:10;}
	.st51{fill:none;stroke:#E4DBEF;stroke-width:0.5713;stroke-linecap:round;stroke-miterlimit:10;stroke-dasharray:1.5996,1.5996;}
	.st52{fill:none;stroke:#E4DBEF;stroke-width:0.5713;stroke-linecap:round;stroke-miterlimit:10;stroke-dasharray:1.493,1.493;}
	.st53{fill:none;stroke:#E4DBEF;stroke-width:0.5713;stroke-linecap:round;stroke-miterlimit:10;stroke-dasharray:1.2188,1.2188;}
	.st54{fill:none;stroke:#774BAF;stroke-width:0.3009;stroke-linecap:round;stroke-miterlimit:10;}
	.st55{fill:none;stroke:#774BAF;stroke-width:0.3009;stroke-linecap:round;stroke-miterlimit:10;stroke-dasharray:2.5271,2.5271;}
	.st56{fill:none;stroke:#774BAF;stroke-width:0.6017;stroke-linecap:round;stroke-miterlimit:10;}
	.st57{fill:#D3E5FC;}
	.st58{fill:#5A9EF2;}
	.st59{fill:#BDD8FA;}
	.st60{fill:none;stroke:#237EEE;stroke-width:0.8992;stroke-linecap:round;stroke-miterlimit:10;}
	.st61{fill:#4F98F1;}
	.st62{fill:none;stroke:#A7CBF8;stroke-width:1.3487;stroke-linecap:round;stroke-miterlimit:10;}
	.st63{fill:none;stroke:#FFCC33;stroke-width:1.7983;stroke-linecap:round;stroke-miterlimit:10;}
	.st64{fill:#7BB2F5;}
	.st65{fill:none;stroke:#FFFFFF;stroke-width:1.7983;stroke-miterlimit:10;}
	.st66{fill:none;stroke:#237EEE;stroke-width:1.3487;stroke-linecap:round;stroke-miterlimit:10;}
	.st67{fill:#A7CBF8;}
	.st68{fill:none;stroke:#7BB2F5;stroke-width:0.8992;stroke-linecap:round;stroke-linejoin:round;}
	.st69{fill:#C8DFFB;}
	.st70{fill:#91BEF6;}
	.st71{clip-path:url(#SVGID_12_);}
	.st72{clip-path:url(#SVGID_14_);}
	.st73{clip-path:url(#SVGID_16_);}
	.st74{fill:none;stroke:#C8DFFB;stroke-width:0.8992;stroke-linecap:round;stroke-miterlimit:10;}
	.st75{fill:none;stroke:#C8DFFB;stroke-width:0.8992;stroke-linecap:round;stroke-miterlimit:10;stroke-dasharray:3.5247,3.5247;}
	.st76{fill:none;stroke:#C8DFFB;stroke-width:0.8992;stroke-linecap:round;stroke-miterlimit:10;stroke-dasharray:3.9023,3.9023;}
	.st77{fill:none;stroke:#FFFFFF;stroke-width:1.3487;stroke-linecap:round;stroke-miterlimit:10;}
	.st78{fill:#FFFFFF;stroke:#774BAF;stroke-width:2.0008;stroke-miterlimit:10;}
	.st79{fill:#F9F7FC;}
	.st80{fill:none;stroke:#AD93CF;stroke-width:0.7;stroke-miterlimit:10;}
	.st81{fill:none;stroke:#AD93CF;stroke-width:0.7;stroke-linecap:round;stroke-miterlimit:10;}
	.st82{fill:none;stroke:#774BAF;stroke-width:0.7;stroke-linecap:round;stroke-linejoin:round;}
	.st83{fill:none;stroke:#D6C9E7;stroke-width:0.25;stroke-linecap:round;stroke-miterlimit:10;}
	.st84{fill:none;stroke:#774BAF;stroke-width:0.5;stroke-linecap:round;stroke-miterlimit:10;}
	.st85{fill:none;stroke:#774BAF;stroke-width:0.25;stroke-linecap:round;stroke-miterlimit:10;stroke-dasharray:1.89,1.89;}
	.st86{fill:none;stroke:#D0CAD8;stroke-width:0.25;stroke-linecap:round;stroke-miterlimit:10;}
	.st87{fill:none;stroke:#A081C7;stroke-width:0.25;stroke-linecap:round;stroke-miterlimit:10;}
	.st88{fill:none;stroke:#774BAF;stroke-width:0.5;stroke-linecap:round;stroke-miterlimit:10;stroke-dasharray:2.08,2.08;}
	.st89{fill:none;stroke:#A081C7;stroke-width:0.5;stroke-linecap:round;stroke-miterlimit:10;}
	.st90{fill:none;stroke:#774BAF;stroke-width:0.5;stroke-linecap:round;stroke-miterlimit:10;stroke-dasharray:2.14,2.14;}
	.st91{fill:none;stroke:#774BAF;stroke-linecap:round;stroke-miterlimit:10;}
	.st92{fill:none;stroke:#774BAF;stroke-width:1.5;stroke-linecap:round;stroke-miterlimit:10;}
	.st93{font-family:'Roboto-Regular';}
	.st94{font-size:11.7px;}
	.st95{fill:#F7F4FA;}
	.st96{fill:none;stroke:#774BAF;stroke-width:0.5;stroke-linecap:round;stroke-miterlimit:10;stroke-dasharray:1.99,1.99;}
	.st97{fill:none;stroke:#774BAF;stroke-width:0.5;stroke-linecap:round;stroke-miterlimit:10;stroke-dasharray:1.84,1.84;}
	.st98{fill:none;stroke:#774BAF;stroke-width:0.2557;stroke-linecap:round;stroke-miterlimit:10;}
	.st99{fill:none;stroke:#774BAF;stroke-width:0.2557;stroke-linecap:round;stroke-miterlimit:10;stroke-dasharray:1.9027,1.9027;}
	.st100{fill:none;stroke:#926FBF;stroke-width:0.2557;stroke-linecap:round;stroke-miterlimit:10;}
	.st101{fill:none;stroke:#774BAF;stroke-width:0.5115;stroke-linecap:round;stroke-miterlimit:10;}
	.st102{fill:none;stroke:#D6C9E7;stroke-width:0.2557;stroke-linecap:round;stroke-miterlimit:10;}
</style>
<linearGradient id="SVGID_1_" gradientUnits="userSpaceOnUse" x1="326.5" y1="745.1188" x2="326.5" y2="229.0123">
	<stop  offset="9.323417e-02" style="stop-color:#A081C7"/>
	<stop  offset="1" style="stop-color:#FFFFFF"/>
</linearGradient>
<rect y="137.2" class="st0" width="653" height="440"/>
<rect x="652" class="st1" width="653" height="191.8"/>
<rect x="652" y="192.8" class="st2" width="653" height="191.8"/>
<rect x="652" y="385.5" class="st2" width="653" height="191.8"/>
<path class="st3" d="M328.3,243h3.2c0.1,0,0.1,0,0.2,0.1c1.1,2.9,0.6,6.2-1.5,8.5c-0.2,0.2-0.5,0.2-0.7,0c0,0,0,0,0,0
	c-2-2.3-2.5-5.6-1.3-8.5C328.2,243,328.2,243,328.3,243z"/>
<path class="st4" d="M328.8,243h2.1c0.1,0,0.1,0,0.2,0.1c0.8,2,0.4,4.3-1,5.9c-0.1,0.2-0.4,0.2-0.5,0.1c0,0,0,0-0.1-0.1
	c-1.4-1.6-1.7-3.9-0.9-5.9C328.7,243,328.7,243,328.8,243z"/>
<path class="st3" d="M311.8,242.8h3.2c0.1,0,0.1,0,0.2,0.1c1.1,2.9,0.6,6.2-1.5,8.5c-0.2,0.2-0.5,0.2-0.7,0c0,0,0,0,0,0
	c-2-2.3-2.5-5.6-1.3-8.5C311.6,242.8,311.7,242.8,311.8,242.8z"/>
<path class="st4" d="M312.3,242.8h2.1c0.1,0,0.1,0,0.2,0.1c0.8,2,0.4,4.3-1,5.9c-0.1,0.2-0.4,0.2-0.5,0.1c0,0,0,0-0.1-0.1
	c-1.4-1.6-1.7-3.9-0.9-5.9C312.2,242.8,312.2,242.8,312.3,242.8z"/>
<path class="st3" d="M318.5,242.8h6.5c0.1,0,0.3,0.1,0.3,0.2c2.3,5.9,1.2,12.6-3,17.4c-0.3,0.4-0.9,0.4-1.3,0.1c0,0-0.1-0.1-0.1-0.1
	c-4.2-4.8-5.2-11.6-2.7-17.4C318.3,242.8,318.4,242.8,318.5,242.8z"/>
<path class="st4" d="M319.5,242.8h4.4c0.1,0,0.3,0.1,0.3,0.2c1.6,4.1,0.8,8.7-2,12c-0.3,0.3-0.8,0.4-1.1,0.1c0,0-0.1-0.1-0.1-0.1
	c-2.8-3.3-3.5-8-1.8-12C319.3,242.9,319.4,242.8,319.5,242.8z"/>
<rect x="144.2" y="188.4" class="st2" width="1.1" height="5.4"/>
<rect x="152.8" y="188.4" class="st2" width="1.1" height="5.4"/>
<rect x="486.9" y="187.7" class="st2" width="1.1" height="5.4"/>
<rect x="505.5" y="187.7" class="st2" width="1.1" height="5.4"/>
<path class="st3" d="M257.8,276h5.1v-16.5c0-1.4-1.1-2.5-2.6-2.6c-0.1,0-0.2,0-0.3,0c-0.8-3.4-3.6-5.9-7.1-6.2v-2.9
	c0-2.4-1.9-4.3-4.3-4.3l0,0c-2.4,0-4.3,1.9-4.3,4.3v5.5c-2.8-1.9-6.6-1.1-8.5,1.7c-1,1.6-1.3,3.5-0.7,5.3
	c-7.7,1.2-13.4,7.9-13.4,15.8h32"/>
<path class="st2" d="M493.5,247c-0.1,0-0.3,0-0.4,0c-0.9-4-4.3-7-8.4-7.3v-3.4c0-2.8-2.3-5.1-5.1-5.1l0,0c-2,0-3.8,1.1-4.6,2.9V232
	c0-1.8-1.5-3.3-3.3-3.3c-0.2,0-0.3,0-0.5,0c-1-4.5-4.8-7.8-9.4-8.2v-3.8c0-3.1-2.5-5.6-5.7-5.7l0,0c-3.1,0-5.6,2.5-5.7,5.7v7.2
	c-3.7-2.5-8.7-1.5-11.2,2.2c-1.4,2.1-1.7,4.7-1,7c-10.2,1.6-17.6,10.4-17.6,20.7h35.7c-5.3,3.4-8.6,9.4-8.6,15.7h37.6l5.1-0.1h6V250
	C496.5,248.3,495.2,247,493.5,247C493.5,247,493.5,247,493.5,247z"/>
<path class="st2" d="M566.8,284.6L566.8,284.6c-6.8,0-12.4-5.5-12.4-12.4v-50c0-6.8,5.5-12.4,12.4-12.4h0c6.8,0,12.4,5.5,12.4,12.4
	v50C579.1,279.1,573.6,284.6,566.8,284.6z"/>
<linearGradient id="SVGID_2_" gradientUnits="userSpaceOnUse" x1="864.7362" y1="479.5243" x2="864.7362" y2="536.1724" gradientTransform="matrix(-1 0 0 -1 1443.86 770)">
	<stop  offset="0" style="stop-color:#FFFFFF"/>
	<stop  offset="1.000000e-02" style="stop-color:#F9F7FB"/>
	<stop  offset="7.000000e-02" style="stop-color:#E1D8ED"/>
	<stop  offset="0.14" style="stop-color:#CDBCE1"/>
	<stop  offset="0.22" style="stop-color:#BCA6D8"/>
	<stop  offset="0.31" style="stop-color:#AF95D0"/>
	<stop  offset="0.42" style="stop-color:#A78ACB"/>
	<stop  offset="0.57" style="stop-color:#A183C8"/>
	<stop  offset="1" style="stop-color:#A081C7"/>
</linearGradient>
<path class="st5" d="M587.5,290.5v-46.4c0-5.7-3.8-10.2-8.3-10.2l0,0c-4.6,0-8.3,4.6-8.3,10.2v46.4L587.5,290.5z"/>
<path class="st6" d="M534.2,276.8h-23.5c-0.3,0-0.6-0.3-0.6-0.6v-49.7c0-0.3,0.3-0.6,0.6-0.6h23.5c0.3,0,0.6,0.3,0.6,0.6v49.7
	C534.8,276.5,534.5,276.8,534.2,276.8z"/>
<path class="st6" d="M460.5,276.8h-23.5c-0.3,0-0.6-0.3-0.6-0.6v-49.7c0-0.3,0.3-0.6,0.6-0.6h23.5c0.3,0,0.6,0.3,0.6,0.6v49.7
	C461.1,276.5,460.8,276.8,460.5,276.8z"/>
<path class="st7" d="M508.5,271.1h-23.1c-0.4,0-0.8-0.3-0.8-0.8V193c0-0.4,0.3-0.8,0.8-0.8h23.1c0.4,0,0.8,0.3,0.8,0.8v77.3
	C509.3,270.7,509,271.1,508.5,271.1z"/>
<path class="st8" d="M490,276.2h-31.4c-0.3,0-0.5-0.2-0.5-0.5v-21.6c0-0.3,0.2-0.5,0.5-0.5H490c0.3,0,0.5,0.2,0.5,0.5v21.6
	C490.5,276,490.3,276.2,490,276.2z"/>
<path class="st7" d="M566.1,273.2h-26.2c-0.3,0-0.5-0.2-0.5-0.5v-29.8c0-0.3,0.2-0.5,0.5-0.5h26.2c0.3,0,0.5,0.2,0.5,0.5v29.8
	C566.5,273,566.3,273.2,566.1,273.2z"/>
<path class="st8" d="M559.2,273.4h-28.8c-0.2,0-0.4-0.2-0.4-0.4v-21.6c0-0.2,0.2-0.4,0.4-0.4h28.8c0.2,0,0.4,0.2,0.4,0.4v21.6
	C559.6,273.2,559.4,273.4,559.2,273.4z"/>
<path class="st9" d="M524.1,273.2h-28.4c-0.4,0-0.7-0.3-0.7-0.7v-49.8c0-0.4,0.3-0.7,0.7-0.7h28.4c0.4,0,0.7,0.3,0.7,0.7v49.8
	C524.8,272.9,524.5,273.2,524.1,273.2z"/>
<rect x="499.5" y="211.3" class="st2" width="9.8" height="3.2"/>
<rect x="484.6" y="211.3" class="st2" width="9.8" height="3.2"/>
<rect x="499.5" y="218.1" class="st4" width="9.8" height="3.2"/>
<rect x="484.6" y="218.1" class="st2" width="9.8" height="3.2"/>
<rect x="484.6" y="224.5" class="st2" width="9.8" height="3.2"/>
<rect x="449.7" y="230.8" class="st8" width="7.5" height="3.2"/>
<rect x="439.6" y="230.8" class="st8" width="7.5" height="3.2"/>
<rect x="449.7" y="236.2" class="st4" width="7.5" height="3.2"/>
<rect x="439.6" y="236.2" class="st8" width="7.5" height="3.2"/>
<rect x="449.7" y="241.7" class="st8" width="7.5" height="3.2"/>
<rect x="439.6" y="247.4" class="st8" width="7.5" height="3.2"/>
<rect x="449.7" y="252.8" class="st4" width="7.5" height="3.2"/>
<rect x="439.6" y="252.8" class="st8" width="7.5" height="3.2"/>
<rect x="449.7" y="258.2" class="st8" width="7.5" height="3.2"/>
<path class="st4" d="M554.5,222.1c-0.1-6.8,5.3-12.4,12.1-12.5c6.8-0.1,12.4,5.3,12.5,12.1c0,0.2,0.1,0.4,0.1,0.5v4.5
	c0,1.4-1.1,2.5-2.5,2.5c-1.4,0-2.5-1.1-2.5-2.5v-2.2c0-1.4-1.1-2.5-2.5-2.5s-2.5,1.1-2.5,2.5c0,0,0,0,0,0v10.1
	c0,1.4-1.1,2.5-2.5,2.5l0,0c-1.4,0-2.5-1.1-2.5-2.5v-0.6l0,0c0,0,0-0.1,0-0.1v-3.9c0-1.4-1.1-2.5-2.5-2.5c-1.4,0-2.5,1.1-2.5,2.5
	c0,0,0,0,0,0v1.4l0,0v0.1c0,1.2-1,2.2-2.2,2.2c-1.2,0-2.2-1-2.2-2.2c0,0,0,0,0,0v-9.3c0,0,0,0,0-0.1
	C554.5,222.2,554.5,222.2,554.5,222.1z"/>
<path class="st3" d="M570.9,242.2c-0.1-4.6,3.6-8.3,8.1-8.4c4.6-0.1,8.3,3.6,8.4,8.1l0,0c0,0.1,0,0.2,0,0.4v3c0,0.9-0.8,1.7-1.7,1.7
	c-0.9,0-1.7-0.8-1.7-1.7v-1.5c0-0.9-0.8-1.7-1.7-1.7c-0.9,0-1.7,0.8-1.7,1.7c0,0,0,0,0,0v6.8c0,0.9-0.8,1.7-1.7,1.7l0,0
	c-0.9,0-1.7-0.8-1.7-1.7v-0.4l0,0c0,0,0,0,0-0.1v-2.6c0-0.9-0.8-1.7-1.7-1.7c-0.9,0-1.7,0.8-1.7,1.7c0,0,0,0,0,0v0.9l0,0v0
	c-0.1,0.8-0.8,1.4-1.6,1.4c-0.7-0.1-1.3-0.6-1.4-1.4v-6.2C570.9,242.4,570.9,242.4,570.9,242.2C570.9,242.3,570.9,242.3,570.9,242.2
	z"/>
<path class="st9" d="M444.1,273.2h-28.7c-0.3,0-0.5-0.2-0.5-0.5v-31.8c0-0.3,0.2-0.5,0.5-0.5h28.7c0.3,0,0.5,0.2,0.5,0.5v31.8
	C444.7,273,444.4,273.2,444.1,273.2z"/>
<rect x="515.9" y="227.7" class="st6" width="2.8" height="6.3"/>
<rect x="508.1" y="227.7" class="st2" width="2.8" height="6.3"/>
<rect x="508.1" y="237.8" class="st2" width="2.8" height="6.3"/>
<rect x="500.2" y="237.8" class="st6" width="2.8" height="6.3"/>
<rect x="515.9" y="248.2" class="st2" width="2.8" height="6.3"/>
<rect x="500.2" y="248.2" class="st2" width="2.8" height="6.3"/>
<rect x="515.9" y="248.2" class="st2" width="2.8" height="6.3"/>
<rect x="500.2" y="248.2" class="st2" width="2.8" height="6.3"/>
<path class="st3" d="M389.7,276h-5.1v-16.5c0-1.4,1.1-2.5,2.6-2.6c0.1,0,0.2,0,0.3,0c0.8-3.4,3.6-5.9,7.1-6.2v-2.9
	c0-2.4,1.9-4.3,4.3-4.3l0,0c2.4,0,4.3,1.9,4.3,4.3v5.5c2.8-1.9,6.6-1.1,8.5,1.7c1,1.6,1.3,3.5,0.7,5.3c7.7,1.2,13.4,7.9,13.4,15.8
	h-32"/>
<path class="st2" d="M193.4,269.4h6V250c0-1.7-1.3-3-3-3c-0.1,0-0.3,0-0.4,0c-0.9-4-4.3-7-8.4-7.3v-3.4c0-2.8-2.3-5.1-5.1-5.1l0,0
	c-2.8,0-5.1,2.3-5.1,5.1v6.4c-3.3-2.2-7.8-1.3-10,2c-1.2,1.8-1.6,4.2-0.9,6.3c-9.1,1.5-15.8,9.3-15.8,18.5h37.6"/>
<path class="st2" d="M84.4,209.9L84.4,209.9c6.8,0,12.4,5.5,12.4,12.4v50c0,6.8-5.5,12.4-12.4,12.4h0c-6.8,0-12.4-5.5-12.4-12.4v-50
	C72,215.4,77.6,209.9,84.4,209.9z"/>
<linearGradient id="SVGID_3_" gradientUnits="userSpaceOnUse" x1="72.0201" y1="479.5243" x2="72.0201" y2="536.1724" gradientTransform="matrix(1 0 0 -1 0 770)">
	<stop  offset="0" style="stop-color:#FFFFFF"/>
	<stop  offset="1.000000e-02" style="stop-color:#F9F7FB"/>
	<stop  offset="7.000000e-02" style="stop-color:#E1D8ED"/>
	<stop  offset="0.14" style="stop-color:#CDBCE1"/>
	<stop  offset="0.22" style="stop-color:#BCA6D8"/>
	<stop  offset="0.31" style="stop-color:#AF95D0"/>
	<stop  offset="0.42" style="stop-color:#A78ACB"/>
	<stop  offset="0.57" style="stop-color:#A183C8"/>
	<stop  offset="1" style="stop-color:#A081C7"/>
</linearGradient>
<path class="st10" d="M63.7,290.5v-46.4c0-5.7,3.8-10.2,8.3-10.2l0,0c4.6,0,8.3,4.6,8.3,10.2v46.4L63.7,290.5z"/>
<path class="st2" d="M117,225.8h23.5c0.3,0,0.6,0.3,0.6,0.6v49.7c0,0.3-0.3,0.6-0.6,0.6H117c-0.3,0-0.6-0.3-0.6-0.6v-49.7
	C116.4,226.1,116.6,225.8,117,225.8z"/>
<path class="st6" d="M190.6,225.8h23.5c0.3,0,0.6,0.3,0.6,0.6v49.7c0,0.3-0.3,0.6-0.6,0.6h-23.5c-0.3,0-0.6-0.3-0.6-0.6v-49.7
	C190,226.1,190.3,225.8,190.6,225.8z"/>
<path class="st7" d="M142.6,192.2h23.1c0.4,0,0.8,0.3,0.8,0.8v77.3c0,0.4-0.3,0.8-0.8,0.8h-23.1c-0.4,0-0.8-0.3-0.8-0.8V193
	C141.9,192.6,142.2,192.2,142.6,192.2z"/>
<path class="st8" d="M161.1,253.7h31.4c0.3,0,0.5,0.2,0.5,0.5v21.6c0,0.3-0.2,0.5-0.5,0.5h-31.4c-0.3,0-0.5-0.2-0.5-0.5v-21.6
	C160.7,253.9,160.9,253.7,161.1,253.7z"/>
<path class="st2" d="M568.3,273.2H82.1c-5.1,0-9.2,4.1-9.2,9.2l0,0c0,5.1,4.1,9.2,9.2,9.2h52.2c5.8,0,10.5,4.3,10.5,9.4l0,0
	c0,5.2-4.7,9.4-10.5,9.4h-33.9c-3.4,0-6.2,2.8-6.2,6.2s2.8,6.2,6.2,6.2h234.1c3.4,0,6.2-2.8,6.2-6.2s-2.8-6.2-6.2-6.2h-67.5
	c-5.4,0-9.8-4-9.8-8.8v-1.3c0-4.8,4.4-8.8,9.8-8.8h103.4c4.1,1.6,6.1,6.3,4.5,10.4c-0.8,2.1-2.4,3.7-4.5,4.5h-8.8
	c-2.7-0.1-5,2-5.1,4.7c-0.1,2.7,2,5,4.7,5.1c0.1,0,0.3,0,0.4,0h146.7c2.7-0.1,4.8-2.4,4.7-5.1c-0.1-2.5-2.2-4.6-4.7-4.7h-39.5
	c-4.1-1.6-6.1-6.3-4.5-10.4c0.8-2.1,2.4-3.7,4.5-4.5h99.6c5.1,0,9.2-4.1,9.2-9.2l0,0C577.6,277.4,573.5,273.3,568.3,273.2z"/>
<path class="st6" d="M153.3,331.1h30.6c3.1,0,5.6,2.5,5.6,5.6v0c0,3.1-2.5,5.6-5.6,5.6h-30.6c-3.1,0-5.6-2.5-5.6-5.6v0
	C147.7,333.6,150.2,331.1,153.3,331.1z"/>
<path class="st9" d="M184.9,333.3H199c1.9,0,3.4,1.5,3.4,3.4l0,0c0,1.9-1.5,3.4-3.4,3.4h-14.1c-1.9,0-3.4-1.5-3.4-3.4l0,0
	C181.5,334.9,183,333.3,184.9,333.3z"/>
<path class="st6" d="M122.3,320.3h20.1c1.9,0,3.4,1.5,3.4,3.4l0,0c0,1.9-1.5,3.4-3.4,3.4h-20.1c-1.9,0-3.4-1.5-3.4-3.4l0,0
	C118.9,321.8,120.5,320.3,122.3,320.3z"/>
<path class="st6" d="M380.6,311.9h30.6c3.1,0,5.6,2.5,5.6,5.6v0c0,3.1-2.5,5.6-5.6,5.6h-30.6c-3.1,0-5.6-2.5-5.6-5.6v0
	C375,314.4,377.5,311.9,380.6,311.9z"/>
<path class="st9" d="M407.8,319.7h14.1c1.9,0,3.4,1.5,3.4,3.4l0,0c0,1.9-1.5,3.4-3.4,3.4h-14.1c-1.9,0-3.4-1.5-3.4-3.4l0,0
	C404.4,321.2,405.9,319.7,407.8,319.7z"/>
<linearGradient id="SVGID_4_" gradientUnits="userSpaceOnUse" x1="451.25" y1="422.9989" x2="451.25" y2="431.6878" gradientTransform="matrix(1 0 0 -1 0 770)">
	<stop  offset="0" style="stop-color:#FFFFFF"/>
	<stop  offset="1.000000e-02" style="stop-color:#F9F7FB"/>
	<stop  offset="7.000000e-02" style="stop-color:#E1D8ED"/>
	<stop  offset="0.14" style="stop-color:#CDBCE1"/>
	<stop  offset="0.22" style="stop-color:#BCA6D8"/>
	<stop  offset="0.31" style="stop-color:#AF95D0"/>
	<stop  offset="0.42" style="stop-color:#A78ACB"/>
	<stop  offset="0.57" style="stop-color:#A183C8"/>
	<stop  offset="1" style="stop-color:#A081C7"/>
</linearGradient>
<path class="st11" d="M430.3,347L430.3,347c0-4.8,3.9-8.7,8.7-8.7h24.4c4.8,0,8.7,3.9,8.7,8.7H430.3z"/>
<path class="st9" d="M251.1,294.8h20.1c1.9,0,3.4,1.5,3.4,3.4l0,0c0,1.9-1.5,3.4-3.4,3.4h-20.1c-1.9,0-3.4-1.5-3.4-3.4l0,0
	C247.7,296.3,249.2,294.8,251.1,294.8z"/>
<path class="st6" d="M322.5,319.7h20.1c1.9,0,3.4,1.5,3.4,3.4l0,0c0,1.9-1.5,3.4-3.4,3.4h-20.1c-1.9,0-3.4-1.5-3.4-3.4l0,0
	C319.1,321.2,320.6,319.7,322.5,319.7z"/>
<path class="st9" d="M460.7,298.2h14.1c1.9,0,3.4,1.5,3.4,3.4l0,0c0,1.9-1.5,3.4-3.4,3.4h-14.1c-1.9,0-3.4-1.5-3.4-3.4l0,0
	C457.3,299.7,458.8,298.2,460.7,298.2z"/>
<path class="st4" d="M183.9,294.8c0.3-4.4,4.1-7.8,8.6-7.5c4,0.3,7.2,3.5,7.5,7.5H183.9z"/>
<circle class="st4" cx="272.1" cy="302.2" r="2.5"/>
<circle class="st4" cx="434.9" cy="338.3" r="3.8"/>
<path class="st4" d="M486.6,274.6c0-3.9,3.2-7,7-7s7,3.2,7,7l0,0H486.6z"/>
<path class="st4" d="M203.4,289.9c-0.1-2.9,2.2-5.4,5.1-5.5c2.9-0.1,5.4,2.2,5.5,5.1c0,0.1,0,0.3,0,0.4H203.4z"/>
<linearGradient id="SVGID_5_" gradientUnits="userSpaceOnUse" x1="586.8967" y1="422.98" x2="586.8967" y2="431.7067" gradientTransform="matrix(1 0 0 -1 0 770)">
	<stop  offset="0" style="stop-color:#FFFFFF"/>
	<stop  offset="9.000000e-02" style="stop-color:#FFF7E1"/>
	<stop  offset="0.26" style="stop-color:#FFEAAC"/>
	<stop  offset="0.43" style="stop-color:#FFDF81"/>
	<stop  offset="0.59" style="stop-color:#FFD75F"/>
	<stop  offset="0.74" style="stop-color:#FFD147"/>
	<stop  offset="0.88" style="stop-color:#FFCD38"/>
	<stop  offset="1" style="stop-color:#FFCC33"/>
</linearGradient>
<circle class="st12" cx="586.9" cy="342.7" r="4.4"/>
<path class="st4" d="M504.3,275.8c0-2.9,2.3-5.2,5.2-5.2c2.9,0,5.2,2.3,5.2,5.2H504.3z"/>
<path class="st4" d="M541.1,286.2c0-2.9,2.3-5.2,5.2-5.2c2.9,0,5.2,2.3,5.2,5.2H541.1z"/>
<circle class="st4" cx="104.7" cy="310" r="3.8"/>
<path class="st9" d="M536.9,311.9h38.4c3.1,0,5.6,2.5,5.6,5.6v0c0,3.1-2.5,5.6-5.6,5.6h-38.4c-3.1,0-5.6-2.5-5.6-5.6v0
	C531.3,314.4,533.8,311.9,536.9,311.9z"/>
<path class="st7" d="M85.1,242.4h26.2c0.3,0,0.5,0.2,0.5,0.5v29.8c0,0.3-0.2,0.5-0.5,0.5H85.1c-0.3,0-0.5-0.2-0.5-0.5v-29.8
	C84.6,242.6,84.8,242.4,85.1,242.4z"/>
<path class="st8" d="M92,250.8h28.8c0.2,0,0.4,0.2,0.4,0.4v21.6c0,0.2-0.2,0.4-0.4,0.4H92c-0.2,0-0.4-0.2-0.4-0.4v-21.6
	C91.5,251,91.7,250.8,92,250.8z"/>
<path class="st9" d="M127,222.1h28.4c0.4,0,0.7,0.3,0.7,0.7v47.7c0,0.4-0.3,0.7-0.7,0.7H127c-0.4,0-0.7-0.3-0.7-0.7v-47.7
	C126.4,222.4,126.7,222.1,127,222.1z"/>
<path class="st4" d="M105.6,271.1h70.7c1.9,0,3.4,1.5,3.4,3.4l0,0c0,1.9-1.5,3.4-3.4,3.4h-70.7c-1.9,0-3.4-1.5-3.4-3.4l0,0
	C102.2,272.6,103.7,271.1,105.6,271.1z"/>
<path class="st7" d="M142.5,186.4h12.9c0.4,0,0.7,0.3,0.7,0.7v1.8c0,0.4-0.3,0.7-0.7,0.7h-12.9c-0.4,0-0.7-0.3-0.7-0.7v-1.8
	C141.9,186.7,142.2,186.4,142.5,186.4z"/>
<path class="st7" d="M485.2,186.4h23.2c0.5,0,0.9,0.4,0.9,0.9v1.3c0,0.5-0.4,0.9-0.9,0.9h-23.2c-0.5,0-0.9-0.4-0.9-0.9v-1.3
	C484.3,186.8,484.7,186.4,485.2,186.4z"/>
<line class="st13" x1="233.4" y1="304.7" x2="265.5" y2="304.7"/>
<line class="st13" x1="121.3" y1="307.7" x2="164.9" y2="307.7"/>
<rect x="141.9" y="198.2" class="st2" width="9.8" height="3.2"/>
<rect x="141.9" y="204.8" class="st2" width="9.8" height="3.2"/>
<rect x="141.9" y="211.3" class="st2" width="9.8" height="3.2"/>
<rect x="156.7" y="198.2" class="st2" width="9.8" height="3.2"/>
<rect x="156.7" y="204.8" class="st4" width="9.8" height="3.2"/>
<rect x="156.7" y="211.3" class="st2" width="9.8" height="3.2"/>
<rect x="141.9" y="218.1" class="st4" width="9.8" height="3.2"/>
<rect x="156.7" y="218.1" class="st2" width="9.8" height="3.2"/>
<rect x="156.7" y="224.5" class="st2" width="9.8" height="3.2"/>
<rect x="193.9" y="230.8" class="st8" width="7.5" height="3.2"/>
<rect x="204" y="230.8" class="st8" width="7.5" height="3.2"/>
<rect x="193.9" y="236.2" class="st4" width="7.5" height="3.2"/>
<rect x="204" y="236.2" class="st8" width="7.5" height="3.2"/>
<rect x="193.9" y="241.7" class="st8" width="7.5" height="3.2"/>
<rect x="204" y="247.3" class="st8" width="7.5" height="3.2"/>
<rect x="193.9" y="252.8" class="st4" width="7.5" height="3.2"/>
<rect x="204" y="252.8" class="st8" width="7.5" height="3.2"/>
<rect x="193.9" y="258.2" class="st8" width="7.5" height="3.2"/>
<path class="st4" d="M96.7,222.1c0.1-6.8-5.3-12.4-12.1-12.5c-6.8-0.1-12.4,5.3-12.5,12.1c0,0.2-0.1,0.4-0.1,0.5v4.5
	c0,1.4,1.1,2.5,2.5,2.5s2.5-1.1,2.5-2.5v-2.2c0-1.4,1.1-2.5,2.5-2.5c1.4,0,2.5,1.1,2.5,2.5l0,0v10.1c0,1.4,1.1,2.5,2.5,2.5l0,0
	c1.4,0,2.5-1.1,2.5-2.5v-0.6l0,0c0,0,0-0.1,0-0.1v-3.9c0-1.4,1.1-2.5,2.5-2.5s2.5,1.1,2.5,2.5v1.4l0,0v0.1c0,1.2,1,2.2,2.2,2.2
	c1.2,0,2.2-1,2.2-2.2v-9.3c0,0,0,0,0-0.1C96.7,222.2,96.7,222.2,96.7,222.1z"/>
<path class="st3" d="M80.3,242.2c0.1-4.6-3.6-8.3-8.1-8.4c-4.6-0.1-8.3,3.6-8.4,8.1l0,0c0,0.1,0,0.2,0,0.4v3c0,0.9,0.8,1.7,1.7,1.7
	c0.9,0,1.7-0.8,1.7-1.7v-1.5c0-0.9,0.8-1.7,1.7-1.7s1.7,0.8,1.7,1.7v6.8c0,0.9,0.8,1.7,1.7,1.7l0,0c0.9,0,1.7-0.8,1.7-1.7v-0.4l0,0
	c0,0,0,0,0-0.1v-2.6c0-0.9,0.8-1.7,1.7-1.7c0.9,0,1.7,0.8,1.7,1.7c0,0,0,0,0,0v0.9l0,0v0c0.1,0.8,0.8,1.4,1.6,1.4
	c0.7-0.1,1.3-0.6,1.4-1.4v-6.2C80.3,242.4,80.3,242.4,80.3,242.2C80.3,242.3,80.3,242.3,80.3,242.2z"/>
<path class="st9" d="M207,240.3h28.7c0.3,0,0.5,0.2,0.5,0.5v31.8c0,0.3-0.2,0.5-0.5,0.5H207c-0.3,0-0.5-0.2-0.5-0.5v-31.8
	C206.5,240.6,206.7,240.3,207,240.3z"/>
<rect x="132.4" y="227.7" class="st6" width="2.8" height="6.3"/>
<rect x="140.3" y="227.7" class="st2" width="2.8" height="6.3"/>
<rect x="140.3" y="237.8" class="st2" width="2.8" height="6.3"/>
<rect x="148.2" y="237.8" class="st6" width="2.8" height="6.3"/>
<rect x="212.1" y="246.6" class="st6" width="2.8" height="6.3"/>
<rect x="220" y="246.6" class="st2" width="2.8" height="6.3"/>
<rect x="220" y="256.7" class="st2" width="2.8" height="6.3"/>
<rect x="227.8" y="256.7" class="st6" width="2.8" height="6.3"/>
<rect x="420.8" y="246.6" class="st6" width="2.8" height="6.3"/>
<rect x="428.7" y="246.6" class="st2" width="2.8" height="6.3"/>
<rect x="428.7" y="256.7" class="st2" width="2.8" height="6.3"/>
<rect x="436.6" y="256.7" class="st6" width="2.8" height="6.3"/>
<rect x="132.4" y="248.2" class="st2" width="2.8" height="6.3"/>
<rect x="148.2" y="248.2" class="st2" width="2.8" height="6.3"/>
<rect x="132.4" y="248.2" class="st2" width="2.8" height="6.3"/>
<rect x="148.2" y="248.2" class="st2" width="2.8" height="6.3"/>
<path class="st9" d="M281.4,222.1L281.4,222.1c0.8,0,1.4,0.6,1.4,1.4v6.6c0,0.8-0.6,1.4-1.4,1.4l0,0c-0.8,0-1.4-0.6-1.4-1.4v-6.6
	C279.9,222.8,280.6,222.1,281.4,222.1z"/>
<path class="st2" d="M264.4,203.2L264.4,203.2c0.8,0,1.4,0.6,1.4,1.4v6.6c0,0.8-0.6,1.4-1.4,1.4l0,0c-0.8,0-1.4-0.6-1.4-1.4v-6.6
	C262.9,203.9,263.6,203.2,264.4,203.2z"/>
<circle class="st2" cx="218.9" cy="198.8" r="2.9"/>
<circle class="st6" cx="509.9" cy="170.9" r="2.9"/>
<circle class="st2" cx="563.9" cy="144" r="2.9"/>
<circle class="st2" cx="133.8" cy="56.4" r="14.7"/>
<circle class="st8" cx="137.4" cy="55.2" r="7.2"/>
<path class="st4" d="M167.6,67.8h-27.2c-1.3,0.1-2.3,1.2-2.3,2.6c0.1,1.2,1,2.2,2.3,2.3h9.7c0.5,0.1,0.8,0.5,0.9,1
	c0,0.6-0.7,1.7-1.3,1.7h-4c-0.9,0-1.6,0.7-1.6,1.6v0.2c0,0.9,0.7,1.6,1.6,1.6h19.6c0.9,0,1.6-0.7,1.6-1.6v-0.2
	c0-0.9-0.7-1.6-1.6-1.6h-8.6c-0.6,0-1.1-0.5-1.1-1.1c0,0,0,0,0,0l0,0c0-0.6,0.5-1.1,1.1-1.1l0,0h10.9c1.5,0,2.7-1.2,2.7-2.7l0,0
	C170.3,69,169.1,67.8,167.6,67.8z"/>
<path class="st8" d="M549.8,177.6h-27.2c-1.3,0.1-2.3,1.2-2.3,2.6c0.1,1.2,1,2.2,2.3,2.3h9.7c0.5,0.1,0.8,0.5,0.9,1
	c0,0.6-0.7,1.7-1.3,1.7h-4c-0.9,0-1.6,0.7-1.6,1.6v0.2c0,0.9,0.7,1.6,1.6,1.6h19.6c0.9,0,1.6-0.7,1.6-1.6v-0.2
	c0-0.9-0.7-1.6-1.6-1.6h-8.6c-0.6,0-1.1-0.5-1.1-1.1l0,0c0-0.6,0.5-1.1,1.1-1.1h10.9c1.5,0,2.7-1.2,2.7-2.7l0,0
	C552.5,178.8,551.3,177.6,549.8,177.6z"/>
<path class="st4" d="M319.7,280.2h28c0.8,0,1.4,0.6,1.4,1.4v0.5c0,0.8-0.6,1.4-1.4,1.4h-28c-0.8,0-1.4-0.6-1.4-1.4v-0.5
	C318.3,280.8,318.9,280.2,319.7,280.2z"/>
<path class="st2" d="M82.9,100.2L82.9,100.2c0.8,0,1.4,0.6,1.4,1.4v6.6c0,0.8-0.6,1.4-1.4,1.4l0,0c-0.8,0-1.4-0.6-1.4-1.4v-6.6
	C81.5,100.9,82.1,100.2,82.9,100.2z"/>
<path class="st4" d="M101.8,64.4L101.8,64.4c0,0.8-0.6,1.4-1.4,1.4h-6.6c-0.8,0-1.4-0.6-1.4-1.4v0c0-0.8,0.6-1.4,1.4-1.4h6.6
	C101.2,63,101.8,63.6,101.8,64.4z"/>
<circle class="st2" cx="159.4" cy="178.9" r="2.9"/>
<circle class="st6" cx="72.5" cy="88.1" r="2"/>
<line class="st13" x1="104.4" y1="79.9" x2="132.2" y2="63.8"/>
<line class="st13" x1="91.4" y1="91.5" x2="132.2" y2="68"/>
<line class="st13" x1="512" y1="149.2" x2="538.8" y2="166.9"/>
<line class="st13" x1="495.8" y1="142.8" x2="535.1" y2="168.7"/>
<path class="st4" d="M312.1,275.4c0-7.4-4.1-14.2-10.7-17.6v-6.1c0-2-1.6-3.6-3.6-3.6c-0.2,0-0.3,0-0.5,0c-1.1-4.9-5.2-8.5-10.2-8.9
	v-4.2c0-3.4-2.8-6.2-6.2-6.2l0,0c-3.4,0-6.2,2.8-6.2,6.2v7.8c-4-2.7-9.5-1.7-12.2,2.4c-1.5,2.3-1.9,5.1-1.1,7.7
	c-11.1,1.8-19.2,11.3-19.2,22.5h45.7l4.6-0.1L312.1,275.4z"/>
<path class="st9" d="M259.6,274.5h23.5c0.9,0,1.7,0.8,1.7,1.7v0c0,0.9-0.8,1.7-1.7,1.7h-23.5c-0.9,0-1.7-0.8-1.7-1.7v0
	C257.9,275.2,258.6,274.5,259.6,274.5z"/>
<path class="st8" d="M252.1,276.8v-21c0-2.5,0.7-4.6,1.4-4.6l0,0c0.8,0,1.4,2.1,1.4,4.6v21H252.1z"/>
<circle class="st2" cx="253.4" cy="248.8" r="5.6"/>
<circle class="st9" cx="253.4" cy="248.8" r="2.8"/>
<path class="st2" d="M250.1,255.9h6.9c0.2,0,0.4,0.2,0.4,0.4l0,0c0,0.2-0.2,0.4-0.4,0.4h-6.9c-0.2,0-0.4-0.2-0.4-0.4l0,0
	C249.6,256.1,249.8,255.9,250.1,255.9z"/>
<path class="st2" d="M250.1,257.4h6.9c0.2,0,0.4,0.2,0.4,0.4l0,0c0,0.2-0.2,0.4-0.4,0.4h-6.9c-0.2,0-0.4-0.2-0.4-0.4l0,0
	C249.6,257.6,249.8,257.4,250.1,257.4z"/>
<path class="st9" d="M420.7,187.5L420.7,187.5c0.8,0,1.4,0.6,1.4,1.4v6.6c0,0.8-0.6,1.4-1.4,1.4l0,0c-0.8,0-1.4-0.6-1.4-1.4v-6.6
	C419.2,188.1,419.9,187.5,420.7,187.5z"/>
<ellipse transform="matrix(4.675774e-02 -0.9989 0.9989 4.675774e-02 371.834 593.6663)" class="st4" cx="497" cy="102" rx="2.9" ry="2.9"/>
<path class="st8" d="M519.4,112.7L519.4,112.7c0,0.8-0.6,1.4-1.4,1.4h-6.6c-0.8,0-1.4-0.6-1.4-1.4l0,0c0-0.8,0.6-1.4,1.4-1.4h6.6
	C518.7,111.3,519.4,111.9,519.4,112.7z"/>
<line class="st13" x1="100.3" y1="201.1" x2="100.3" y2="203.8"/>
<line class="st13" x1="100.3" y1="205.8" x2="100.3" y2="208.5"/>
<line class="st13" x1="101.6" y1="204.8" x2="104.3" y2="204.8"/>
<line class="st13" x1="96.3" y1="204.8" x2="99" y2="204.8"/>
<line class="st13" x1="297.5" y1="207.6" x2="297.5" y2="210.3"/>
<line class="st13" x1="297.5" y1="212.3" x2="297.5" y2="215"/>
<line class="st13" x1="298.8" y1="211.3" x2="301.5" y2="211.3"/>
<line class="st13" x1="293.6" y1="211.3" x2="296.2" y2="211.3"/>
<line class="st13" x1="448.7" y1="177.2" x2="448.7" y2="179.8"/>
<line class="st13" x1="448.7" y1="181.9" x2="448.7" y2="184.6"/>
<line class="st13" x1="450.1" y1="180.9" x2="452.8" y2="180.9"/>
<line class="st13" x1="444.8" y1="180.9" x2="447.5" y2="180.9"/>
<line class="st13" x1="560.9" y1="188.5" x2="560.9" y2="191.2"/>
<line class="st13" x1="560.9" y1="193.3" x2="560.9" y2="195.9"/>
<line class="st13" x1="562.3" y1="192.3" x2="564.9" y2="192.3"/>
<line class="st13" x1="557" y1="192.3" x2="559.7" y2="192.3"/>
<line class="st14" x1="164.8" y1="21" x2="164.8" y2="23.7"/>
<line class="st14" x1="164.8" y1="25.7" x2="164.8" y2="28.4"/>
<line class="st14" x1="166.1" y1="24.7" x2="168.8" y2="24.7"/>
<line class="st14" x1="160.9" y1="24.7" x2="163.5" y2="24.7"/>
<line class="st14" x1="414.8" y1="214.4" x2="414.8" y2="217.1"/>
<line class="st14" x1="414.8" y1="219.1" x2="414.8" y2="221.8"/>
<line class="st14" x1="416.1" y1="218.1" x2="418.8" y2="218.1"/>
<line class="st14" x1="410.8" y1="218.1" x2="413.5" y2="218.1"/>
<line class="st14" x1="546.2" y1="77.8" x2="546.2" y2="80.5"/>
<line class="st14" x1="546.2" y1="82.5" x2="546.2" y2="85.2"/>
<line class="st14" x1="547.5" y1="81.5" x2="550.2" y2="81.5"/>
<line class="st14" x1="542.3" y1="81.5" x2="544.9" y2="81.5"/>
<path class="st4" d="M331.6,275.4c0-7.4,4.1-14.2,10.7-17.6v-6.1c0-2,1.6-3.6,3.6-3.6c0.2,0,0.3,0,0.5,0c1.1-4.9,5.2-8.5,10.2-8.9
	v-4.2c0-3.4,2.8-6.2,6.2-6.2l0,0c3.4,0,6.2,2.8,6.2,6.2v7.8c4-2.7,9.5-1.7,12.2,2.4c1.5,2.3,1.9,5.1,1.1,7.7
	c11.1,1.8,19.2,11.3,19.2,22.5h-45.7l-4.6-0.1L331.6,275.4z"/>
<path class="st2" d="M321.8,191.5c-9.3,9-8.4,18.7-8.4,18.7v32.6h16.9v-32.6C330.2,203,327.1,196.2,321.8,191.5z"/>
<path class="st7" d="M338.4,238.7v6c0,0.3-0.2,0.5-0.4,0.5l-11.2,1.6c-0.3,0-0.5-0.2-0.6-0.4c0,0,0-0.1,0-0.1v-20.2
	c0-0.3,0.1-0.5,0.4-0.6c0.2,0,0.4,0.1,0.5,0.2l11.1,12.6C338.3,238.5,338.4,238.6,338.4,238.7z"/>
<path class="st7" d="M305.3,238.7v6c0,0.3,0.2,0.5,0.4,0.5l11.2,1.6c0.3,0,0.5-0.2,0.6-0.4c0,0,0-0.1,0-0.1v-20.2
	c0-0.3-0.1-0.5-0.4-0.6c-0.2,0-0.4,0.1-0.5,0.2l-11.1,12.6C305.4,238.5,305.3,238.6,305.3,238.7z"/>
<path class="st2" d="M332.1,241.3l-1.5,0.8 M330.6,242.1l0.3-1.6l0,0l-1.2-1.2 M329.7,239.2l1.6-0.2l0,0l0.7-1.5 M332.1,237.5
	l0.7,1.5l0,0l1.6,0.2 M334.5,239.3l-1.2,1.2l0,0l0.3,1.6 M333.5,242.1l-1.5-0.8L333.5,242.1z"/>
<path class="st8" d="M332.1,241.3l-1.5,0.8 M330.6,242.1l0.3-1.6l0,0l-1.2-1.2 M329.7,239.2l1.6-0.2l0,0l0.7-1.5 M332.1,237.5
	l0.7,1.5l0,0l1.6,0.2 M334.5,239.3l-1.2,1.2l0,0l0.3,1.6 M333.5,242.1l-1.5-0.8L333.5,242.1z"/>
<path class="st8" d="M311.9,241.3l-1.5,0.8 M310.4,242.1l0.3-1.6l0,0l-1.2-1.2 M309.5,239.2l1.6-0.2l0,0l0.7-1.5 M311.9,237.5
	l0.7,1.5l0,0l1.6,0.2 M314.3,239.3l-1.2,1.2l0,0l0.3,1.6 M313.4,242.1l-1.5-0.8L313.4,242.1z"/>
<circle class="st4" cx="321.8" cy="213.4" r="3.8"/>
<path class="st15" d="M323.2,210.9c0.3,0.1,0.6,0.2,0.8,0.4c0.2,0.2,0.4,0.5,0.6,0.8c0.1,0.3,0.2,0.6,0.2,0.9c0,0.3,0,0.6-0.1,0.9
	c-0.1-0.6-0.3-1.1-0.5-1.7C323.9,211.8,323.6,211.3,323.2,210.9z"/>
<path class="st4" d="M332.3,263.5c-4.2,0-8.1,2.2-10.2,5.8c-3.4-4.5-9.7-5.4-14.2-2c-2.6,1.9-4.1,4.9-4.1,8.2h40.4
	C344.2,268.9,338.9,263.5,332.3,263.5L332.3,263.5z"/>
<rect x="484.6" y="197.9" class="st2" width="9.8" height="3.2"/>
<rect x="484.6" y="204.5" class="st2" width="9.8" height="3.2"/>
<rect x="499.5" y="197.9" class="st2" width="9.8" height="3.2"/>
<rect x="499.5" y="204.5" class="st4" width="9.8" height="3.2"/>
<g id="contact">
	<path class="st2" d="M444.2,485.1c-0.1,0-0.2,0-0.3,0c-0.6-2.6-2.8-4.6-5.5-4.8v-2.2c0-1.8-1.5-3.3-3.3-3.3l0,0
		c-1.3,0-2.4,0.7-3,1.9v-1.4c0-1.2-1-2.2-2.2-2.2c-0.1,0-0.2,0-0.3,0c-0.6-2.9-3.1-5.1-6.1-5.3v-2.5c0-2-1.7-3.7-3.7-3.7l0,0
		c-2,0-3.7,1.7-3.7,3.7v4.8c-2.4-1.6-5.7-1-7.3,1.4c-0.9,1.3-1.1,3-0.6,4.6c-6.6,1.1-11.5,6.8-11.5,13.5H420
		c-3.5,2.2-5.6,6.1-5.6,10.2h24.5l3.3,0h3.9V487C446.1,486,445.2,485.1,444.2,485.1z"/>
	<path class="st2" d="M224.9,482.7c-0.1,0-0.3,0-0.4,0c-0.9-3.9-4.2-6.8-8.1-7.1v-3.3c0-2.7-2.2-5-5-5l0,0c-1.9,0-3.6,1.1-4.5,2.8
		v-2c0-1.8-1.5-3.2-3.2-3.2c-0.1,0-0.3,0-0.4,0c-1-4.3-4.6-7.6-9.1-8v-3.7c0-3.1-2.5-5.5-5.5-5.5l0,0c-3.1,0-5.5,2.5-5.5,5.5v6.9
		c-3.6-2.4-8.4-1.4-10.8,2.1c-1.3,2-1.7,4.5-0.9,6.8c-9.9,1.6-17.1,10.1-17.1,20.1h34.7c-5.2,3.3-8.3,9.1-8.3,15.3h36.5l4.9-0.1h5.8
		v-18.9C227.8,484,226.5,482.7,224.9,482.7z"/>
	<path class="st16" d="M385.4,469.5H417c0.2,0,0.4,0.2,0.4,0.4v19.5c0,0.2-0.2,0.4-0.4,0.4h-31.6c-0.2,0-0.4-0.2-0.4-0.4v-19.5
		C385,469.7,385.2,469.5,385.4,469.5z"/>
	<path class="st9" d="M383.6,468.1h35.3c0.3,0,0.5,0.2,0.5,0.5v1.6c0,0.3-0.2,0.5-0.5,0.5h-35.3c-0.3,0-0.5-0.2-0.5-0.5v-1.6
		C383.1,468.4,383.4,468.1,383.6,468.1z"/>
	<rect x="506.3" y="449.2" class="st16" width="26.6" height="39.3"/>
	<rect x="521.4" y="459.1" class="st2" width="8.7" height="2.8"/>
	<rect x="521.4" y="465.2" class="st2" width="8.7" height="2.8"/>
	<path class="st3" d="M253.4,489.1h3.4v-11.1c0-0.9-0.8-1.7-1.7-1.7c-0.1,0-0.2,0-0.2,0c-0.5-2.3-2.4-4-4.8-4.2v-1.9
		c0-1.6-1.3-2.9-2.9-2.9l0,0c-1.6,0-2.9,1.3-2.9,2.9v3.7c-1.9-1.3-4.4-0.8-5.7,1.1c-0.7,1-0.9,2.4-0.5,3.6c-5.2,0.8-9,5.3-9,10.5
		h21.4"/>
	<path class="st4" d="M269.3,489.1h2.6v-8.4c0-0.7-0.6-1.2-1.3-1.3h-0.2c-0.4-1.7-1.8-3-3.6-3.2v-1.5c0-1.2-1-2.2-2.2-2.2l0,0
		c-1.2,0-2.2,1-2.2,2.2v2.7c-1.4-1-3.4-0.6-4.3,0.9c-0.5,0.8-0.7,1.8-0.4,2.7c-3.9,0.6-6.8,4-6.8,8h16.2"/>
	<path class="st2" d="M510.6,446.8h23.5c0.2,0,0.4,0.2,0.4,0.4v1.6c0,0.2-0.2,0.4-0.4,0.4h-23.5c-0.2,0-0.4-0.2-0.4-0.4v-1.6
		C510.2,447,510.4,446.8,510.6,446.8z"/>
	<rect x="491" y="445.5" class="st9" width="26.6" height="43.4"/>
	<rect x="491" y="450.6" class="st6" width="26.6" height="1.2"/>
	<rect x="494" y="458" class="st7" width="3.9" height="1.8"/>
	<rect x="494" y="454.4" class="st4" width="3.9" height="3.6"/>
	<rect x="493.6" y="459.7" class="st2" width="4.6" height="0.4"/>
	<rect x="501.7" y="458" class="st7" width="3.9" height="1.8"/>
	<rect x="501.7" y="454.4" class="st17" width="3.9" height="3.6"/>
	<rect x="501.4" y="459.7" class="st2" width="4.6" height="0.4"/>
	<rect x="501.7" y="466.6" class="st7" width="3.9" height="1.8"/>
	<rect x="501.7" y="463" class="st17" width="3.9" height="3.6"/>
	<rect x="501.4" y="468.4" class="st2" width="4.6" height="0.4"/>
	<rect x="494" y="475.1" class="st7" width="3.9" height="1.8"/>
	<rect x="494" y="471.5" class="st17" width="3.9" height="3.6"/>
	<rect x="493.6" y="476.9" class="st2" width="4.6" height="0.4"/>
	<rect x="501.7" y="475.1" class="st7" width="3.9" height="1.8"/>
	<rect x="501.7" y="471.5" class="st17" width="3.9" height="3.6"/>
	<rect x="501.4" y="476.9" class="st2" width="4.6" height="0.4"/>
	<rect x="509.5" y="466.6" class="st7" width="3.9" height="1.8"/>
	<rect x="509.5" y="463" class="st4" width="3.9" height="3.6"/>
	<rect x="509.2" y="468.4" class="st2" width="4.6" height="0.4"/>
	<rect x="510.8" y="442.1" class="st9" width="3.9" height="2.5"/>
	<path class="st2" d="M510.4,441.2h4.8c0.1,0,0.2,0.1,0.2,0.2v0.5c0,0.1-0.1,0.2-0.2,0.2h-4.8c-0.1,0-0.2-0.1-0.2-0.2v-0.5
		C510.1,441.3,510.2,441.2,510.4,441.2z"/>
	<path class="st6" d="M490.4,444.5h27.9c0.3,0,0.5,0.2,0.5,0.5v1.9c0,0.3-0.2,0.5-0.5,0.5h-27.9c-0.3,0-0.5-0.2-0.5-0.5V445
		C489.9,444.8,490.1,444.5,490.4,444.5z"/>
	<path class="st7" d="M508.5,478.9h5.3c0.2,0,0.4,0.2,0.4,0.4l0,0v9.4l0,0h-6.1l0,0v-9.4C508.1,479,508.3,478.9,508.5,478.9z"/>
	<path class="st3" d="M386.3,489.8h1.9v-6.2c0-0.5-0.4-1-1-1l0,0h-0.1c-0.3-1.3-1.4-2.2-2.7-2.3v-1.1c0-0.9-0.7-1.6-1.6-1.6l0,0l0,0
		c-0.9,0-1.6,0.7-1.6,1.6l0,0v2c-1.1-0.7-2.5-0.4-3.2,0.6c-0.4,0.6-0.5,1.3-0.3,2c-2.9,0.5-5,3-5.1,5.9h12"/>
	<path class="st4" d="M526.2,489.8h2.6v-8.4c0-0.7-0.6-1.2-1.3-1.3h-0.2c-0.4-1.7-1.8-3-3.6-3.2v-1.5c0-1.2-1-2.2-2.2-2.2l0,0
		c-1.2,0-2.2,1-2.2,2.2v2.8c-1.4-1-3.4-0.6-4.3,0.9c-0.5,0.8-0.7,1.8-0.4,2.7c-3.9,0.6-6.8,4-6.8,8H524"/>
	<path class="st6" d="M528.7,458.6h15.7c0.2,0,0.4,0.2,0.4,0.4v33.2c0,0.2-0.2,0.4-0.4,0.4h-15.7c-0.2,0-0.4-0.2-0.4-0.4V459
		C528.3,458.8,528.4,458.6,528.7,458.6z"/>
	<path class="st16" d="M271,459.1h28.4c0.3,0,0.5,0.2,0.5,0.5v29c0,0.3-0.2,0.5-0.5,0.5H271c-0.3,0-0.5-0.2-0.5-0.5v-29
		C270.5,459.4,270.7,459.1,271,459.1z"/>
	<rect x="274" y="463.8" class="st2" width="8.7" height="2.8"/>
	<rect x="274" y="469.6" class="st2" width="8.7" height="2.8"/>
	<rect x="274" y="475.6" class="st4" width="8.7" height="2.8"/>
	<rect x="301.3" y="449.5" class="st16" width="26.6" height="39.3"/>
	<path class="st2" d="M305.6,447.1h23.5c0.2,0,0.4,0.2,0.4,0.4v1.6c0,0.2-0.2,0.4-0.4,0.4h-23.5c-0.2,0-0.4-0.2-0.4-0.4v-1.6
		C305.2,447.2,305.4,447.1,305.6,447.1z"/>
	<rect x="316.6" y="453.2" class="st7" width="8.7" height="2.8"/>
	<rect x="316.6" y="459" class="st2" width="8.7" height="2.8"/>
	<rect x="316.6" y="465" class="st2" width="8.7" height="2.8"/>
	<path class="st16" d="M138.4,408.3h27.8c0.5,0,0.8,0.4,0.8,0.8v79.4c0,0.5-0.4,0.8-0.8,0.8h-27.8c-0.5,0-0.8-0.4-0.8-0.8v-79.4
		C137.5,408.7,137.9,408.3,138.4,408.3z"/>
	<path class="st16" d="M558.2,408.3H586c0.5,0,0.8,0.4,0.8,0.8v79.4c0,0.5-0.4,0.8-0.8,0.8h-27.8c-0.5,0-0.8-0.4-0.8-0.8v-79.4
		C557.4,408.7,557.8,408.3,558.2,408.3z"/>
	<path class="st7" d="M148.1,436.6h25.3c0.4,0,0.7,0.3,0.7,0.7v53.5c0,0.4-0.3,0.7-0.7,0.7h-25.3c-0.4,0-0.7-0.3-0.7-0.7v-53.5
		C147.5,436.9,147.8,436.6,148.1,436.6z"/>
	<rect x="151.6" y="442" class="st8" width="8.1" height="3.4"/>
	<rect x="162.6" y="442" class="st8" width="8.1" height="3.4"/>
	<rect x="151.6" y="447.8" class="st4" width="8.1" height="3.4"/>
	<rect x="162.6" y="447.8" class="st8" width="8.1" height="3.4"/>
	<rect x="151.6" y="453.7" class="st8" width="8.1" height="3.4"/>
	<rect x="162.6" y="459.8" class="st8" width="8.1" height="3.4"/>
	<rect x="151.6" y="465.7" class="st4" width="8.1" height="3.4"/>
	<rect x="162.6" y="465.7" class="st8" width="8.1" height="3.4"/>
	<rect x="151.6" y="471.5" class="st8" width="8.1" height="3.4"/>
	
		<linearGradient id="SVGID_6_" gradientUnits="userSpaceOnUse" x1="1167.524" y1="273.7483" x2="1167.524" y2="326.0533" gradientTransform="matrix(-1 0 0 -1 1764.1101 770)">
		<stop  offset="0" style="stop-color:#FFFFFF"/>
		<stop  offset="4.000000e-02" style="stop-color:#F6F3F9"/>
		<stop  offset="0.13" style="stop-color:#E5DDF0"/>
		<stop  offset="0.23" style="stop-color:#D9CCE8"/>
		<stop  offset="0.35" style="stop-color:#D0C0E3"/>
		<stop  offset="0.53" style="stop-color:#CAB9E0"/>
		<stop  offset="1" style="stop-color:#C9B7DF"/>
	</linearGradient>
	<path class="st18" d="M599.2,496.3H594c-5.6,0-10.2-4.6-10.2-10.2v-31.9c0-5.6,4.6-10.2,10.2-10.2h5.2c5.6,0,10.2,4.6,10.2,10.2
		v31.9C609.4,491.7,604.8,496.3,599.2,496.3z"/>
	<path class="st4" d="M609.4,460.5c0,1.5-1.2,2.6-2.6,2.6s-2.6-1.2-2.6-2.6v-2.2c0-1.5-1.2-2.6-2.6-2.6c-1.5,0-2.6,1.2-2.6,2.6v10.4
		c0,1.5-1.2,2.6-2.6,2.6l0,0c-1.5,0-2.6-1.2-2.6-2.6v-0.6l0,0c0,0,0-0.1,0-0.1v-4c0-1.5-1.2-2.6-2.6-2.6c-1.5,0-2.6,1.2-2.6,2.6v1.5
		l0,0v0.1c-0.1,1.3-1.1,2.2-2.4,2.2c-1.2-0.1-2.1-1-2.2-2.2v-9.6c0,0,0-0.1,0-0.1s0-0.1,0-0.1c0-7,1.7-12.8,12.8-12.8
		c11.7,0,12.9,5.6,12.8,12.3L609.4,460.5z"/>
	<path class="st6" d="M88.9,430.9h8.5c7.4,0,13.4,6,13.4,13.4v38.5c0,7.4-6,13.4-13.4,13.4h-8.5c-7.4,0-13.4-6-13.4-13.4v-38.5
		C75.6,436.9,81.5,430.9,88.9,430.9z"/>
	<path class="st3" d="M76.4,453.6c0,1.9,1.6,3.5,3.5,3.5c1.9,0,3.5-1.6,3.5-3.5v-3c0-1.9,1.6-3.5,3.5-3.5c1.9,0,3.5,1.6,3.5,3.5v14
		c0,1.9,1.6,3.5,3.5,3.5l0,0c1.9,0,3.5-1.6,3.5-3.5v-0.9l0,0c0,0,0-0.1,0-0.1v-5.3c0-1.9,1.6-3.5,3.5-3.5c1.9,0,3.5,1.6,3.5,3.5v2
		l0,0v0.1c0,1.7,1.4,3.1,3.1,3.1s3.1-1.4,3.1-3.1v-12.8c0,0,0-0.1,0-0.1s0-0.1,0-0.2c0-9.4-2.3-17-17.1-17
		c-15.6,0-17.2,7.5-17.1,16.4L76.4,453.6z"/>
	<path class="st9" d="M354.2,490.4h-3.2c-0.1,0-0.1-0.1-0.1-0.2l0.6-17.6c0-0.1,0.1-0.2,0.1-0.2h2.1c0.1,0,0.1,0.1,0.1,0.2l0.6,17.6
		C354.4,490.3,354.3,490.4,354.2,490.4z"/>
	<path class="st19" d="M204.7,494.8v-40.3c0-6.8,5.5-12.3,12.3-12.3h0.4c6.8,0,12.3,5.5,12.3,12.3v40.3H204.7z"/>
	<path class="st8" d="M217.4,442.3c6.8,0,12.3,5.5,12.3,12.3v40.3h-12.3L217.4,442.3z"/>
	
		<linearGradient id="SVGID_7_" gradientUnits="userSpaceOnUse" x1="61.8408" y1="263.2569" x2="61.8408" y2="364.1089" gradientTransform="matrix(1 0 0 -1 0 770)">
		<stop  offset="0" style="stop-color:#FFFFFF"/>
		<stop  offset="4.000000e-02" style="stop-color:#F6F3F9"/>
		<stop  offset="0.13" style="stop-color:#E5DDF0"/>
		<stop  offset="0.23" style="stop-color:#D9CCE8"/>
		<stop  offset="0.35" style="stop-color:#D0C0E3"/>
		<stop  offset="0.53" style="stop-color:#CAB9E0"/>
		<stop  offset="1" style="stop-color:#C9B7DF"/>
	</linearGradient>
	<path class="st20" d="M59.6,405.9h4.5c9.8,0,17.7,7.9,17.7,17.7v65.5c0,9.8-7.9,17.7-17.7,17.7h-4.5c-9.8,0-17.7-7.9-17.7-17.7
		v-65.5C41.9,413.8,49.9,405.9,59.6,405.9z"/>
	<path class="st4" d="M41.9,437.8c0,2.8,1.8,5.1,4.1,5.1s4.1-2.3,4.1-5.1v-4.3c0-2.8,1.8-5.1,4.1-5.1c2.2,0,4.1,2.3,4.1,5.1v20.2
		c0,2.8,1.8,5.1,4.1,5.1l0,0c2.3,0,4.1-2.3,4.1-5.1v-1.3l0,0c0-0.1,0-0.1,0-0.2v-7.7c0-2.8,1.8-5.1,4.1-5.1s4.1,2.3,4.1,5.1v2.9l0,0
		v0.1c0,2.4,1.6,4.4,3.6,4.4c2,0,3.6-2,3.6-4.4V429c0-0.1,0-0.1,0-0.2s0-0.2,0-0.3c0-13.6-2.7-24.6-19.9-24.6
		c-18.1,0-20,10.8-19.9,23.8L41.9,437.8z"/>
	<path class="st6" d="M392.1,557.8h31.5c1.3,0,2.4,1.1,2.4,2.4v0c0,1.3-1.1,2.4-2.4,2.4h-31.5c-1.3,0-2.4-1.1-2.4-2.4v0
		C389.6,558.9,390.7,557.8,392.1,557.8z"/>
	<path class="st9" d="M527.5,552.4h25c2.7,0,4.9,2.2,4.9,4.9l0,0c0,2.7-2.2,4.9-4.9,4.9h-25c-2.7,0-4.9-2.2-4.9-4.9l0,0
		C522.6,554.6,524.8,552.4,527.5,552.4z"/>
	<circle class="st4" cx="60.4" cy="519.5" r="2.3"/>
	<path class="st17" d="M196.9,418.2h-18.2c-0.9,0.1-1.6,0.8-1.5,1.7c0.1,0.8,0.7,1.5,1.5,1.5h6.5c0.3,0.1,0.6,0.4,0.6,0.7
		c0,0.4-0.5,1.2-0.9,1.2h-2.7c-0.6,0-1.1,0.5-1.1,1.1v0.2c0,0.6,0.5,1.1,1.1,1.1h13.1c0.6,0,1.1-0.5,1.1-1.1v-0.2
		c0-0.6-0.5-1.1-1.1-1.1h-5.7c-0.4,0-0.7-0.3-0.7-0.7l0,0l0,0c0-0.4,0.3-0.7,0.7-0.7l0,0h7.3c1,0,1.8-0.8,1.8-1.8l0,0
		C198.7,419,197.9,418.2,196.9,418.2z"/>
	<path class="st17" d="M103.2,400.3H85c-0.9,0.1-1.6,0.8-1.5,1.7c0.1,0.8,0.7,1.5,1.5,1.5h6.5c0.3,0.1,0.6,0.4,0.6,0.7
		c0,0.4-0.5,1.2-0.9,1.2h-2.7c-0.6,0-1.1,0.5-1.1,1.1v0.2c0,0.6,0.5,1.1,1.1,1.1h13.1c0.6,0,1.1-0.5,1.1-1.1v-0.2
		c0-0.6-0.5-1.1-1.1-1.1h-5.7c-0.4,0-0.7-0.3-0.7-0.7l0,0l0,0c0-0.4,0.3-0.7,0.7-0.7l0,0h7.3c1,0,1.8-0.8,1.8-1.8l0,0
		C105,401.1,104.2,400.3,103.2,400.3z"/>
	<path class="st7" d="M428.2,397.7H410c-0.9,0.1-1.6,0.8-1.5,1.7c0.1,0.8,0.7,1.5,1.5,1.5h6.5c0.3,0.1,0.6,0.4,0.6,0.7
		c0,0.4-0.5,1.2-0.9,1.2h-2.7c-0.6,0-1.1,0.5-1.1,1.1v0.2c0,0.6,0.5,1.1,1.1,1.1h13.1c0.6,0,1.1-0.5,1.1-1.1v-0.2
		c0-0.6-0.5-1.1-1.1-1.1h-5.7c-0.4,0-0.7-0.3-0.7-0.7l0,0c0-0.4,0.3-0.7,0.7-0.7h7.3c1,0,1.8-0.8,1.8-1.8l0,0
		C430,398.5,429.2,397.7,428.2,397.7z"/>
	<path class="st9" d="M363.5,416h13.4c1.3,0,2.3,1,2.3,2.3v0c0,1.3-1,2.3-2.3,2.3h-13.4c-1.3,0-2.3-1-2.3-2.3v0
		C361.2,417,362.2,416,363.5,416z"/>
	<circle class="st4" cx="212.4" cy="416.5" r="1.7"/>
	<circle class="st4" cx="441.1" cy="410.8" r="1.7"/>
	<path class="st17" d="M278.3,406.7h0.3c0.5,0,0.9,0.4,0.9,0.9v6.9c0,0.5-0.4,0.9-0.9,0.9h-0.3c-0.5,0-0.9-0.4-0.9-0.9v-6.9
		C277.5,407.1,277.9,406.7,278.3,406.7z"/>
	<path class="st4" d="M361.1,387.4h0.3c0.5,0,0.9,0.4,0.9,0.9v6.9c0,0.5-0.4,0.9-0.9,0.9h-0.3c-0.5,0-0.9-0.4-0.9-0.9v-6.9
		C360.2,387.8,360.6,387.4,361.1,387.4z"/>
	<path class="st4" d="M513.3,416.8h0.3c0.5,0,0.9,0.4,0.9,0.9v6.9c0,0.5-0.4,0.9-0.9,0.9h-0.3c-0.5,0-0.9-0.4-0.9-0.9v-6.9
		C512.4,417.2,512.8,416.8,513.3,416.8z"/>
	<line class="st21" x1="258.9" y1="416.9" x2="276.8" y2="428.7"/>
	<line class="st21" x1="247" y1="414.3" x2="273.3" y2="431.6"/>
	<path class="st17" d="M345.1,469.1h13.5c1.3,0,2.3,1,2.3,2.3l0,0c0,1.3-1,2.3-2.3,2.3h-13.5c-1.3,0-2.3-1-2.3-2.3l0,0
		C342.8,470.2,343.8,469.1,345.1,469.1z"/>
	<path class="st17" d="M351,463.9h12.4c1.5,0,2.6,1.2,2.6,2.6v0.7c0,1.5-1.2,2.6-2.6,2.6H351c-1.5,0-2.6-1.2-2.6-2.6v-0.7
		C348.4,465.1,349.6,463.9,351,463.9z"/>
	<path class="st17" d="M346.8,461.3h10c1.1,0,2,0.9,2,2l0,0c0,1.1-0.9,2-2,2h-10c-1.1,0-2-0.9-2-2l0,0
		C344.8,462.2,345.7,461.3,346.8,461.3z"/>
	<rect x="286" y="445.8" class="st9" width="26.6" height="43.1"/>
	<rect x="286" y="450.9" class="st6" width="26.6" height="1.2"/>
	<rect x="289" y="458.2" class="st7" width="3.9" height="1.8"/>
	<rect x="289" y="454.6" class="st4" width="3.9" height="3.6"/>
	<rect x="288.6" y="460" class="st2" width="4.6" height="0.4"/>
	<rect x="296.7" y="458.2" class="st7" width="3.9" height="1.8"/>
	<rect x="296.7" y="454.6" class="st17" width="3.9" height="3.6"/>
	<rect x="296.4" y="460" class="st2" width="4.6" height="0.4"/>
	<rect x="296.7" y="466.9" class="st7" width="3.9" height="1.8"/>
	<rect x="296.7" y="463.3" class="st17" width="3.9" height="3.6"/>
	<rect x="296.4" y="468.6" class="st2" width="4.6" height="0.4"/>
	<rect x="289" y="475.4" class="st7" width="3.9" height="1.8"/>
	<rect x="289" y="471.8" class="st17" width="3.9" height="3.6"/>
	<rect x="288.6" y="477.1" class="st2" width="4.6" height="0.4"/>
	<rect x="296.7" y="475.4" class="st7" width="3.9" height="1.8"/>
	<rect x="296.7" y="471.8" class="st17" width="3.9" height="3.6"/>
	<rect x="296.4" y="477.1" class="st2" width="4.6" height="0.4"/>
	<rect x="304.5" y="466.9" class="st7" width="3.9" height="1.8"/>
	<rect x="304.5" y="463.3" class="st4" width="3.9" height="3.6"/>
	<rect x="304.2" y="468.6" class="st2" width="4.6" height="0.4"/>
	<rect x="305.8" y="442.3" class="st9" width="3.9" height="2.5"/>
	<path class="st2" d="M305.4,441.4h4.8c0.1,0,0.2,0.1,0.2,0.2v0.5c0,0.1-0.1,0.2-0.2,0.2h-4.8c-0.1,0-0.2-0.1-0.2-0.2v-0.5
		C305.1,441.5,305.2,441.4,305.4,441.4z"/>
	<path class="st6" d="M285.4,444.8h27.9c0.3,0,0.5,0.2,0.5,0.5v1.9c0,0.3-0.2,0.5-0.5,0.5h-27.9c-0.3,0-0.5-0.2-0.5-0.5v-1.9
		C284.9,445,285.1,444.8,285.4,444.8z"/>
	<path class="st7" d="M303.4,479.1h5.3c0.2,0,0.4,0.2,0.4,0.4v9.4l0,0H303l0,0v-9.4C303,479.2,303.2,479.1,303.4,479.1
		C303.4,479.1,303.4,479.1,303.4,479.1z"/>
	<rect x="317.7" y="468.1" class="st9" width="19.7" height="20.7"/>
	<rect x="327.7" y="480.6" class="st6" width="7.6" height="4.7"/>
	<rect x="327.1" y="485.4" class="st2" width="8.7" height="0.5"/>
	<rect x="320.4" y="480.6" class="st7" width="5" height="8.2"/>
	<path class="st6" d="M339.6,473.4h-24.1c-0.3,0-0.5-0.2-0.4-0.5c0-0.1,0-0.1,0-0.2l5.1-10.9c0.1-0.2,0.2-0.3,0.4-0.3h14.3
		c0.2,0,0.3,0.1,0.4,0.3l4.7,10.9c0.1,0.2,0,0.5-0.3,0.6C339.7,473.4,339.6,473.4,339.6,473.4z"/>
	<polygon class="st9" points="336.3,466.4 334.1,463.2 334.1,460.8 336.3,460.8 	"/>
	<path class="st2" d="M333.8,460.1h2.8c0.1,0,0.2,0.1,0.2,0.2v0.5c0,0.1-0.1,0.2-0.2,0.2h-2.8c-0.1,0-0.2-0.1-0.2-0.2v-0.5
		C333.7,460.1,333.7,460.1,333.8,460.1z"/>
	<rect x="331.9" y="475.1" class="st6" width="3.9" height="3.6"/>
	<rect x="320.4" y="475.1" class="st6" width="3.9" height="3.6"/>
	<rect x="326.1" y="475.1" class="st6" width="3.9" height="3.6"/>
	<rect x="322.2" y="469.1" class="st9" width="2.5" height="1.2"/>
	<rect x="322.2" y="466.8" class="st17" width="2.5" height="2.3"/>
	<rect x="322" y="470.2" class="st2" width="2.9" height="0.3"/>
	<rect x="330.6" y="469.1" class="st9" width="2.5" height="1.2"/>
	<rect x="330.6" y="466.8" class="st4" width="2.5" height="2.3"/>
	<rect x="330.4" y="470.2" class="st2" width="2.9" height="0.3"/>
	<rect x="547.1" y="433.1" class="st2" width="0.7" height="3.6"/>
	<rect x="559.1" y="433.1" class="st2" width="0.7" height="3.6"/>
	<path class="st7" d="M545.8,436.1h15.5c0.3,0,0.5,0.2,0.5,0.5v51.7c0,0.3-0.2,0.5-0.5,0.5h-15.5c-0.3,0-0.5-0.2-0.5-0.5v-51.7
		C545.3,436.4,545.5,436.1,545.8,436.1z"/>
	<path class="st9" d="M535.4,456.1h19c0.2,0,0.4,0.2,0.4,0.4v33.3c0,0.2-0.2,0.4-0.4,0.4h-19c-0.2,0-0.4-0.2-0.4-0.4v-33.3
		C535,456.3,535.2,456.1,535.4,456.1z"/>
	<rect x="545.3" y="448.9" class="st2" width="6.5" height="2.1"/>
	<rect x="555.3" y="448.9" class="st2" width="6.5" height="2.1"/>
	<rect x="545.3" y="453.4" class="st4" width="6.5" height="2.1"/>
	<rect x="555.3" y="453.4" class="st2" width="6.5" height="2.1"/>
	<rect x="555.3" y="457.7" class="st2" width="6.5" height="2.1"/>
	<rect x="539" y="459.8" class="st6" width="1.9" height="4.2"/>
	<rect x="544.3" y="459.8" class="st2" width="1.9" height="4.2"/>
	<rect x="544.3" y="466.6" class="st2" width="1.9" height="4.2"/>
	<rect x="549.5" y="466.6" class="st6" width="1.9" height="4.2"/>
	<rect x="539" y="473.5" class="st2" width="1.9" height="4.2"/>
	<rect x="549.5" y="473.5" class="st2" width="1.9" height="4.2"/>
	<rect x="539" y="473.5" class="st2" width="1.9" height="4.2"/>
	<rect x="549.5" y="473.5" class="st2" width="1.9" height="4.2"/>
	<path class="st7" d="M561.5,434.3h-15.5c-0.3,0-0.6-0.3-0.6-0.6v-0.9c0-0.3,0.3-0.6,0.6-0.6h15.5c0.3,0,0.6,0.3,0.6,0.6v0.9
		C562.1,434.1,561.8,434.3,561.5,434.3z"/>
	<rect x="555.3" y="439.9" class="st2" width="6.5" height="2.1"/>
	<rect x="555.3" y="444.4" class="st2" width="6.5" height="2.1"/>
	<rect x="545.3" y="439.9" class="st2" width="6.5" height="2.1"/>
	<rect x="545.3" y="444.4" class="st4" width="6.5" height="2.1"/>
	<path class="st4" d="M404.3,519.5c0-1.9,1.6-3.5,3.5-3.5c1.9,0,3.5,1.6,3.5,3.5H404.3z"/>
	<path class="st6" d="M140.8,536.4H155c1.1,0,2,0.9,2,2l0,0c0,1.1-0.9,2-2,2h-14.2c-1.1,0-2-0.9-2-2l0,0
		C138.8,537.3,139.7,536.4,140.8,536.4z"/>
	<path class="st9" d="M154.7,537.1h6.7c0.7,0,1.2,0.5,1.2,1.2l0,0c0,0.7-0.5,1.2-1.2,1.2h-6.7c-0.7,0-1.2-0.5-1.2-1.2l0,0
		C153.5,537.7,154,537.1,154.7,537.1z"/>
	<path class="st4" d="M266.7,498.1c-0.2-3,2-5.5,5-5.7c3-0.2,5.5,2,5.7,5c0,0.2,0,0.5,0,0.7H266.7z"/>
	<line class="st21" x1="67.6" y1="521.7" x2="96.7" y2="521.7"/>
	<circle class="st4" cx="235.8" cy="526.4" r="1.7"/>
	<line class="st21" x1="209.9" y1="528.1" x2="231.4" y2="528.1"/>
	<path class="st6" d="M369.2,484.1h-2.3v-3.2c0-0.2-0.1-0.4-0.3-0.4h-10.4c-0.2,0-0.3,0.2-0.3,0.4v3.2h-2.1c-0.2,0-0.3,0.2-0.3,0.4
		v2.8c0,0.2,0.1,0.4,0.3,0.4h15.4c0.2,0,0.3-0.2,0.3-0.4v-2.8C369.4,484.2,369.3,484.1,369.2,484.1z"/>
	<path class="st2" d="M352.9,487H370c0.1,0,0.1,0.1,0.1,0.1v0.6c0,0.1-0.1,0.1-0.1,0.1h-17.1c-0.1,0-0.1-0.1-0.1-0.1v-0.6
		C352.8,487.1,352.9,487,352.9,487z"/>
	<circle class="st9" cx="356.8" cy="488.2" r="1.9"/>
	<circle class="st9" cx="365.8" cy="488.2" r="1.9"/>
	<path class="st4" d="M354.4,484.8v0.7c0,0,0,0.1-0.1,0.1H354c0,0-0.1,0-0.1-0.1v-0.7c0,0,0-0.1,0.1-0.1L354.4,484.8
		C354.4,484.8,354.4,484.8,354.4,484.8z"/>
	<rect x="377.8" y="474.4" class="st9" width="0.7" height="15.2"/>
	<path class="st6" d="M375.3,469.9h5.5c0.2,0,0.3,0.1,0.3,0.3v5.5c0,0.2-0.1,0.3-0.3,0.3h-5.5c-0.2,0-0.3-0.1-0.3-0.3v-5.5
		C375,470,375.2,469.9,375.3,469.9z"/>
	<rect x="521.4" y="453.3" class="st7" width="8.7" height="2.8"/>
	<rect x="391.2" y="475.4" class="st7" width="1.9" height="4.2"/>
	<rect x="396.7" y="475.2" class="st2" width="1.9" height="4.4"/>
	<rect x="396.7" y="482.3" class="st2" width="1.9" height="4.4"/>
	<path class="st22" d="M424.4,490h-20.7c-0.2,0-0.3-0.1-0.3-0.3v-14.2c0-0.2,0.1-0.3,0.3-0.3h20.7c0.2,0,0.3,0.1,0.3,0.3v14.2
		C424.7,489.9,424.5,490,424.4,490z"/>
	<path class="st22" d="M577.8,489h-18.7c-0.2,0-0.3-0.1-0.3-0.3v-12.9c0-0.2,0.1-0.3,0.3-0.3h18.7c0.2,0,0.3,0.1,0.3,0.3v12.9
		C578.1,488.9,578,489,577.8,489z"/>
	<path class="st22" d="M152.5,489h-29.7c-0.3,0-0.5-0.2-0.5-0.5v-22c0-0.3,0.2-0.5,0.5-0.5h29.7c0.3,0,0.5,0.2,0.5,0.5v22
		C152.9,488.8,152.7,489,152.5,489z"/>
	<path class="st7" d="M131.6,493.5h-3.8c-0.1,0-0.2-0.1-0.2-0.3l0.7-24.9c0-0.2,0.1-0.3,0.2-0.3h2.5c0.1,0,0.2,0.1,0.2,0.3l0.7,24.9
		C131.8,493.4,131.7,493.5,131.6,493.5z"/>
	<path class="st2" d="M144,464.2h-6.6c-0.8,0-1.5-0.7-1.5-1.6c0-0.8,0.7-1.5,1.6-1.5l0,0h3.4c0.7-0.2,1.2-0.9,1.2-1.6v-0.3
		c0-0.9-0.8-1.7-1.7-1.7h-0.8c0.7-0.6,0.7-1.6,0.1-2.3c-0.3-0.3-0.7-0.5-1.2-0.5h-9.3c-0.9,0-1.6,0.7-1.6,1.6c0,0.4,0.2,0.9,0.5,1.2
		h-8.7c-0.9,0-1.7,0.8-1.7,1.7v0.3c0,0.9,0.8,1.7,1.7,1.7h11c0.6,0,1.2,0.5,1.2,1.2l0,0c0,0.6-0.5,1.2-1.2,1.2h-13.5
		c-1.6,0-2.9,1.3-2.9,2.9l0,0c0,1.6,1.3,2.9,2.9,2.9h1.5c-0.9,0.7-1.1,2-0.4,2.9c0.4,0.5,1,0.8,1.6,0.8h17.4c1.1,0,2.1-0.9,2.1-2.1
		c0-0.6-0.3-1.2-0.8-1.6h5.7c1.4,0,2.6-1.2,2.6-2.6S145.4,464.2,144,464.2L144,464.2z"/>
	<path class="st2" d="M140.4,404h6.7c0.2,0,0.3,0.1,0.3,0.3v3.8c0,0.2-0.1,0.3-0.3,0.3h-6.7c-0.2,0-0.3-0.1-0.3-0.3v-3.8
		C140.1,404.1,140.3,404,140.4,404z"/>
	<rect x="163.7" y="405.1" class="st2" width="0.7" height="3.6"/>
	<rect x="160.5" y="405.1" class="st2" width="0.7" height="3.6"/>
	<path class="st2" d="M589.7,488.8H119.5h-0.2H84.7c-2.5,0-4.6,1.9-4.7,4.4c-0.1,0.4-0.1,0.8,0,1.1c0.2,2.5,2.2,4.4,4.7,4.4h47.2
		c4.4,0,8,2.3,8,5c0,2.8-3.5,4.9-7.8,5H63.6c-4.1,0-7.5,3.3-7.5,7.5v0.6c0,4.1,3.3,7.5,7.5,7.5h90.1c-2,0-3.6,1.6-3.6,3.6l0,0
		c0,2,1.6,3.6,3.6,3.6h89.6c2.1-0.1,3.8-1.9,3.7-4c-0.1-2-1.7-3.6-3.7-3.7h-13.4c-6.4-1.4-11-5.2-11-9.7c0-5.7,7.4-10.3,16.5-10.3
		h139.9c9.1,0,16.5,4.6,16.5,10.3c0,4.5-4.6,8.3-11,9.7h-86.6c-2.9,0-5.2,2.4-5.2,5.2c0,2.9,2.3,5.2,5.2,5.2h135.4
		c2.9,0,5.2-2.3,5.2-5.2c0-2.2-1.4-4.2-3.4-4.9h139.8c5.9,0,10.7-3,10.7-6.7l0,0c0-3.3-3.9-6.1-8.9-6.6h-62c-2.6,0-4.7-1.7-4.7-3.9
		c0-2.1,2.1-3.9,4.7-3.9h73.6c1.5,0,3-0.2,4.4-0.6h0.6c3.8,0,6.8-3.1,6.9-6.9l0,0C596.5,491.9,593.5,488.9,589.7,488.8z"/>
	<path class="st9" d="M584.1,500.6h25c2.7,0,4.9,2.2,4.9,4.9l0,0c0,2.7-2.2,4.9-4.9,4.9h-25c-2.7,0-4.9-2.2-4.9-4.9l0,0
		C579.2,502.8,581.4,500.6,584.1,500.6z"/>
	<line class="st21" x1="568.4" y1="508.3" x2="589.9" y2="508.3"/>
	<path class="st4" d="M532.8,488.2h18.4c0.6,0,1.1,0.5,1.1,1.1v0c0,0.6-0.5,1.1-1.1,1.1h-18.4c-0.6,0-1.1-0.5-1.1-1.1v0
		C531.7,488.7,532.2,488.2,532.8,488.2z"/>
	<rect x="427.2" y="469.5" class="st9" width="22.9" height="20.4"/>
	<polygon class="st6" points="452.5,471.8 425.1,471.8 427.6,461.7 450.4,461.7 	"/>
	<rect x="430.9" y="482.1" class="st6" width="7.5" height="4.7"/>
	<rect x="429.3" y="486.2" class="st2" width="9.6" height="0.6"/>
	<rect x="430" y="473.6" class="st7" width="2.3" height="5.1"/>
	<rect x="433.6" y="473.6" class="st6" width="2.3" height="5.1"/>
	<rect x="437.2" y="473.6" class="st7" width="2.3" height="5.1"/>
	<rect x="443.7" y="473.6" class="st4" width="3.8" height="5.1"/>
	<rect x="442.6" y="481.9" class="st7" width="4.9" height="8"/>
	<rect x="445.3" y="459.2" class="st9" width="3.1" height="2.4"/>
	<path class="st2" d="M445,458.3h3.7c0.1,0,0.2,0.1,0.2,0.2v0.5c0,0.1-0.1,0.2-0.2,0.2H445c-0.1,0-0.2-0.1-0.2-0.2v-0.5
		C444.8,458.4,444.9,458.3,445,458.3z"/>
	<line class="st23" x1="427.2" y1="480.3" x2="450.2" y2="480.3"/>
	<rect x="431.8" y="467.4" class="st9" width="2.7" height="1.3"/>
	<rect x="431.8" y="464.8" class="st17" width="2.7" height="2.5"/>
	<rect x="431.5" y="468.6" class="st2" width="3.2" height="0.3"/>
	<rect x="443.6" y="467.4" class="st9" width="2.7" height="1.3"/>
	<rect x="443.6" y="464.8" class="st17" width="2.7" height="2.5"/>
	<rect x="443.4" y="468.6" class="st2" width="3.2" height="0.3"/>
	<path class="st9" d="M473.1,490.8h4.2c0.1,0,0.2-0.1,0.2-0.2c0,0,0,0,0,0l-0.7-19.3c0-0.1-0.1-0.2-0.2-0.2h-2.7
		c-0.1,0-0.2,0.1-0.2,0.2l-0.7,19.3C472.9,490.6,473,490.7,473.1,490.8C473.1,490.8,473.1,490.8,473.1,490.8z"/>
	<path class="st2" d="M485.4,469L485.4,469h-5.1c-0.3,0.1-0.7-0.1-0.8-0.5c-0.1-0.3,0.1-0.7,0.5-0.8c0.1,0,0.2,0,0.3,0l0,0h2.8
		c1.3,0,2.4-1.1,2.4-2.4l0,0c0-1.3-1.1-2.4-2.4-2.4h-0.4c0.2-0.3,0.2-0.5,0.2-0.8c0-0.9-0.7-1.6-1.6-1.6h-12c-0.9,0-1.6,0.7-1.6,1.6
		c0,0.3,0.1,0.6,0.2,0.8h-3.3c-0.5,0-1,0.4-1,1c0,0.5,0.4,1,1,1c0,0,0,0,0,0h4.3c0.8,0,1.4,0.6,1.4,1.4c0,0.8-0.6,1.4-1.4,1.4h-4.9
		c-1.4,0-2.5,1.1-2.5,2.5v0.4c0,1.4,1.1,2.5,2.5,2.5h21.1c1.1,0,2-0.9,2-2.1C487.2,470,486.4,469.2,485.4,469L485.4,469z"/>
	<path class="st4" d="M473.8,492.5c0-2.6,2.1-4.7,4.7-4.7c2.6,0,4.7,2.1,4.7,4.7H473.8z"/>
	<circle class="st4" cx="390" cy="518.2" r="2.5"/>
	<path class="st9" d="M380.7,507.7h9.4c1.3,0,2.3,1,2.3,2.3l0,0c0,1.3-1,2.3-2.3,2.3h-9.4c-1.3,0-2.3-1-2.3-2.3l0,0
		C378.5,508.7,379.5,507.7,380.7,507.7z"/>
	<path class="st19" d="M303,488.8c0,0-3.4,5.2,8.3,6.6c11.7,1.4,10.7,7.7,4.9,8.4h8.4c0,0,3.6-8.6-8.3-10.1
		c-11.1-1.4-7.3-4.9-7.3-4.9"/>
	<path class="st4" d="M323.1,503.8c0-1.9,1.6-3.5,3.5-3.5s3.5,1.6,3.5,3.5l0,0H323.1z"/>
	<path class="st4" d="M325.8,489.2h-0.5v-1.7c0-0.1,0.1-0.3,0.3-0.3h0c0.1-0.3,0.4-0.6,0.7-0.6v-0.3c0-0.3,0.2-0.5,0.5-0.5l0,0
		c0.3,0,0.5,0.2,0.5,0.5v0.6c0.3-0.2,0.7-0.1,0.9,0.1c0.1,0.2,0.2,0.4,0.1,0.6c0.8,0.1,1.4,0.8,1.4,1.6h-3.3"/>
	<path class="st3" d="M324.5,489.8c0-0.6,0.5-1.1,1.1-1.1c0.6,0,1.1,0.5,1.1,1.1H324.5z"/>
	<path class="st4" d="M319.9,489h0.5v-1.7c0-0.1-0.1-0.3-0.3-0.3l0,0h0c-0.1-0.3-0.4-0.6-0.7-0.6V486c0-0.3-0.2-0.5-0.5-0.5l0,0l0,0
		c-0.3,0-0.5,0.2-0.5,0.5l0,0v0.6c-0.3-0.2-0.7-0.1-0.9,0.1c-0.1,0.2-0.2,0.4-0.1,0.6c-0.8,0.1-1.4,0.8-1.4,1.6h3.3"/>
	<path class="st3" d="M318.6,489.5c0-0.6,0.5-1.1,1.1-1.1s1.1,0.5,1.1,1.1H318.6z"/>
	<path class="st17" d="M261.3,489.9h-3.3c-0.1,0-0.1-0.1-0.1-0.3l0.6-26.4c0-0.2,0.1-0.3,0.1-0.3h2.2c0.1,0,0.1,0.1,0.1,0.3
		l0.6,26.4C261.4,489.7,261.3,489.9,261.3,489.9z"/>
	<path class="st19" d="M271.3,469h-4.8c1-0.8,1.2-2.2,0.4-3.2c-0.2-0.2-0.4-0.4-0.7-0.6h3c1,0,1.8-0.8,1.8-1.8v-0.3
		c0-1-0.8-1.8-1.8-1.8h-12.9c-1.1,0-2,0.9-2,2c0,0.6,0.3,1.1,0.8,1.5h-2.5c-1.3,0-2.3,1-2.3,2.3c0,0.7,0.3,1.3,0.8,1.8h-2.9
		c-0.5,0-0.9,0.4-0.9,0.9v0.2c0,0.5,0.4,0.9,0.9,0.9h6.9c0,0.1,0,0.2,0,0.2c0,1.3,1,2.3,2.3,2.3h13.9c1.3-0.1,2.2-1.1,2.2-2.4
		C273.5,470,272.6,469.1,271.3,469L271.3,469z"/>
	<path class="st6" d="M182,485.9h1.5c0.2,0,0.4,0.2,0.4,0.4v4.8c0,0.2-0.2,0.4-0.4,0.4H182c-0.2,0-0.4-0.2-0.4-0.4v-4.8
		C181.6,486.1,181.8,485.9,182,485.9z"/>
	<path class="st6" d="M208.1,485.7h1.5c0.2,0,0.4,0.2,0.4,0.4v4.8c0,0.2-0.2,0.4-0.4,0.4h-1.5c-0.2,0-0.4-0.2-0.4-0.4v-4.8
		C207.7,485.9,207.8,485.7,208.1,485.7z"/>
	<rect x="183.9" y="477.1" class="st6" width="1.7" height="8.8"/>
	<rect x="206.2" y="477.1" class="st6" width="1.7" height="8.8"/>
	<path class="st24" d="M178.8,473.9h34.6c0.3,0,0.6,0.3,0.6,0.6v6.2c0,0.3-0.3,0.6-0.6,0.6h-34.6c-0.3,0-0.6-0.3-0.6-0.6v-6.2
		C178.2,474.2,178.5,473.9,178.8,473.9z"/>
	<path class="st24" d="M178.5,484.3h35.1c0.2,0,0.3,0.1,0.3,0.3v1.5c0,0.2-0.1,0.3-0.3,0.3h-35.1c-0.2,0-0.3-0.1-0.3-0.3v-1.5
		C178.2,484.4,178.4,484.3,178.5,484.3z"/>
	<path class="st7" d="M180.3,475.4h1.1c0.1,0,0.2,0.1,0.2,0.2v0c0,0.1-0.1,0.2-0.2,0.2h-1.1c-0.1,0-0.2-0.1-0.2-0.2v0
		C180.2,475.4,180.2,475.4,180.3,475.4z"/>
	<path class="st7" d="M210.5,475.4h1.1c0.1,0,0.2,0.1,0.2,0.2v0c0,0.1-0.1,0.2-0.2,0.2h-1.1c-0.1,0-0.2-0.1-0.2-0.2v0
		C210.3,475.4,210.4,475.4,210.5,475.4z"/>
	<path class="st4" d="M169.3,487.6h21.8c0.6,0,1.1,0.5,1.1,1.1l0,0c0,0.6-0.5,1.1-1.1,1.1h-21.8c-0.6,0-1.1-0.5-1.1-1.1l0,0
		C168.2,488.1,168.7,487.6,169.3,487.6z"/>
	<path class="st4" d="M218.3,461.5c0,1.3-1,2.3-2.3,2.3c-1.3,0-2.3-1-2.3-2.3H218.3z"/>
	<path class="st6" d="M223.6,466.6H223v-6l0,0v-0.1c0,0,0-0.1-0.1-0.1l0,0H213c0,0-0.1,0-0.1,0.1v0v0.9c0,0,0,0.1,0.1,0.1l0,0h8.5
		V489c0,0.1,0.1,0.2,0.2,0.2l0,0h1.1c0.1,0,0.2-0.1,0.2-0.2l0,0v-19.7h0.6L223.6,466.6z"/>
	<rect x="220.5" y="473.5" class="st6" width="1.1" height="2.7"/>
	<path class="st4" d="M103.2,491.1c0.2-3,2.8-5.2,5.7-5c2.7,0.2,4.8,2.3,5,5H103.2z"/>
	<path class="st9" d="M221.8,521.4h13.4c1.3,0,2.3,1,2.3,2.3l0,0c0,1.3-1,2.3-2.3,2.3h-13.4c-1.3,0-2.3-1-2.3-2.3l0,0
		C219.5,522.4,220.5,521.4,221.8,521.4z"/>
	<path class="st4" d="M487.1,501.3c0-1.9,1.6-3.5,3.5-3.5c1.9,0,3.5,1.6,3.5,3.5l0,0H487.1z"/>
	<path class="st4" d="M518.9,521.7c0-1.9,1.6-3.5,3.5-3.5s3.5,1.6,3.5,3.5H518.9z"/>
	<circle class="st4" cx="488.8" cy="511.6" r="1.7"/>
	<line class="st21" x1="463" y1="513.3" x2="484.4" y2="513.3"/>
	<circle class="st4" cx="181.6" cy="508.3" r="2.6"/>
	<line class="st21" x1="199.1" y1="513.3" x2="228.3" y2="513.3"/>
	<path class="st6" d="M282.1,530h17.6c1.8,0,3.2,1.4,3.2,3.2l0,0c0,1.8-1.4,3.2-3.2,3.2h-17.6c-1.8,0-3.2-1.4-3.2-3.2l0,0
		C278.9,531.4,280.3,530,282.1,530z"/>
	<path class="st6" d="M427,532.4h26.6c2.7,0,4.9,2.2,4.9,4.9l0,0c0,2.7-2.2,4.9-4.9,4.9H427c-2.7,0-4.9-2.2-4.9-4.9l0,0
		C422.1,534.6,424.3,532.4,427,532.4z"/>
	<path class="st9" d="M454.4,534.3h12.3c1.6,0,2.9,1.3,2.9,2.9v0c0,1.6-1.3,2.9-2.9,2.9h-12.3c-1.6,0-2.9-1.3-2.9-2.9v0
		C451.5,535.6,452.8,534.3,454.4,534.3z"/>
	<path class="st6" d="M42.9,518.8h26.6c2.7,0,4.9,2.2,4.9,4.9l0,0c0,2.7-2.2,4.9-4.9,4.9H42.9c-2.7,0-4.9-2.2-4.9-4.9l0,0
		C38,521,40.2,518.8,42.9,518.8z"/>
	<path class="st9" d="M73.2,533.4h12.3c1.6,0,2.9,1.3,2.9,2.9v0c0,1.6-1.3,2.9-2.9,2.9H73.2c-1.6,0-2.9-1.3-2.9-2.9v0
		C70.2,534.7,71.6,533.4,73.2,533.4z"/>
	<circle class="st4" cx="86.3" cy="533.2" r="2.6"/>
	<path class="st4" d="M460.5,465.1c0,1.1,0.9,2,2,2c1.1,0,2-0.9,2-2H460.5z"/>
	<path class="st6" d="M455.9,469.5h0.5v-5.2l0,0v-0.1c0,0,0-0.1,0.1-0.1h8.6c0,0,0.1,0,0.1,0.1v0.8c0,0,0,0.1-0.1,0.1h-7.5v24.1
		c0,0.1-0.1,0.1-0.1,0.1h-1c-0.1,0-0.1-0.1-0.1-0.1v-17.2h-0.5L455.9,469.5z"/>
	<rect x="457.6" y="475.5" class="st6" width="1" height="2.4"/>
	
		<linearGradient id="SVGID_8_" gradientUnits="userSpaceOnUse" x1="488.4293" y1="181.3727" x2="488.4293" y2="187.1837" gradientTransform="matrix(1 0 0 -1 0 770)">
		<stop  offset="0" style="stop-color:#FFFFFF"/>
		<stop  offset="1.000000e-02" style="stop-color:#F9F7FB"/>
		<stop  offset="7.000000e-02" style="stop-color:#E1D8ED"/>
		<stop  offset="0.14" style="stop-color:#CDBCE1"/>
		<stop  offset="0.22" style="stop-color:#BCA6D8"/>
		<stop  offset="0.31" style="stop-color:#AF95D0"/>
		<stop  offset="0.42" style="stop-color:#A78ACB"/>
		<stop  offset="0.57" style="stop-color:#A183C8"/>
		<stop  offset="1" style="stop-color:#A081C7"/>
	</linearGradient>
	<path class="st25" d="M474.4,588.6L474.4,588.6c0-3.2,2.6-5.8,5.8-5.8h16.3c3.2,0,5.8,2.6,5.8,5.8H474.4z"/>
	<circle class="st4" cx="477.5" cy="582.8" r="2.6"/>
	
		<linearGradient id="SVGID_9_" gradientUnits="userSpaceOnUse" x1="209.2184" y1="199.6899" x2="209.2184" y2="205.5009" gradientTransform="matrix(1 0 0 -1 0 770)">
		<stop  offset="0" style="stop-color:#FFFFFF"/>
		<stop  offset="1.000000e-02" style="stop-color:#F9F7FB"/>
		<stop  offset="7.000000e-02" style="stop-color:#E1D8ED"/>
		<stop  offset="0.14" style="stop-color:#CDBCE1"/>
		<stop  offset="0.22" style="stop-color:#BCA6D8"/>
		<stop  offset="0.31" style="stop-color:#AF95D0"/>
		<stop  offset="0.42" style="stop-color:#A78ACB"/>
		<stop  offset="0.57" style="stop-color:#A183C8"/>
		<stop  offset="1" style="stop-color:#A081C7"/>
	</linearGradient>
	<path class="st26" d="M195.2,570.3L195.2,570.3c0-3.2,2.6-5.8,5.8-5.8h16.3c3.2,0,5.8,2.6,5.8,5.8H195.2z"/>
	<circle class="st4" cx="147.5" cy="567.1" r="2.6"/>
	
		<linearGradient id="SVGID_10_" gradientUnits="userSpaceOnUse" x1="579.1468" y1="181.3601" x2="579.1468" y2="187.1963" gradientTransform="matrix(1 0 0 -1 0 770)">
		<stop  offset="0" style="stop-color:#FFFFFF"/>
		<stop  offset="9.000000e-02" style="stop-color:#FFF7E1"/>
		<stop  offset="0.26" style="stop-color:#FFEAAC"/>
		<stop  offset="0.43" style="stop-color:#FFDF81"/>
		<stop  offset="0.59" style="stop-color:#FFD75F"/>
		<stop  offset="0.74" style="stop-color:#FFD147"/>
		<stop  offset="0.88" style="stop-color:#FFCD38"/>
		<stop  offset="1" style="stop-color:#FFCC33"/>
	</linearGradient>
	<circle class="st27" cx="579.1" cy="585.7" r="2.9"/>
	<line class="st21" x1="67.5" y1="381.3" x2="67.5" y2="383.1"/>
	<line class="st21" x1="67.5" y1="384.4" x2="67.5" y2="386.2"/>
	<line class="st21" x1="68.4" y1="383.8" x2="70.2" y2="383.8"/>
	<line class="st21" x1="64.9" y1="383.8" x2="66.7" y2="383.8"/>
	<circle class="st4" cx="41.5" cy="371.7" r="2.3"/>
	<line class="st28" x1="603.9" y1="389.2" x2="603.9" y2="391"/>
	<line class="st28" x1="603.9" y1="392.4" x2="603.9" y2="394.2"/>
	<line class="st28" x1="604.8" y1="391.7" x2="606.6" y2="391.7"/>
	<line class="st28" x1="601.3" y1="391.7" x2="603.1" y2="391.7"/>
	<line class="st21" x1="310.3" y1="404.6" x2="310.3" y2="406.3"/>
	<line class="st21" x1="310.3" y1="407.7" x2="310.3" y2="409.5"/>
	<line class="st21" x1="311.2" y1="407.1" x2="312.9" y2="407.1"/>
	<line class="st21" x1="307.6" y1="407.1" x2="309.4" y2="407.1"/>
	<line class="st28" x1="383.5" y1="378" x2="383.5" y2="379.8"/>
	<line class="st28" x1="383.5" y1="381.2" x2="383.5" y2="383"/>
	<line class="st28" x1="384.4" y1="380.5" x2="386.2" y2="380.5"/>
	<line class="st28" x1="380.9" y1="380.5" x2="382.7" y2="380.5"/>
</g>
<g id="icons">
	<path class="st22" d="M842.6,261.3h93.9c0.6,0,1.1,0.5,1.1,1.1v59.7c0,0.6-0.5,1.1-1.1,1.1h-93.9c-0.6,0-1.1-0.5-1.1-1.1v-59.7
		C841.5,261.8,842,261.3,842.6,261.3z"/>
	<path class="st15" d="M850.4,265.9h78.3c0.5,0,0.9,0.4,0.9,0.9v49.8c0,0.5-0.4,0.9-0.9,0.9h-78.3c-0.5,0-0.9-0.4-0.9-0.9v-49.8
		C849.5,266.3,849.9,265.9,850.4,265.9z"/>
	<path class="st6" d="M945.2,321.7v-0.7c0-0.5-0.4-1-1-1h-47l-0.8,1.2h-15.1l-0.6-1.2h-46.4c-0.5,0-0.9,0.4-1,0.9l5,5h102.5
		L945.2,321.7z"/>
	<path class="st7" d="M1073.8,261.4c-0.3,0-0.6,0.1-0.8,0.2v-0.2c0-3.1-2.5-5.6-5.6-5.6c-3.1,0-5.6,2.5-5.6,5.6v7.3h-1.5v-4.2
		c0-0.9-0.7-1.6-1.6-1.6s-1.6,0.7-1.6,1.6v5.7c0,0.9,0.7,1.6,1.6,1.6h3.1v4.9c0,3.1,2.5,5.6,5.6,5.6c3.1,0,5.6-2.5,5.6-5.6v-5.1
		c0.2,0.2,0.5,0.2,0.8,0.2c0.8,0,1.4-0.6,1.4-1.4v-7.6C1075.2,262,1074.5,261.4,1073.8,261.4z"/>
	<rect x="1054.1" y="277.2" class="st15" width="25.5" height="6.9"/>
	<polygon class="st6" points="1073.3,297.2 1059.9,297.2 1055.4,284.1 1078.3,284.1 	"/>
	<path class="st29" d="M1002.3,302.8c2.7,0,5-2,5-4.4c0-2.5-2.2-4.4-5-4.4"/>
	<path class="st8" d="M985,292.8h18.4c0.2,0,0.3,0.1,0.3,0.3v5.4l0,0c-0.1,3.6-2.1,6.9-5.3,8.5h0.1v2.8h-8.5V307h0.1
		c-3.2-1.7-5.2-4.9-5.3-8.5l0,0v-5.4C984.7,292.9,984.8,292.8,985,292.8z"/>
	<path class="st7" d="M998.9,310.2H989c0,0-0.1,0-0.1-0.1v-1.1c0,0,0-0.1,0.1-0.1h9.9c0,0,0.1,0,0.1,0.1L998.9,310.2
		C999,310.2,999,310.2,998.9,310.2z"/>
	<path class="st7" d="M1003.6,293.1h-18.8c0,0-0.1,0-0.1-0.1v-0.5c0,0,0-0.1,0.1-0.1h18.8c0,0,0.1,0,0.1,0.1L1003.6,293.1
		C1003.6,293,1003.6,293.1,1003.6,293.1z"/>
	<line class="st30" x1="728.1" y1="267.9" x2="723" y2="267.9"/>
	<line class="st30" x1="719.1" y1="267.9" x2="714" y2="267.9"/>
	<line class="st30" x1="721" y1="270.1" x2="721" y2="274.7"/>
	<line class="st30" x1="721" y1="261.2" x2="721" y2="265.7"/>
	<circle class="st4" cx="773.4" cy="256.2" r="3.7"/>
	<path class="st15" d="M783.6,277.4H819l0,0v18.2c0,0.9-0.7,1.6-1.6,1.6h-32.2c-0.9,0-1.6-0.7-1.6-1.6L783.6,277.4L783.6,277.4z"/>
	<path class="st6" d="M802.4,290.5l16.6-13.2h-35.4l16.6,13.2C800.8,291,801.7,291,802.4,290.5z"/>
	<line class="st31" x1="795" y1="286.5" x2="784" y2="296.7"/>
	<line class="st31" x1="807.4" y1="286.5" x2="818.4" y2="296.7"/>
	<path class="st17" d="M732.2,255.2L732.2,255.2c-0.9,0-1.7-0.8-1.7-1.7v-15.7c0-0.9,0.8-1.7,1.7-1.7l0,0c0.9,0,1.7,0.8,1.7,1.7
		v15.7C733.9,254.4,733.1,255.2,732.2,255.2z"/>
	<path class="st4" d="M1029.5,317L1029.5,317c0,1-0.8,1.8-1.8,1.8H1015c-1,0-1.8-0.8-1.8-1.8v0c0-1,0.8-1.8,1.8-1.8h12.7
		C1028.7,315.2,1029.5,316,1029.5,317z"/>
	<circle class="st4" cx="1194.9" cy="320" r="4.7"/>
	<path class="st7" d="M1130,258.4h8c0.8,0,1.5,0.7,1.5,1.5V317c0,0.8-0.7,1.5-1.5,1.5h-8c-0.8,0-1.5-0.7-1.5-1.5v-57.2
		C1128.5,259,1129.1,258.4,1130,258.4z"/>
	<rect x="1128.5" y="270.6" class="st15" width="11" height="3.5"/>
	<path class="st9" d="M1118.9,262.3h8.1c0.8,0,1.4,0.6,1.4,1.4v53.4c0,0.8-0.6,1.4-1.4,1.4h-8.1c-0.8,0-1.4-0.6-1.4-1.4v-53.4
		C1117.5,262.9,1118.2,262.3,1118.9,262.3z"/>
	<rect x="1117.5" y="308.3" class="st16" width="11" height="5.2"/>
	<rect x="1117.5" y="305.1" class="st16" width="11" height="1.8"/>
	<rect x="1117.5" y="269.7" class="st16" width="11" height="1.8"/>
	<path class="st16" d="M1102.5,265.4l6.5,0.8c0.7,0.1,1.2,0.7,1.1,1.4l-6.3,49.8c-0.1,0.7-0.7,1.2-1.4,1.1l-6.5-0.8
		c-0.7-0.1-1.2-0.7-1.1-1.4l6.3-49.8C1101.2,265.8,1101.8,265.3,1102.5,265.4z"/>
	
		<rect x="1103.1" y="268.6" transform="matrix(0.1264 -0.992 0.992 0.1264 694.2139 1334.5953)" class="st22" width="3.3" height="9.1"/>
	
		<rect x="1103.9" y="271.3" transform="matrix(0.1264 -0.992 0.992 0.1264 691.1933 1336.6371)" class="st22" width="1.2" height="9.1"/>
	<path class="st7" d="M1110.6,270.6h5.8c0.6,0,1.1,0.5,1.1,1.1v45.6c0,0.6-0.5,1.1-1.1,1.1h-5.8c-0.6,0-1.1-0.5-1.1-1.1v-45.6
		C1109.5,271.1,1110,270.6,1110.6,270.6z"/>
	<rect x="1109.5" y="312.9" class="st15" width="8" height="1.3"/>
	<rect x="1109.5" y="274.9" class="st15" width="8" height="2.1"/>
	<line class="st32" x1="1137.2" y1="295.4" x2="1184" y2="295.4"/>
	<path class="st6" d="M968,269.3l-0.3,0.2c-2.6,2.1-3.3,5.8-1.7,8.8c-0.1,0-0.1,0-0.2,0.1l-7.7,6.2c-0.2,0.1-0.2,0.4-0.1,0.6
		c0,0,0,0,0,0l1.1,1.4c0.1,0.2,0.4,0.2,0.6,0.1c0,0,0,0,0,0l7.7-6.2c0,0,0.1-0.1,0.1-0.1c2.6,2.4,6.5,2.5,9.2,0.3l0.3-0.2
		c3-2.4,3.5-6.8,1-9.9l-0.2-0.3C975.4,267.3,971,266.9,968,269.3z"/>
	<path class="st33" d="M976,279.2l-0.2,0.2c-2.3,1.9-5.7,1.5-7.6-0.8l-0.2-0.2c-1.9-2.3-1.5-5.7,0.8-7.6l0.2-0.2
		c2.3-1.9,5.7-1.5,7.6,0.8l0.2,0.2C978.6,273.9,978.3,277.3,976,279.2z"/>
	<path class="st15" d="M965.6,282.3l-3.9,3.2c-0.1,0.1-0.4,0.1-0.5,0l-1.6-2c-0.1-0.1-0.1-0.4,0-0.5l3.9-3.2c0.1-0.1,0.4-0.1,0.5,0
		l1.6,2C965.7,282,965.7,282.2,965.6,282.3z"/>
	<polyline class="st34" points="751.3,276.6 751.3,287 788.2,287 	"/>
	<line class="st35" x1="1238.8" y1="258.2" x2="1233.5" y2="258.2"/>
	<line class="st35" x1="1229.5" y1="258.2" x2="1224.3" y2="258.2"/>
	<line class="st35" x1="1231.5" y1="260.5" x2="1231.5" y2="265"/>
	<line class="st35" x1="1231.5" y1="251.5" x2="1231.5" y2="256.1"/>
	<path class="st17" d="M1214,310.8L1214,310.8c-0.8,0-1.5-0.7-1.5-1.5v-20c0-0.8,0.7-1.5,1.5-1.5l0,0c0.8,0,1.5,0.7,1.5,1.5v20
		C1215.5,310.1,1214.8,310.8,1214,310.8z"/>
	<polyline class="st36" points="973.4,260.8 973.4,249.1 1038.2,249.1 	"/>
</g>
<path class="st37" d="M705.8,58.2c0.2-0.3,0.3-0.6,0.5-0.9"/>
<g id="icons_1_">
	<path class="st6" d="M834.1,475.5c-0.1,0.5-0.6,0.9-1.1,0.8c-0.4-0.1-0.8-0.4-0.8-0.8H809v33.3h23.1c0.1-0.5,0.6-0.9,1.1-0.8
		c0.4,0.1,0.8,0.4,0.8,0.8h23.1v-33.3H834.1z"/>
	<path class="st15" d="M833.4,472.8c0,0.5-0.4,0.9-0.9,0.9s-0.9-0.4-0.9-0.9h-20.2v33.3h20.2c0-0.5,0.4-0.9,0.9-0.9s0.9,0.4,0.9,0.9
		h20.2v-33.3H833.4z"/>
	<line class="st38" x1="832.5" y1="474.7" x2="832.5" y2="504"/>
	<line class="st39" x1="836" y1="475.8" x2="849.7" y2="475.8"/>
	<line class="st39" x1="836" y1="477.9" x2="849.7" y2="477.9"/>
	<line class="st39" x1="814.6" y1="475.8" x2="828.3" y2="475.8"/>
	<line class="st39" x1="814.6" y1="477.9" x2="828.3" y2="477.9"/>
	<line class="st39" x1="814.6" y1="481.6" x2="828.3" y2="481.6"/>
	<line class="st39" x1="814.6" y1="483.7" x2="828.3" y2="483.7"/>
	<line class="st39" x1="814.6" y1="485.8" x2="828.3" y2="485.8"/>
	<line class="st39" x1="814.6" y1="487.8" x2="828.3" y2="487.8"/>
	<line class="st39" x1="843.4" y1="480.9" x2="849.7" y2="480.9"/>
	<line class="st40" x1="711.7" y1="478.8" x2="712.5" y2="478.8"/>
	<line class="st41" x1="714" y1="478.8" x2="773.4" y2="478.8"/>
	<line class="st40" x1="774.1" y1="478.8" x2="774.9" y2="478.8"/>
	<polyline class="st42" points="764,488.2 764,499.9 822.9,499.9 	"/>
	<circle class="st4" cx="759.3" cy="439.7" r="3.2"/>
	<path class="st15" d="M778.2,445.3L778.2,445.3c0.6,0,1.1,0.5,1.1,1.1v17.8c0,0.6-0.5,1.1-1.1,1.1l0,0c-0.6,0-1.1-0.5-1.1-1.1
		v-17.8C777.1,445.8,777.6,445.3,778.2,445.3z"/>
	<line class="st43" x1="743.2" y1="458.1" x2="743.2" y2="463.3"/>
	<line class="st43" x1="743.2" y1="467.3" x2="743.2" y2="472.5"/>
	<line class="st43" x1="745.8" y1="465.4" x2="751.1" y2="465.4"/>
	<line class="st43" x1="735.6" y1="465.4" x2="740.8" y2="465.4"/>
	<path class="st15" d="M1012.9,472.2h16.5c0.7,0,1.2,0.5,1.2,1.2v10.9c0,0.7-0.5,1.2-1.2,1.2h-2l-3,3.4c-0.1,0.1-0.3,0.1-0.4,0
		c0,0-0.1-0.1-0.1-0.2l-0.9-3.3h-10.2c-0.7,0-1.2-0.5-1.2-1.2v-10.9C1011.7,472.7,1012.3,472.2,1012.9,472.2z"/>
	<line class="st44" x1="1014.9" y1="476.8" x2="1027.5" y2="476.8"/>
	<line class="st44" x1="1014.9" y1="480.1" x2="1027.5" y2="480.1"/>
	<path class="st22" d="M1085.1,462.5h74.9c1.4,0,2.6,1.1,2.6,2.6v49.4c0,1.4-1.1,2.6-2.6,2.6h-74.9c-1.4,0-2.6-1.1-2.6-2.6v-49.4
		C1082.6,463.6,1083.7,462.5,1085.1,462.5z"/>
	<rect x="1096.6" y="483.3" class="st15" width="6.7" height="6.7"/>
	<rect x="1112" y="483.3" class="st4" width="6.7" height="6.7"/>
	<rect x="1127.4" y="483.3" class="st15" width="6.7" height="6.7"/>
	<rect x="1142.9" y="483.3" class="st15" width="6.7" height="6.7"/>
	<rect x="1096.6" y="496.2" class="st15" width="6.7" height="6.7"/>
	<rect x="1112" y="496.2" class="st15" width="6.7" height="6.7"/>
	<rect x="1127.4" y="496.2" class="st15" width="6.7" height="6.7"/>
	<rect x="1142.9" y="496.2" class="st4" width="6.7" height="6.7"/>
	<path class="st6" d="M1083.1,462.5h78.8c0.3,0,0.6,0.3,0.6,0.6v12.6c0,0.3-0.3,0.6-0.6,0.6h-78.8c-0.3,0-0.6-0.3-0.6-0.6v-12.6
		C1082.6,462.7,1082.8,462.5,1083.1,462.5z"/>
	
		<ellipse transform="matrix(8.263418e-02 -0.9966 0.9966 8.263418e-02 596.3739 1581.9679)" class="st6" cx="1157.5" cy="467" rx="13.4" ry="13.4"/>
	<circle class="st15" cx="1157.5" cy="467.1" r="10.9"/>
	<polyline class="st45" points="1162,463.9 1155.6,470.4 1153.3,467.4 	"/>
	<line class="st46" x1="1170.9" y1="483.3" x2="1201.9" y2="483.3"/>
	<path class="st17" d="M1116.3,526.7L1116.3,526.7c0,0.8-0.6,1.4-1.4,1.4h-20.7c-0.8,0-1.4-0.6-1.4-1.4l0,0c0-0.8,0.6-1.4,1.4-1.4
		h20.7C1115.7,525.3,1116.3,525.9,1116.3,526.7z"/>
	<path class="st2" d="M828.5,525.4L828.5,525.4c0,1.2-1,2.1-2.1,2.1h-21.9c-1.2,0-2.1-1-2.1-2.1v0c0-1.2,1-2.1,2.1-2.1h21.9
		C827.6,523.3,828.5,524.2,828.5,525.4z"/>
	<path class="st7" d="M989.4,503.2v9.5c0,0.4-0.3,0.7-0.7,0.7h-15c-0.4,0-0.7-0.3-0.7-0.7v-9.5c0-0.4,0.3-0.7,0.7-0.7h15
		C989.1,502.5,989.4,502.8,989.4,503.2z"/>
	<circle class="st47" cx="985.8" cy="511.5" r="0.7"/>
	<polygon class="st15" points="1001.4,487.1 1000,495.1 1002.8,495 	"/>
	<polygon class="st16" points="1001.4,487.1 1001.1,488.9 1001.7,488.9 	"/>
	<polygon class="st48" points="1000,495.1 1002.8,495 1002.5,521.9 999.8,522 	"/>
	<polygon class="st16" points="1000,495.1 1000.4,495 1000.2,522 999.8,522 	"/>
	<polygon class="st16" points="1001.1,495 1001.6,495 1001.4,522 1000.9,522 	"/>
	<polygon class="st16" points="1002.3,495 1002.8,495 1002.5,521.9 1002.1,521.9 	"/>
	<polygon class="st15" points="999.7,521.8 1002.5,521.8 1002.6,525.9 999.7,525.9 	"/>
	<path class="st7" d="M1002.6,525.9c0,0.8-0.6,1.4-1.4,1.4c-0.8,0-1.4-0.6-1.4-1.4l0,0H1002.6z"/>
	<path class="st15" d="M1008.2,512c0,0,0-0.1,0-0.1s0-0.1,0-0.1c0-0.7-0.5-1.3-1.2-1.4h-0.1h0.6c0.8,0.1,1.5-0.5,1.5-1.3
		s-0.5-1.5-1.3-1.5c-0.1,0-0.1,0-0.2,0h1.6c0.8,0,1.5-0.7,1.5-1.5c0-0.8-0.7-1.5-1.5-1.5h-1.7c0.8,0,1.5-0.7,1.5-1.5
		c0-0.8-0.7-1.5-1.5-1.5h-3.8c0.9-0.1,1.6-0.9,1.6-1.8c-0.1-0.8-0.7-1.5-1.6-1.6h-5.5c-0.6,0-1.1,0.3-1.4,0.8l0,0l-4.3,4.8h-3.2v8.5
		h4.1l1.5,0.7c0.2,0.2,0.4,0.3,0.6,0.4c0.3,0.4,0.8,0.6,1.3,0.6h9.6c1,0.1,1.8-0.7,1.8-1.7C1008.2,512.1,1008.2,512.1,1008.2,512z"
		/>
	<path class="st16" d="M990.2,501.9v12.1c0,0.2-0.1,0.3-0.3,0.3h-1.6c-0.2,0-0.3-0.1-0.3-0.3v-12.1c0-0.2,0.1-0.3,0.3-0.3h1.6
		C990.1,501.6,990.2,501.7,990.2,501.9z"/>
	<polygon class="st8" points="932.2,487.7 932.2,507.2 912.5,507.2 912.5,484.6 929.1,484.6 	"/>
	<polygon class="st7" points="929.1,484.6 929.1,487.7 932.2,487.7 	"/>
	<line class="st49" x1="916.2" y1="487.7" x2="923.8" y2="487.7"/>
	<line class="st49" x1="916.2" y1="488.9" x2="923.8" y2="488.9"/>
	<line class="st49" x1="916.2" y1="490.1" x2="923.8" y2="490.1"/>
	<line class="st49" x1="916.2" y1="494" x2="927.4" y2="494"/>
	<line class="st49" x1="916.2" y1="495.3" x2="927.4" y2="495.3"/>
	<path class="st15" d="M886.4,516.5L886.4,516.5c-0.1-3.6-3.1-6.5-6.8-6.4c-3.3,0.1-6,2.6-6.4,5.9h0c-2.1,0-3.7,1.7-3.8,3.7
		c0,2.1,1.7,3.7,3.7,3.8c0,0,0,0,0,0h13.2c1.9,0,3.5-1.6,3.5-3.5C889.9,518.1,888.4,516.5,886.4,516.5L886.4,516.5z"/>
	<line class="st50" x1="882.6" y1="517.7" x2="883.3" y2="517.7"/>
	<line class="st51" x1="884.9" y1="517.7" x2="903.3" y2="517.7"/>
	<line class="st50" x1="904.1" y1="517.7" x2="904.9" y2="517.7"/>
	<line class="st43" x1="1237.1" y1="445.5" x2="1237.1" y2="449.5"/>
	<line class="st43" x1="1237.1" y1="452.5" x2="1237.1" y2="456.4"/>
	<line class="st43" x1="1239.1" y1="451" x2="1243" y2="451"/>
	<line class="st43" x1="1231.3" y1="451" x2="1235.2" y2="451"/>
	<circle class="st4" cx="1207.5" cy="468.4" r="2.8"/>
	<path class="st4" d="M949.3,484.8L949.3,484.8c-1,0-1.8-0.8-1.8-1.8v-12.5c0-1,0.8-1.8,1.8-1.8h0c1,0,1.8,0.8,1.8,1.8v12.5
		C951.1,484,950.3,484.8,949.3,484.8z"/>
	<circle class="st4" cx="969.4" cy="526.6" r="3.2"/>
	<line class="st50" x1="1091.4" y1="504.6" x2="1090.6" y2="504.6"/>
	<line class="st52" x1="1089.1" y1="504.6" x2="1042.1" y2="504.6"/>
	<polyline class="st50" points="1041.4,504.6 1040.6,504.6 1040.6,503.8 	"/>
	<line class="st53" x1="1040.6" y1="502.6" x2="1040.6" y2="498.4"/>
	<line class="st50" x1="1040.6" y1="497.8" x2="1040.6" y2="497"/>
</g>
<g>
	<path class="st54" d="M756.8-8.3c-0.4,0.1-0.8,0.2-1.2,0.2"/>
	<path class="st55" d="M753.1-7.8c-10.8,0.3-19.8-8.2-20.1-19c-0.1-2.8,0.5-5.7,1.6-8.3"/>
	<line class="st56" x1="741.6" y1="156.2" x2="741.6" y2="160.5"/>
	<line class="st56" x1="741.6" y1="163.8" x2="741.6" y2="168.1"/>
	<line class="st56" x1="743.8" y1="162.2" x2="748.1" y2="162.2"/>
	<line class="st56" x1="735.3" y1="162.2" x2="739.6" y2="162.2"/>
	<path class="st56" d="M763.5,164c-0.1-0.4-0.1-0.8-0.1-1.2"/>
	<path class="st57" d="M1047.1,88.1c0,4.4-3.7,9.5-8.3,9.5c-4.6,0-8.3-5.1-8.3-9.5c0.2-4.6,4.1-8.2,8.7-7.9
		C1043.5,80.4,1046.9,83.8,1047.1,88.1L1047.1,88.1z"/>
	<path class="st58" d="M1035.6,96.7h6.2c0.1,0,0.2,0.1,0.2,0.2c0,0,0,0,0,0v1.5l0,0h-6.6l0,0V97
		C1035.4,96.9,1035.5,96.8,1035.6,96.7C1035.6,96.7,1035.6,96.7,1035.6,96.7z"/>
	<rect x="1035.5" y="98.3" class="st59" width="6.6" height="1.6"/>
	<path class="st59" d="M1040.4,102.9h-3.1c-0.1,0-0.3-0.1-0.4-0.2l-1.4-1.4h6.6l-1.4,1.4C1040.6,102.9,1040.5,102.9,1040.4,102.9z"
		/>
	<rect x="1035.5" y="99.9" class="st58" width="6.6" height="1.5"/>
	<path class="st60" d="M1035.7,88.9c0.5-0.6,1.5-0.6,2-0.1c0,0,0,0,0.1,0.1c0.5,0.6,1.3,0.6,1.9,0.1c0,0,0.1-0.1,0.1-0.1
		c0.5-0.4,1.3-0.4,1.8,0"/>
	<path class="st61" d="M1040.1,89.2h-2.8c-0.2,0-0.4,0.2-0.4,0.4c0,0,0,0.1,0,0.1l1.2,3.8v3.3h1.1v-3.3l1.2-3.8
		c0.1-0.2,0-0.4-0.2-0.5C1040.2,89.2,1040.2,89.1,1040.1,89.2z"/>
	<line class="st62" x1="1027.6" y1="76.2" x2="1031.2" y2="80.1"/>
	<line class="st62" x1="1046.2" y1="79.7" x2="1049.8" y2="75.8"/>
	<line class="st62" x1="1038.4" y1="72.1" x2="1038.4" y2="77.5"/>
	
		<ellipse transform="matrix(0.9959 -9.028493e-02 9.028493e-02 0.9959 -0.9181 69.7489)" class="st4" cx="770.5" cy="45" rx="4.7" ry="4.7"/>
	<line class="st63" x1="791.7" y1="61" x2="791.7" y2="70.4"/>
	<line class="st63" x1="791.7" y1="77.5" x2="791.7" y2="86.9"/>
	<line class="st63" x1="796.4" y1="74.1" x2="805.7" y2="74.1"/>
	<line class="st63" x1="777.9" y1="74.1" x2="787.3" y2="74.1"/>
	<line class="st63" x1="1175.5" y1="118" x2="1175.5" y2="125.5"/>
	<line class="st63" x1="1175.5" y1="131.2" x2="1175.5" y2="138.7"/>
	<line class="st63" x1="1179.3" y1="128.4" x2="1186.7" y2="128.4"/>
	<line class="st63" x1="1164.5" y1="128.4" x2="1172" y2="128.4"/>
	<rect x="820.1" y="69.4" class="st15" width="111" height="64.3"/>
	<rect x="820.1" y="64.1" class="st64" width="111" height="7"/>
	<line class="st65" x1="876.8" y1="134.4" x2="876.8" y2="145.7"/>
	<rect x="820.1" y="131.7" class="st64" width="111" height="5.5"/>
	<circle class="st65" cx="876.8" cy="149.2" r="3.2"/>
	<line class="st66" x1="842.1" y1="91.8" x2="873.6" y2="91.8"/>
	<line class="st66" x1="842.1" y1="95.5" x2="873.6" y2="95.5"/>
	<line class="st66" x1="842.1" y1="99.1" x2="873.6" y2="99.1"/>
	<line class="st66" x1="837.2" y1="85.8" x2="849.6" y2="85.8"/>
	<path class="st61" d="M901.7,109.2v-8.8c-4.8,0-8.7,3.9-8.7,8.7c0,4.8,3.9,8.7,8.7,8.7c4.8,0,8.7-3.9,8.7-8.7L901.7,109.2z"/>
	<path class="st67" d="M911.5,107.8c0,0-0.2-8.4-8.6-8.6v8.8L911.5,107.8z"/>
	<polyline class="st68" points="961.3,150.6 961.3,141.5 972.5,129.4 	"/>
	<circle class="st67" cx="972.5" cy="129.1" r="3.1"/>
	<circle class="st69" cx="987.9" cy="122.1" r="10.9"/>
	<path class="st69" d="M966.2,153.2v-7.1c0-5.5,6.3-10.9,11.8-10.9h19.9c5.5,0,11.8,5.4,11.8,10.9v7.1H966.2z"/>
	<rect x="954.5" y="152.7" class="st64" width="66.8" height="6.6"/>
	<rect x="958.1" y="149" class="st67" width="14.4" height="3.7"/>
	<rect x="1001.6" y="150.9" class="st58" width="16.8" height="1.7"/>
	<circle class="st70" cx="1128.3" cy="81.3" r="11.9"/>
	<circle class="st67" cx="1128.3" cy="81.3" r="10.7"/>
	<circle class="st67" cx="1065.3" cy="146.3" r="19.9"/>
	<circle class="st57" cx="1065.3" cy="146.3" r="17.9"/>
	<circle class="st58" cx="1147.4" cy="145.5" r="7.2"/>
	<circle class="st67" cx="1147.4" cy="145.5" r="6.4"/>
	<circle class="st67" cx="1147.4" cy="145.5" r="6.4"/>
	<line class="st62" x1="1081.2" y1="128.4" x2="1116.4" y2="93.2"/>
	<line class="st62" x1="1090.7" y1="146.3" x2="1133.3" y2="146.3"/>
	<g>
		<defs>
			<circle id="SVGID_11_" cx="1065.3" cy="146.6" r="17.8"/>
		</defs>
		<clipPath id="SVGID_12_">
			<use xlink:href="#SVGID_11_"  style="overflow:visible;"/>
		</clipPath>
		<g class="st71">
			<circle class="st61" cx="1065.3" cy="142.6" r="7.6"/>
			<path class="st61" d="M1050,164.4v-4.9c0-3.9,4.4-7.7,8.3-7.7h14c3.9,0,8.3,3.8,8.3,7.7v5L1050,164.4z"/>
		</g>
	</g>
	<g>
		<defs>
			<circle id="SVGID_13_" cx="1128.2" cy="81.4" r="10.8"/>
		</defs>
		<clipPath id="SVGID_14_">
			<use xlink:href="#SVGID_13_"  style="overflow:visible;"/>
		</clipPath>
		<g class="st72">
			<circle class="st61" cx="1128.2" cy="78.9" r="4.6"/>
			<path class="st61" d="M1119,92.1v-3c0.4-2.5,2.4-4.5,5-4.6h8.4c2.6,0.2,4.6,2.1,5,4.6v3H1119z"/>
		</g>
	</g>
	<g>
		<defs>
			<circle id="SVGID_15_" cx="1147.4" cy="145.5" r="6.4"/>
		</defs>
		<clipPath id="SVGID_16_">
			<use xlink:href="#SVGID_15_"  style="overflow:visible;"/>
		</clipPath>
		<g class="st73">
			<circle class="st61" cx="1147.4" cy="144" r="2.8"/>
			<path class="st61" d="M1141.9,151.9v-1.8c0.2-1.5,1.5-2.7,3-2.8h5c1.5,0.1,2.8,1.2,3,2.8v1.8H1141.9z"/>
		</g>
	</g>
	
		<ellipse transform="matrix(0.9959 -9.028497e-02 9.028497e-02 0.9959 -3.617 107.8502)" class="st4" cx="1190.3" cy="93.9" rx="4.7" ry="4.7"/>
	<line class="st74" x1="925.2" y1="79.7" x2="927" y2="79.7"/>
	<line class="st75" x1="930.5" y1="79.7" x2="985.1" y2="79.7"/>
	<polyline class="st74" points="986.8,79.7 988.6,79.7 988.6,81.5 	"/>
	<line class="st76" x1="988.6" y1="85.4" x2="988.6" y2="91.2"/>
	<line class="st74" x1="988.6" y1="93.2" x2="988.6" y2="95"/>
	<line class="st77" x1="768.6" y1="111.1" x2="797.3" y2="111.1"/>
	<path class="st4" d="M926,168.1L926,168.1c0,1.4-1.1,2.5-2.5,2.5h-17.6c-1.4,0-2.5-1.1-2.5-2.5v0c0-1.4,1.1-2.5,2.5-2.5h17.6
		C924.9,165.7,926,166.8,926,168.1z"/>
</g>
<polyline class="st78" points="1303,577.2 1303,768 0,768 0,577.2 "/>
<g>
	<g>
		<path class="st2" d="M704.6,634.8H757c0.5,0,0.9,0.4,0.9,0.9v69.5c0,0.5-0.4,0.9-0.9,0.9h-52.3c-0.5,0-0.9-0.4-0.9-0.9v-69.5
			C703.8,635.2,704.2,634.8,704.6,634.8z"/>
		<path class="st79" d="M707.3,638.4h47.1c0.4,0,0.8,0.4,0.8,0.8v62.5c0,0.4-0.4,0.8-0.8,0.8h-47.1c-0.4,0-0.8-0.4-0.8-0.8v-62.5
			C706.5,638.7,706.8,638.4,707.3,638.4z"/>
		<path class="st7" d="M718.7,633.3h24.2c0.3,0,0.6,0.3,0.6,0.6v5.3c0,0.3-0.3,0.6-0.6,0.6h-24.2c-0.3,0-0.6-0.3-0.6-0.6v-5.3
			C718.1,633.6,718.4,633.3,718.7,633.3z"/>
		<path class="st80" d="M715.6,654.5h6.3c0.3,0,0.6,0.3,0.6,0.6v6.3c0,0.3-0.3,0.6-0.6,0.6h-6.3c-0.3,0-0.6-0.3-0.6-0.6V655
			C715,654.7,715.3,654.5,715.6,654.5z"/>
		<path class="st80" d="M715.6,668.5h6.3c0.3,0,0.6,0.3,0.6,0.6v6.3c0,0.3-0.3,0.6-0.6,0.6h-6.3c-0.3,0-0.6-0.3-0.6-0.6V669
			C715,668.7,715.3,668.5,715.6,668.5z"/>
		<path class="st80" d="M715.6,683.1h6.3c0.3,0,0.6,0.3,0.6,0.6v6.3c0,0.3-0.3,0.6-0.6,0.6h-6.3c-0.3,0-0.6-0.3-0.6-0.6v-6.3
			C715,683.3,715.3,683.1,715.6,683.1z"/>
		<line class="st81" x1="726.3" y1="656" x2="745.9" y2="656"/>
		<line class="st81" x1="726.3" y1="658.7" x2="745.9" y2="658.7"/>
		<line class="st81" x1="726.3" y1="684.7" x2="745.9" y2="684.7"/>
		<line class="st81" x1="726.3" y1="687.4" x2="745.9" y2="687.4"/>
		<line class="st81" x1="726.3" y1="669.7" x2="745.9" y2="669.7"/>
		<line class="st81" x1="726.3" y1="672.5" x2="736.3" y2="672.5"/>
		<polyline class="st82" points="724.2,655.1 719,659.7 718.4,658.7 717.7,657.3 		"/>
		<polyline class="st82" points="724.2,669.1 719,673.7 718.4,672.6 717.7,671.2 		"/>
		<polygon class="st22" points="746.2,679.5 751.4,688.7 754.2,686.2 		"/>
		<polygon class="st2" points="746.2,679.5 747.4,681.6 748.1,681.1 		"/>
		<polygon class="st7" points="751.4,688.7 754.2,686.2 776.6,713.3 773.9,715.7 		"/>
		<polygon class="st2" points="751.4,688.7 751.9,688.3 774.3,715.3 773.9,715.7 		"/>
		<polygon class="st2" points="752.6,687.6 753,687.3 775.5,714.3 775,714.7 		"/>
		<polygon class="st2" points="753.7,686.6 754.2,686.2 776.6,713.3 776.2,713.7 		"/>
		<polygon class="st47" points="773.7,715.6 776.5,713.2 779.9,717.2 777.1,719.6 		"/>
		<path class="st7" d="M779.9,717.2c0.7,0.8,0.6,2-0.2,2.6c-0.8,0.7-2,0.6-2.6-0.2l0,0L779.9,717.2z"/>
		<path class="st16" d="M695.1,625.7h-23.7c-1,0-1.7,0.8-1.7,1.7v15.7c0,1,0.8,1.8,1.7,1.8c0,0,0,0,0,0h2.8l4.3,4.9
			c0.2,0.2,0.4,0.2,0.6,0c0.1-0.1,0.1-0.1,0.1-0.2l1.2-4.7h14.6c1,0,1.7-0.8,1.7-1.7v-15.7C696.8,626.5,696.1,625.7,695.1,625.7z"/>
		<line class="st83" x1="692.3" y1="632.4" x2="674.2" y2="632.4"/>
		<line class="st83" x1="692.3" y1="637.2" x2="674.2" y2="637.2"/>
		<line class="st84" x1="787.4" y1="694" x2="813.9" y2="694"/>
		<line class="st84" x1="826.4" y1="677.3" x2="826.4" y2="681.6"/>
		<line class="st84" x1="826.4" y1="684.8" x2="826.4" y2="689.1"/>
		<line class="st84" x1="828.5" y1="683.3" x2="832.8" y2="683.3"/>
		<line class="st84" x1="820.1" y1="683.3" x2="824.4" y2="683.3"/>
		<path class="st6" d="M803.1,654.8h-23.3v-1.5c0-0.2-0.2-0.4-0.4-0.4h-5.7c-0.2,0-0.4,0.2-0.4,0.4v1.5h-2.3c-0.2,0-0.4,0.2-0.4,0.3
			l0,0V674c0,0.2,0.2,0.3,0.4,0.3l0,0h32.2c0.2,0,0.3-0.2,0.3-0.3c0,0,0,0,0,0v-18.9C803.5,654.9,803.3,654.8,803.1,654.8
			L803.1,654.8z"/>
		<path class="st9" d="M769.4,656.5h35.1c0.2,0,0.4,0.2,0.4,0.4v23.8c0,0.2-0.2,0.4-0.4,0.4h-35.1c-0.2,0-0.4-0.2-0.4-0.4v-23.8
			C769.1,656.6,769.2,656.5,769.4,656.5z"/>
		<path class="st37" d="M806.6,646.8c0.3-0.2,0.6-0.3,0.9-0.4"/>
		<path class="st85" d="M809.3,645.8c7.8-2.2,15.9,2.4,18.1,10.2c0.6,2,0.7,4.1,0.4,6.1"/>
		<path class="st37" d="M827.6,663c-0.1,0.3-0.2,0.7-0.2,1"/>
	</g>
	<g>
		<path class="st6" d="M937.2,643.3h90.7c0.6,0,1,0.5,1,1V702c0,0.6-0.5,1-1,1h-90.7c-0.6,0-1-0.5-1-1v-57.7
			C936.2,643.7,936.7,643.3,937.2,643.3z"/>
		<path class="st33" d="M940.7,645.5h83.8c0.5,0,0.9,0.4,0.9,0.9v53.3c0,0.5-0.4,0.9-0.9,0.9h-83.8c-0.5,0-0.9-0.4-0.9-0.9v-53.3
			C939.8,645.9,940.2,645.5,940.7,645.5z"/>
		<path class="st2" d="M1041.8,700.6v-0.7c0-0.6-0.4-1-1-1h-50.3l-0.8,1.3h-16.2l-0.7-1.3h-49.7c-0.6,0-1,0.4-1,1l5.4,5.4h109.7
			L1041.8,700.6z"/>
		<line class="st84" x1="1075.1" y1="637.3" x2="1095.8" y2="637.3"/>
		<path class="st2" d="M1067.3,648.7c0,0.6-0.4,1-1,1c-0.6,0-1-0.4-1-1h-23.6v33.9h23.6c0-0.6,0.4-1,1-1s1,0.4,1,1h23.6v-33.9
			H1067.3z"/>
		<path class="st79" d="M1066.6,645.9c0,0.5-0.4,0.9-0.9,0.9c-0.5,0-0.9-0.4-0.9-0.9c0,0,0,0,0,0h-20.6v33.9h20.6
			c0-0.5,0.4-0.9,0.9-0.9c0.5,0,0.9,0.4,0.9,0.9c0,0,0,0,0,0h20.6v-33.9L1066.6,645.9z"/>
		<line class="st86" x1="1065.7" y1="647.9" x2="1065.7" y2="677.7"/>
		<line class="st87" x1="1069.2" y1="648.7" x2="1083.2" y2="648.7"/>
		<line class="st87" x1="1069.2" y1="650.8" x2="1083.2" y2="650.8"/>
		<line class="st87" x1="1069.2" y1="652.9" x2="1083.2" y2="652.9"/>
		<line class="st87" x1="1069.2" y1="655" x2="1083.2" y2="655"/>
		<line class="st87" x1="1047.4" y1="650.8" x2="1061.4" y2="650.8"/>
		<line class="st87" x1="1047.4" y1="652.9" x2="1061.4" y2="652.9"/>
		<line class="st87" x1="1047.4" y1="655" x2="1061.4" y2="655"/>
		<line class="st87" x1="1047.4" y1="658.8" x2="1061.4" y2="658.8"/>
		<line class="st87" x1="1047.4" y1="661" x2="1061.4" y2="661"/>
		<line class="st87" x1="1047.4" y1="663.1" x2="1061.4" y2="663.1"/>
		<line class="st87" x1="1047.4" y1="665.2" x2="1061.4" y2="665.2"/>
		<line class="st87" x1="1076.8" y1="658.1" x2="1083.2" y2="658.1"/>
		<polyline class="st84" points="1012.9,661.3 1012.9,673.6 1056.8,673.6 		"/>
		<path class="st84" d="M1076.6,689.5c0,0.3,0.1,0.7,0.1,1"/>
		<path class="st88" d="M1076.7,692.6c-0.5,10.9-9.8,19.3-20.7,18.7c-3.2-0.2-6.4-1.1-9.2-2.8"/>
		<path class="st84" d="M1046,708c-0.3-0.2-0.5-0.4-0.8-0.6"/>
		<path class="st47" d="M924.7,662.9c0,5-4.3,10.9-9.5,10.9c-5.3,0-9.5-5.8-9.5-10.9c0.3-5.3,4.8-9.3,10.1-9
			C920.6,654.2,924.5,658.1,924.7,662.9L924.7,662.9z"/>
		<path class="st6" d="M911.6,672.8h7.1c0.1,0,0.2,0.1,0.2,0.2v1.6l0,0h-7.5l0,0V673C911.4,672.9,911.5,672.8,911.6,672.8
			C911.6,672.8,911.6,672.8,911.6,672.8z"/>
		<rect x="911.5" y="674.6" class="st19" width="7.5" height="1.8"/>
		<path class="st19" d="M917,679.9h-3.5c-0.2,0-0.3-0.1-0.4-0.2l-1.6-1.6h7.5l-1.6,1.6C917.3,679.8,917.2,679.9,917,679.9z"/>
		<rect x="911.5" y="676.4" class="st6" width="7.5" height="1.7"/>
		<path class="st89" d="M911.7,663.8c0.6-0.7,1.7-0.7,2.3-0.1c0,0,0.1,0.1,0.1,0.1c0.6,0.6,1.5,0.7,2.2,0.1c0.1,0,0.1-0.1,0.1-0.1
			c0.6-0.5,1.5-0.5,2.1,0"/>
		<path class="st9" d="M916.8,664.1h-3.2c-0.2,0-0.4,0.2-0.4,0.4c0,0,0,0.1,0,0.1l1.4,4.3v3.8h1.2V669l1.4-4.3
			c0.1-0.2,0-0.5-0.3-0.5C916.9,664.1,916.8,664.1,916.8,664.1z"/>
		<path class="st90" d="M915.4,644.2c0.8-6,6.4-10.2,12.4-9.4c1,0.1,2,0.4,3,0.9"/>
		<path class="st84" d="M931.7,636.1c0.3,0.2,0.6,0.3,0.9,0.5"/>
	</g>
	<g>
		<rect x="251.5" y="627.5" class="st6" width="2.5" height="3.6"/>
		
			<rect x="260.8" y="633.1" transform="matrix(0.7071 -0.7071 0.7071 0.7071 -371.549 371.0398)" class="st22" width="2.7" height="1.9"/>
		
			<rect x="242.6" y="632.5" transform="matrix(0.7071 -0.7071 0.7071 0.7071 -376.9279 357.8792)" class="st22" width="1.9" height="3"/>
		<path class="st2" d="M291.7,701.3c0-5.1,0.1-9.2,4.4-9.2h-78.2c-2.4,0-4.3,2.3-4.3,5.2v8c0,2.9,1.9,5.2,4.3,5.2H296
			C291.7,710.5,291.7,706.4,291.7,701.3z"/>
		<path class="st8" d="M291.6,701.4c0-4.1-0.2-7.5,4-7.5h-76c-2.3,0-4.2,1.9-4.2,4.2v6.6c0,2.3,1.9,4.1,4.1,4.2h76
			C291.5,708.8,291.6,705.5,291.6,701.4z"/>
		<line class="st91" x1="219.8" y1="693" x2="296.1" y2="693"/>
		<line class="st91" x1="219.5" y1="709.7" x2="295.8" y2="709.7"/>
		<polygon class="st6" points="236.2,715.3 231.5,710.9 226.9,715.3 226.7,701.4 236.2,701.4 		"/>
		<path class="st92" d="M296,709.7c-2.8,0-5-3.7-5-8.4s2.3-8.4,5-8.4"/>
		<path class="st6" d="M222.4,678.5h68.4c0.5,0,0.8,0.4,0.8,0.8v12c0,0.5-0.4,0.8-0.8,0.8h-68.4c-0.5,0-0.8-0.4-0.8-0.8v-12
			C221.5,678.9,221.9,678.5,222.4,678.5z"/>
		<rect x="228.3" y="678.5" class="st8" width="4.4" height="13.7"/>
		<rect x="280.4" y="678.5" class="st8" width="4.4" height="13.7"/>
		<path class="st2" d="M218.9,671.2c0,4-0.1,7.3-3.5,7.3h62.6c1.9,0,3.5-1.8,3.5-4.1v-6.4c0-2.3-1.6-4.1-3.5-4.1h-62.3
			C219,663.8,218.9,667.1,218.9,671.2z"/>
		<path class="st8" d="M218.9,671.1c0,3.3,0.1,6-3.2,6h60.8c1.9,0,3.4-1.5,3.4-3.3c0,0,0,0,0,0v-5.3c0-1.9-1.5-3.4-3.4-3.4h-60.9
			C219.1,665.2,218.9,667.8,218.9,671.1z"/>
		<line class="st91" x1="276.6" y1="664.5" x2="215.6" y2="664.5"/>
		<path class="st91" d="M215.5,664.4c2.2,0,4,3.1,4,6.8c0,3.8-1.8,6.9-4,6.9"/>
		<line class="st84" x1="228.3" y1="668.2" x2="273" y2="668.2"/>
		<line class="st84" x1="228.3" y1="671.1" x2="273" y2="671.1"/>
		<path class="st16" d="M208.2,639.1h-20.4c-0.8,0-1.5,0.7-1.5,1.5v13.5c0,0.8,0.7,1.5,1.5,1.5h2.4l3.7,4.2c0.1,0.2,0.4,0.2,0.5,0
			c0.1,0,0.1-0.1,0.1-0.2l1.1-4.1h12.6c0.8,0,1.5-0.7,1.5-1.5v-13.5C209.7,639.8,209,639.1,208.2,639.1z"/>
		<text transform="matrix(1 0 0 1 194.05 651.2526)" class="st47 st93 st94">Q</text>
		<path class="st16" d="M311.7,669.7h20.4c0.8,0,1.5,0.7,1.5,1.5v13.5c0,0.8-0.7,1.5-1.5,1.5h-2.4l-3.7,4.2c-0.1,0.2-0.4,0.2-0.5,0
			c-0.1,0-0.1-0.1-0.1-0.2l-1.1-4.1h-12.6c-0.8,0-1.5-0.7-1.5-1.5v-13.5C310.2,670.3,310.9,669.7,311.7,669.7z"/>
		<text transform="matrix(1 0 0 1 318.05 681.6026)" class="st95 st93 st94">A</text>
		<path class="st84" d="M192.5,688.2l-1-0.1"/>
		<path class="st96" d="M189.5,687.9c-12.1-2.1-20.3-13.7-18.2-25.8c0.7-3.9,2.4-7.5,4.9-10.5"/>
		<path class="st84" d="M176.9,650.8c0.2-0.2,0.5-0.5,0.7-0.7"/>
		<circle class="st2" cx="252.7" cy="642.1" r="11.4"/>
		<circle class="st95" cx="252.7" cy="642.1" r="10.2"/>
		<rect x="250.2" y="626.7" class="st7" width="4.9" height="1.4"/>
		<line class="st89" x1="252.7" y1="642.1" x2="252.7" y2="637.2"/>
		<circle class="st2" cx="252.7" cy="642.1" r="1.4"/>
		<line class="st37" x1="252.7" y1="648.4" x2="252.7" y2="646.4"/>
		<line class="st37" x1="252.7" y1="635.1" x2="252.7" y2="633.3"/>
		<line class="st37" x1="261.4" y1="642.1" x2="259.5" y2="642.1"/>
		<line class="st37" x1="245.7" y1="642.1" x2="243.8" y2="642.1"/>
		<path class="st84" d="M328.1,696.5c0,0.3,0.1,0.7,0.1,1"/>
		<path class="st97" d="M328,699.3c-0.9,6.1-6.7,10.3-12.8,9.4c-1.2-0.2-2.4-0.6-3.4-1.1"/>
		<path class="st84" d="M311,707.1c-0.3-0.2-0.6-0.4-0.8-0.6"/>
		<polyline class="st84" points="322.6,655.7 322.6,639.7 279,639.7 		"/>
		<line class="st84" x1="227.8" y1="628.4" x2="227.8" y2="631"/>
		<line class="st84" x1="227.8" y1="633" x2="227.8" y2="635.6"/>
		<line class="st84" x1="229.1" y1="632" x2="231.6" y2="632"/>
		<line class="st84" x1="224" y1="632" x2="226.6" y2="632"/>
	</g>
	<g>
		<polygon class="st8" points="547.7,651.8 547.7,700.9 498.1,700.9 498.1,644.1 539.9,644.1 		"/>
		<path class="st16" d="M555.1,640.5h14.6c0.6,0,1.1,0.5,1.1,1.1l0,0v9.7c0,0.6-0.5,1.1-1.1,1.1l0,0H568l-2.7,3
			c-0.1,0.1-0.3,0.1-0.4,0c0,0-0.1-0.1-0.1-0.1l-0.8-2.9h-9c-0.6,0-1.1-0.5-1.1-1.1l0,0v-9.7C554,641,554.5,640.5,555.1,640.5
			L555.1,640.5z"/>
		<path class="st7" d="M548.4,693.3h13c0.5,0,1,0.4,1,1v20.7c0,0.5-0.4,1-1,1h-13c-0.5,0-1-0.4-1-1v-20.7
			C547.4,693.7,547.9,693.3,548.4,693.3z"/>
		<circle class="st47" cx="559.9" cy="698.2" r="0.9"/>
		<polygon class="st22" points="526.2,676.8 537.2,678.8 537.1,674.9 		"/>
		<polygon class="st2" points="526.2,676.8 528.7,677.2 528.8,676.3 		"/>
		<polygon class="st7" points="537.2,678.8 537.1,674.9 574.2,675.2 574.3,679.1 		"/>
		<polygon class="st2" points="537.2,678.8 537.2,678.1 574.3,678.4 574.3,679.1 		"/>
		<polygon class="st2" points="537.2,677.1 537.1,676.5 574.3,676.8 574.3,677.4 		"/>
		<polygon class="st2" points="537.1,675.5 537.1,674.9 574.2,675.2 574.2,675.8 		"/>
		<polygon class="st47" points="574.1,679.1 574.1,675.2 579.6,675.2 579.6,679.1 		"/>
		<path class="st7" d="M579.6,675.2c1.1,0,2,0.9,2,2c0,1.1-0.9,2-2,2V675.2z"/>
		<path class="st9" d="M560.6,667.4h-0.2h-0.2c-1,0-1.8,0.7-2,1.7v0.1v-0.9c0.1-1.1-0.7-2.1-1.8-2.1s-2.1,0.7-2.1,1.8
			c0,0.1,0,0.2,0,0.3v-2.2c-0.1-1.2-1.1-2-2.3-2c-1.1,0.1-1.9,0.9-2,2v2.3c0-1.2-0.9-2.1-2.1-2.1c-1.2,0-2.1,0.9-2.1,2.1v5.2
			c0-1.3-1-2.3-2.3-2.3c-1.3,0-2.3,1-2.3,2.3v7.6c0,0.8,0.4,1.5,1.1,2l0,0l6.6,5.9l0,0v4.4h11.7V689l0,0v-1.2l1-2.1
			c0.3-0.2,0.5-0.5,0.6-0.9c0.5-0.4,0.8-1.1,0.8-1.8v-13.2C563,668.5,562,667.4,560.6,667.4C560.6,667.4,560.6,667.4,560.6,667.4z"
			/>
		<path class="st2" d="M546.6,692.2h16.6c0.2,0,0.4,0.2,0.4,0.4v2.2c0,0.2-0.2,0.4-0.4,0.4h-16.6c-0.2,0-0.4-0.2-0.4-0.4v-2.2
			C546.2,692.4,546.4,692.2,546.6,692.2z"/>
		<polygon class="st7" points="539.9,644.1 539.9,651.8 547.7,651.8 		"/>
		<circle class="st16" cx="510.7" cy="656.2" r="5.2"/>
		<path class="st98" d="M537.2,638.7c0-0.3,0.1-0.7,0.2-1"/>
		<path class="st99" d="M538,635.9c2.3-5,8.1-7.1,13.1-4.9c0.8,0.3,1.5,0.8,2.1,1.3"/>
		<path class="st98" d="M554,633c0.2,0.2,0.5,0.5,0.7,0.8"/>
		<line class="st100" x1="521.9" y1="657.4" x2="538.5" y2="657.4"/>
		<line class="st100" x1="521.9" y1="660.4" x2="538.5" y2="660.4"/>
		<line class="st100" x1="521.9" y1="663.5" x2="538.5" y2="663.5"/>
		<path class="st16" d="M459,657.8l33.9-6c0.3-0.1,0.7,0.2,0.7,0.5l7.3,41.2c0.1,0.3-0.2,0.7-0.5,0.7l-33.9,6
			c-0.3,0.1-0.7-0.2-0.7-0.5l-7.3-41.2C458.4,658.2,458.7,657.9,459,657.8z"/>
		<path class="st2" d="M458.7,657.3l2.2-0.4c0.2,0,0.4,0.1,0.4,0.3l7.6,42.8c0,0.2-0.1,0.4-0.3,0.4l-2.2,0.4c-0.2,0-0.4-0.1-0.4-0.3
			l-7.6-42.8C458.3,657.5,458.5,657.3,458.7,657.3z"/>
		<path class="st8" d="M470.1,662l16.8-3c0.1,0,0.2,0.1,0.2,0.2l1.5,8.6c0,0.1-0.1,0.2-0.2,0.2l-16.8,3c-0.1,0-0.2-0.1-0.2-0.2
			l-1.5-8.6C469.9,662.1,470,662,470.1,662z"/>
		<line class="st101" x1="448.3" y1="646.8" x2="463.8" y2="646.8"/>
		<line class="st101" x1="422" y1="663" x2="450.9" y2="663"/>
		<line class="st101" x1="434" y1="638.7" x2="434" y2="641.3"/>
		<line class="st101" x1="434" y1="643.3" x2="434" y2="646"/>
		<line class="st101" x1="435.3" y1="642.4" x2="437.9" y2="642.4"/>
		<line class="st101" x1="430.1" y1="642.4" x2="432.7" y2="642.4"/>
		<line class="st101" x1="528.7" y1="708.6" x2="528.7" y2="711.2"/>
		<line class="st101" x1="528.7" y1="713.3" x2="528.7" y2="715.9"/>
		<line class="st101" x1="530" y1="712.3" x2="532.7" y2="712.3"/>
		<line class="st101" x1="524.8" y1="712.3" x2="527.5" y2="712.3"/>
		<polyline class="st98" points="507,709.9 515.2,709.9 515.2,684.9 		"/>
		<line class="st102" x1="556.8" y1="644.6" x2="567.9" y2="644.6"/>
		<line class="st102" x1="556.8" y1="647.5" x2="567.9" y2="647.5"/>
	</g>
</g>
</svg>
